<svg xmlns="http://www.w3.org/2000/svg" viewBox="0 0 1500 1500" width="1500" height="1500"><g transform="translate(479.0 193.0) rotate(6.832361677416983 436.0 472.0) scale(4.4851352741487505 4.4903201255767495)"><svg width="194.42" height="210.23" viewBox="0 0 194.42 210.23"><path d="M21 174.23c-5 0-15 7-15 14s14 6 17 6c8 0 20-4 24-4s7-3 7-5c0-4-12-11-33-11z" fill="#c2a58a"/><path d="M105.21 144a21.16 21.16 0 0 0 11.3 9.34c5.47 2 12.83 3.66 21 6.84-5.48-4.31-13.72-8.63-20.4-11.65a107.48 107.48 0 0 0-11.9-4.53zm-10.54-7.44c-7-3.35-15.69-6.4-21.46-5.39 6.2 1.39 13.13 5.56 18.56 9.56 3.31 2.41 13.44 3.29 13.44 3.31a35.93 35.93 0 0 0-10.54-7.48zm3.33-7.99c-6.92-3.33-15.4-5.66-20.48-5.44 5 1.57 13.71 5.32 18.37 11.13 3 3.71 12.93 2.63 12.94 2.64A33.91 33.91 0 0 0 98 128.57zm20.44-6.77a12.72 12.72 0 0 0 7.84 8.9c5.55 2.13 13.5 1.78 22.51 5.78-8.54-6.08-13.65-9.64-20.54-11.67a720.21 720.21 0 0 1-9.81-3.01z" fill="#388e3c"/><path d="M108.79 136.9a13.64 13.64 0 0 0 7.78 8.84c5.62 2.28 14.26 3.4 23.74 7.09-5.49-4.52-14.14-9.33-20.69-12.54a43.4 43.4 0 0 0-10.83-3.39zm.14-25.03a40.09 40.09 0 0 0-19.41-9.21c4.73 1.51 9 8.2 14.06 13.51 4.09 4.3 14.85 5.61 14.86 5.63a62.5 62.5 0 0 0-9.51-9.93zm4.61 17.13s2.57 7.55 8 9.53c5.72 2.08 13.86 3.81 22.45 7.21a98.15 98.15 0 0 0-20.59-12.23c-4.92-2.2-9.86-4.51-9.86-4.51zm.92 26a66.12 66.12 0 0 0-13.2-4c.25 2.7 9.67 8.33 12.17 9a135.41 135.41 0 0 1 20.57 7.32c-2.78-4.09-11.88-8.98-19.54-12.32zm-50.94 1.88A83.52 83.52 0 0 1 82 161.43c5.56 2.07 13.68 1.08 13.69 1.08a42.91 42.91 0 0 0-11.75-4.71c-6.83-1.52-15.18-2.57-20.42-.92zm41.26 14.28a42.44 42.44 0 0 0-10.53-3.49 27.36 27.36 0 0 0 8.63 9.05c3.88 2.37 6.91.48 18.16 9.29-1.87-5.27-9.82-11.61-16.26-14.85zm-14.64-28.22c-6.43-2.85-14.48-5.35-20.87-4.55a51 51 0 0 1 18.93 8.84c3.67 2.72 13.06 3.71 13.06 3.73a34.91 34.91 0 0 0-11.12-8.02zm-27.62 21.78c7.22.83 12.37 3.6 18.09 4.15 3.56.31 13.63-1.22 13.64-1.2a41.94 41.94 0 0 0-12-3.19c-7.39-.81-16.5-1.72-19.73.24zm35.69-7s8.22 6.64 11.71 7.89c5 1.77 11.51 4.19 19.21 7.45-5.27-5.13-10.34-7.87-17.6-11.3a58.38 58.38 0 0 0-13.32-4.04z" fill="#388e3c"/><path d="M63.89 148.43a78.9 78.9 0 0 1 19.92 5.67c3.53 1.52 14.41 3.59 14.4 3.62a38.39 38.39 0 0 0-11.81-7.34c-7.69-2.77-17.4-4.92-22.51-1.95zm43.93 17.97a47.43 47.43 0 0 0-12.18-3.89s5.41 5 10.48 7.18a186 186 0 0 1 21.13 10.23c-2.11-3.92-11.56-9.62-19.43-13.52zm-25.44-52.98a50.7 50.7 0 0 1 18.21 11.36c2.91 2.72 13 4.22 13 4.24a83.38 83.38 0 0 0-10.06-7.79c-5.99-4-13.8-7.85-21.15-7.81zm73.41-39.06c-2.08-3.6-5.39-7-11.91-10.13 4.7 4.56 5.37 10.17 6.77 13.79 2.2 5.72 6.49 7.35 6.49 7.35s1.11-6.76-1.35-11.01zM148 81.82a30 30 0 0 0-16.29-10.15 23.63 23.63 0 0 1 10.53 13c1.45 4.42 7.66 6.09 7.65 6.1s.92-5.68-1.89-8.95zm15.54-12.17c-.84-3.69-2.37-7.88-7.29-10.63 2.36 3.2 1.41 9.25 2.08 13.21 1.11 6.59 4.76 9.59 4.76 9.59s1.7-6.72.45-12.17zM160.3 92.9a28.61 28.61 0 0 0-10.37-2.11s-.06 4.84 6.35 7c6 2 14.58 2.72 19.18 5.89A44.07 44.07 0 0 0 160.3 92.9z" fill="#388e3c"/><path d="M165.25 86.81a23.38 23.38 0 0 0-8.11-1.44s1 3.42 5.92 5.48c4.12 1.72 10.4 2 16.48 5.8-3.75-4.65-9.08-7.86-14.29-9.84zm.45-6.58 4.46-2.57c8.67.21 24.19-11.08 24.26-11s-8.67 2.89-16.27 5.29c-7.09 2.24-8 5.59-8 5.58l-4.5 2.75a72.72 72.72 0 0 0 8.19 2.32c5.59.94 13 .61 18.37 3.57-2.21-2.3-7.86-5.93-15-7s-11.05.83-11.51 1.06zm7.8-25c-.73 4.75-6 10.27-7.12 15.27a33.35 33.35 0 0 0-.73 9.76 50 50 0 0 0 6.77-11.78c1.58-4.11 1.45-7.83 1.08-13.25zm-10.41 26.59s1.28 3.2 6 4.79c3.85 1.29 10.83 2 17.38 5.12a57.31 57.31 0 0 0-15.22-8.21 25.68 25.68 0 0 0-8.16-1.7zM153 98.4c-4.48-2-10.6-1.82-10.59-1.82a12.13 12.13 0 0 0 7.41 7.49c4.59 1.79 9.22 1.08 19.52 6.16-4.68-5.69-9.42-8.79-16.34-11.83zm-35.6 8.89c-4.78-3.84-11.88-8.21-19.87-9.24 5.73 3.14 10.94 8.53 14.54 13.54 2.94 4.06 11.23 5.16 11.23 5.17s-1.75-6.15-5.9-9.47zm5.93-6.87c-5-4.27-10.53-10.14-17.7-11.06 5.17 2.79 9.17 10.35 12.89 15.66a14.4 14.4 0 0 0 9.48 5.57 14.27 14.27 0 0 0-4.67-10.17zm-.03 16.34a15 15 0 0 0 9.19 7.76c5.78 1.82 9.37 2.84 17.51 5.71-5.42-4.83-8.83-8.62-15-10.86a52.13 52.13 0 0 0-11.7-2.61zm4.7-6.17a17.09 17.09 0 0 0 9.71 7.29c4.57 1.44 11.38 1.23 18.83 4.18a42.26 42.26 0 0 0-16.37-10.32c-5.17-1.82-12.17-1.16-12.17-1.15zm12.26-23.68A29.61 29.61 0 0 0 124.58 76c3.92 2.9 6.46 8.6 9.33 13a22.89 22.89 0 0 0 8.54 7.57s.74-5.51-2.19-9.66zm-10.05 6.32c-5-4.45-7.93-7.75-14.09-8.92 5.52 3.66 6.3 7.09 9.43 12.92 2.68 5.13 10.09 5.79 10.09 5.8a17.7 17.7 0 0 0-5.43-9.8zm5.43 9.77s1.53 5 8.46 7c4.8 1.43 11.51 2.18 19.19 5.66-5.25-4.47-11.8-8.86-17.08-10.75-6.75-2.35-10.57-1.91-10.57-1.91z" fill="#388e3c"/><g fill="#2e7d32"><path d="M171.28 77c.09-.68-64.88 27.62-85.18 106.91l5.07 1.37C105.23 135 129.11 103.44 171.28 77zM50.27 122.84c7-.58 15.85 1.57 23.2 4 4.47 1.45 15.42-1.64 15.42-1.64a42.83 42.83 0 0 0-14.17-4.14c-8.67-1.06-18.87-1.34-24.45 1.78z"/><path d="M87.78 134.46c1.41 2.94 13.89 5.26 16.88 4.93a193.14 193.14 0 0 1 25.22-1.26c-4.88-3.13-16.88-4.29-26.42-4.75a82.33 82.33 0 0 0-15.68 1.08zM49 132.35a60.65 60.65 0 0 1 23.46 3.09c5 1.68 15.35-1 15.35-1a42.55 42.55 0 0 0-15.09-4.57c-7.96-.64-17.36-.64-23.72 2.48zm43.35-37.24s4.11 6.53 12 6.44c6.6-.07 15.41-2.18 26.45-2.15a138.92 138.92 0 0 0-26.29-3.88c-6.91-.4-12.16-.41-12.16-.41zm-20.19 53.83c-7.9.88-17.25 2.68-22.32 6.32a105.8 105.8 0 0 1 21.69-1.51c6.86.25 15.22-4.13 15.22-4.13a51.37 51.37 0 0 0-14.59-.68zM55.71 87.92c5.32 0 13 2.65 19.25 7 5.68 3.9 17.39.24 17.39.24a54.49 54.49 0 0 0-12.49-6.54c-7.21-2.74-16.28-4.39-24.15-.7zm33.18 37.24a23.66 23.66 0 0 0 16 5.58c6.63-.21 15.13-1.61 25.25-2-7.84-2.09-18.46-3.08-26.79-3.55a139.49 139.49 0 0 0-14.46-.03zm-1.48 30.78s5.94 5.2 13.28 6.52c5.31.95 7.7-2.33 24.1 2.21-4.53-4.91-16.07-8.31-24.45-9.2a51.36 51.36 0 0 0-12.93.47zm15.85-43.71c6.82-.18 16.26-3.38 26.68-3.75a127.29 127.29 0 0 0-27.19-3.75 84.39 84.39 0 0 0-12 .37s6.02 7.3 12.51 7.13zm-12.54-7.13a109.33 109.33 0 0 0-13.64-4.6c-7.76-2.1-17.19-3.46-24.57-.82 8.52.18 16.67 2.89 23.21 5.92 4.14 1.92 15-.5 15-.5zm-1.29 10.68a40.23 40.23 0 0 0-14.75-4.94c-8.5-1-18.1-.55-23.2 1.46 5.72 0 16.19 1 23.48 5.7 4.7 3 14.47-2.22 14.47-2.22zm-4.79-36.23c-6.46-2.29-15.33-4.33-23.58-2.55 7 1.37 14.47 5.32 20.3 9.41 4.75 3.34 13.48 1.08 13.48 1.08s-4.62-5.97-10.2-7.94zm16.81 42.74c6.89.11 16.34-2.46 27.91-2.92-7.9-2.3-19.07-3.66-27.27-4.4a48 48 0 0 0-12.66.81s4.32 6.39 12.02 6.51zm1.98 24.82c6.2-.21 14.23-.39 24-.42-8.08-3.16-14.76-3.88-24-4.54a71.5 71.5 0 0 0-16 1.08s11.68 4 16 3.88z"/><path d="M73.12 157.06c-8.39 1.94-18.64 4.12-21.46 7.45 8.2-1.56 14.9-.32 21.38-1.88 4-1 14.37-6.69 14.37-6.69a50.85 50.85 0 0 0-14.29 1.12zm-2.53-12.25c4.41.42 16.87-1.58 16.87-1.58a46.58 46.58 0 0 0-15.64-3.58c-9.3-.16-20.43.83-24.73 5.9a97.82 97.82 0 0 1 23.5-.74zm16.16 4.81s8 3.42 14.39 3.65 15.61.43 27.56 1.81c-4.18-3.33-17-5.2-27.18-6.19a56.26 56.26 0 0 0-14.77.73zm25-111.07s2.64 3.26 8.3 3.18a111.48 111.48 0 0 1 18.54.62 51.1 51.1 0 0 0-17.28-5.47 21.17 21.17 0 0 0-9.56 1.67zm-3.93 9.1s2.37 5.29 9.5 4.69c6.72-.56 15.1-.64 21.1.47-5.93-4-13.82-6.3-19.86-7.59-5.24-1.13-10.74 2.43-10.74 2.43zM96.49 13.49c3.73 2.43 7 6.37 9.62 10.34 4.38 6.62 9.27 8.18 9.27 8.18s-1.58-7.11-5.76-11.5a22.48 22.48 0 0 0-13.13-7.02zm8.6 15.04c-4-2.43-9.71-4.32-17.15-4.93a44.53 44.53 0 0 1 14.12 9.9c4.9 5.23 9.69 5 9.69 5s-2.29-7.27-6.66-9.97zM123.5 31a63.18 63.18 0 0 0-8.12 1 10.18 10.18 0 0 0 8 2.33 161.9 161.9 0 0 1 17.62-.59A38.66 38.66 0 0 0 123.5 31zm2.86-7.43c-4.18 1-9.45 5.58-9.45 5.58a60 60 0 0 0 8.64-1.35c5.57-1.66 12.51-3.1 18.92-2.65-3.27-1.31-10.89-3.23-18.11-1.58zM135.13.86s-5.93 7.33-11.41 13.49c-5.11 5.74-4.24 9.75-4.24 9.75l-2.57 5 2.72-4.89c8.03-3.75 15.5-23.35 15.5-23.35z"/><path d="M115.85 14.09c-2-4.86-4.69-10.42-7.95-14.09 1.85 5.43 3 12.44 4.57 18.33a46.6 46.6 0 0 0 4.44 10.82s1.15-9.61-1.06-15.06zM96.84 47.66A32 32 0 0 0 77 42.28c5 1.61 10.12 6.8 14.93 10.37a23.87 23.87 0 0 0 11.73 4.58s-2.04-6.31-6.82-9.57zm-.29 31.11s-2.8-6.68-9.33-9.21c-6.81-2.64-15.55-4.93-22.87-3.25 6.21 1.15 14.25 6 20.34 10.28a14.55 14.55 0 0 0 11.86 2.18zm13.01 3.74c5.19-.46 12-1.5 20.74-1.86a99.64 99.64 0 0 0-21.3-5.92c-5.89-.93-12.4 4-12.4 4a18.37 18.37 0 0 0 12.96 3.78zm-8-43.75c-4.87-2.7-11.86-5.41-20-4.18 6.15 1 12.18 5.15 16.09 9.8 3.53 4.19 10.19 3.27 10.19 3.27s-2.08-6.56-6.28-8.89zM90.41 58.81C83.55 56 74.94 53.4 68.58 54.47a49.31 49.31 0 0 1 19.28 10.68c5 4.55 12.47 2.09 12.47 2.09a22.66 22.66 0 0 0-9.92-8.43z"/><path d="M103.66 57.23A13.67 13.67 0 0 0 114.43 62a182 182 0 0 1 21.66.36A94.21 94.21 0 0 0 114.83 55c-5.21-1.17-11.17 2.23-11.17 2.23zm-3.33 10s3.88 4.79 11.6 3.92a182.28 182.28 0 0 1 21.66-1.23c-7.38-2.26-14.91-4-20.83-4.33a33.38 33.38 0 0 0-12.43 1.64zm-5.49 20.29a16.62 16.62 0 0 0 12.79 4.55c6.63-.55 14.91-2.42 24.4-3.21-7.82-2.61-17.18-3.39-24.37-3.54a38.86 38.86 0 0 0-12.82 2.2z"/></g><path d="M120.27 23S77.06 80.92 85.11 177.38l6.23-.52C86.15 114.64 96.07 71 120.27 23z" fill="#326e36"/><path d="M131.64 155.23a42.82 42.82 0 0 1 7.22 10 50.4 50.4 0 0 0-4.22-11.4 13.2 13.2 0 0 0-3.49-4.36s-.54 4.76.49 5.76zm5.28-.83c1.78 2.56 4.47 5.54 6.78 9.29A33.32 33.32 0 0 0 140 153a15.79 15.79 0 0 0-4.39-4.78 7.89 7.89 0 0 0 1.31 6.18zm-14.82 4.28a65.45 65.45 0 0 1 8 10.24 58.1 58.1 0 0 0-4.67-11.69 13.48 13.48 0 0 0-3.85-4.31s-.33 4.86.52 5.76zm4.81-1.68c1.77 2.63 4.71 5.85 7.19 9.94a46.94 46.94 0 0 0-4.52-11.54 15.39 15.39 0 0 0-3.43-4.15 7.65 7.65 0 0 0 .76 5.75zm-27.69.35c-3.06-2.69-7.06-5.52-9.37-5.46a39.49 39.49 0 0 1 7.45 6.87c1.25 1.47 6.37 4.12 6.35 4.13a20.31 20.31 0 0 0-4.43-5.54zm19.43 17.19c.11-2-2.15-6.58-4.36-10.23a28.09 28.09 0 0 0-4.56-5.52s1.34 5.21 2.55 6.79c1.72 2.26 3.93 5.23 6.37 8.96zm23.07-21.31a92.39 92.39 0 0 1 5.28 8.17 38.48 38.48 0 0 0-1.81-9.92c-.85-2.6-4.28-4.26-4.29-4.25a6.49 6.49 0 0 0 .82 6z" fill="#52a246"/><path d="M103.65 162.89s1 4.78 1.78 5.73a59.09 59.09 0 0 1 5.66 9.45c.67-3-1.28-7.43-3.25-10.74a16.56 16.56 0 0 0-4.19-4.44zm12.13 1.19a61.37 61.37 0 0 1 6.86 9.33c0-2.63-2.37-7.52-4.68-11.28a26.1 26.1 0 0 0-4.56-5.33c-.19 1.43 1.44 6.2 2.38 7.28zm-.06 13.01c.23-2.41-2.3-7.73-4.67-11.76a16.37 16.37 0 0 0-4.39-4.8s1.46 5.28 2.19 6.12a50.66 50.66 0 0 1 6.87 10.44zM103 141.62a24.82 24.82 0 0 1 5.6 9.4c.7 1.93 4.83 5.78 4.82 5.78a18.05 18.05 0 0 0-2.33-7.14c-1.98-3.14-4.78-6.59-8.09-8.04zm-6.5 3.07a36.25 36.25 0 0 1 7.49 8.19c1.13 1.69 5.76 5.91 5.74 5.91a21.28 21.28 0 0 0-3.17-6.87c-2.62-3.45-6.46-7.2-10.06-7.23zm-3.33 3.8a39.1 39.1 0 0 1 7.33 7.21 21.58 21.58 0 0 0 6.16 4.83 19.35 19.35 0 0 0-4-5.95c-2.66-2.58-6.31-5.41-9.49-6.09zm44.13-5.94c-.48-3.07-1.67-7.09-4.73-10a21.41 21.41 0 0 1 .64 10.12c-.38 2.61 2.41 5.58 2.4 5.58s2.09-3.02 1.69-5.7zm20.2 8.53a33.78 33.78 0 0 1 3.73 9 23.37 23.37 0 0 0-.06-9.64c-.45-2.41-3.28-4.32-3.28-4.31a3.9 3.9 0 0 0-.39 4.95z" fill="#52a246"/><path d="M161 142.23a12 12 0 0 0-2-9.19 10.84 10.84 0 0 1-1.56 8.4c-1.35 2.18.49 4.73.48 4.73s2.77-1.79 3.08-3.94zm-8.7 9.26a61.23 61.23 0 0 1 4.08 9.18 36.76 36.76 0 0 0-.65-10.2c-.47-2.4-3.37-4.3-3.37-4.29a5.38 5.38 0 0 0-.06 5.31zm14.56-9.26a14.66 14.66 0 0 0-.84-8.1 17.44 17.44 0 0 1-2.25 7.51 5.14 5.14 0 0 0-.44 5s3.01-2.13 3.53-4.41zm-11.25-.57a12.09 12.09 0 0 0-1.62-9.28c.3 2.38-1.21 5.41-1.92 8a9.38 9.38 0 0 0 .29 5.76 9.29 9.29 0 0 0 3.25-4.48zm21.73 6.89c-3.75-1.58-5.83-.68-5.83-.69 2.83 2.92 14.38 4.23 14.4 4.31s-4.56-1.94-8.57-3.62zm-5.56-5.42a8.51 8.51 0 0 0 1.2-6.64 15.63 15.63 0 0 1-3.54 5.55 15.15 15.15 0 0 0-3.21 4.89s4.06-1.42 5.55-3.8zm-2.5 4.24A7.87 7.87 0 0 0 171 151a22 22 0 0 1 4.37 7.93 13.47 13.47 0 0 0-2.15-8.12 16.46 16.46 0 0 0-3.94-3.44z" fill="#52a246"/><path d="M182.08 140c-2.54 1.39-6 2.71-8.68 4.14a12.4 12.4 0 0 0-4.12 3.28c-.15 0 4.46-.71 6.87-2.32a26 26 0 0 0 5.93-5.1zm-36.3-8.94a18.62 18.62 0 0 1-.79 10c-1 2.91 1.44 5.52 1.43 5.52a8.51 8.51 0 0 0 2.26-5.64c-.15-3.4-.8-7.45-2.9-9.88zm-20.26 13.06c-1.06-3.51-3-7.51-6.32-9.69a22.05 22.05 0 0 1 3.6 10.35c.24 2.05 3.36 6.5 3.35 6.51a18.68 18.68 0 0 0-.63-7.17zm6.26-1.58c-.55-3.44-2.07-7.44-6-9.66 1.46 2.08 2.2 5.69 1.81 9.12-.33 3.11 3.58 7.51 3.56 7.52a15.73 15.73 0 0 0 .63-6.98zm10.94-.94c-.32-3.3-1.27-7.33-4-10 1 2.75.57 7 0 10.33-.56 3.13 2.18 5.29 2.17 5.29a8.52 8.52 0 0 0 1.83-5.62zm-16.27 29.72c-1-3.54-3.56-7.7-5.09-11.23-1.79-4.12-3.79-5.3-3.79-5.3s.68 5.91 1.83 7.24a83.74 83.74 0 0 1 7.05 9.29zm-18.78-31.82c2.35 2.42 3.94 6.29 5 9.65.64 2 4.94 5.64 4.94 5.64a16.85 16.85 0 0 0-2-6.63c-2.01-3.54-4.83-7.44-7.94-8.66zm12.45 6.13c-1.83-3.51-4.76-7-7.2-8.44 1.66 2.15 4.14 6.37 4 10.3 0 2.52 4.64 5.4 4.62 5.41a14.59 14.59 0 0 0-1.42-7.27z" fill="#52a246"/><path d="M146.44 146.54a6.13 6.13 0 0 0 1.05 5.54 59.69 59.69 0 0 1 5 8.8 36.16 36.16 0 0 0-2.19-9.46 13 13 0 0 0-3.86-4.88zm16.7 4.06a40.47 40.47 0 0 1 3 8.06 20 20 0 0 0-.42-8.23 9.57 9.57 0 0 0-2.41-3.78 3.77 3.77 0 0 0-.17 3.95zm4.22.4a55.05 55.05 0 0 1 3.27 7.57 15.5 15.5 0 0 0-1.6-8 12.35 12.35 0 0 0-2.8-3.62 8.74 8.74 0 0 0 1.13 4.05z" fill="#52a246"/><path d="M172.42 148.09c1.55 0-37.63-12.76-77.31 19.18.69.67 1.37 1.35 2 2 26.13-19.96 47.53-24.83 75.31-21.18z" fill="#388e3c"/><path d="M96.35 162.23c-.1-19.74.83-148-44-148-14 0-18 10-18 23 0 41 51.22 122.9 55 163h6s1.07-30.06 1-38z" fill="#558b2f"/><path d="M95.35 200.23c0-43-15.64-141.78-48.38-185.41C81 70.4 91.35 173 91.35 200.23z" fill="#639440"/><path d="M156.08 186.28c-14.9-9.05-31.36-8.05-43.08-8.05-11 0-14.6 4.2-17 9-2 4-5 6-5 9s1 9 21 9c17 0 28-3 34-5s18-2.82 18-7c0-2-2.42-3.62-7.92-6.95z" fill="#c2a58a"/><path d="M126.41 165.23c-.56-3.93-2.27-8.24-4.33-10.36 1 2.58 1.93 7.39.39 11.06-.94 2.37 2.77 6.62 2.73 6.64a13.94 13.94 0 0 0 1.21-7.34zM145 180.15a82 82 0 0 1 1.77 9.58 38.22 38.22 0 0 0 2.3-9.83c.28-2.73-2.41-5.6-2.42-5.6a6.27 6.27 0 0 0-1.65 5.85zm-10.64-1.92a39.37 39.37 0 0 1 3.21 12 48.44 48.44 0 0 0 .27-12.15 12.45 12.45 0 0 0-1.75-5.32s-2.35 4.14-1.73 5.47zm-14.58 2.27a73.29 73.29 0 0 1 3.74 11.08c.26-3.68-.83-8.46-1.12-12.28-.33-4.49-1.94-6.25-1.94-6.25s-1.38 5.81-.68 7.45zm.98-14.39c-.71-4-2.23-8.58-5.1-10.7 1.62 3 1.88 7.21 1.74 10.71-.05 2.13 3.07 6.91 3.06 6.93a15.94 15.94 0 0 0 .3-6.94zm8.24 12.17c.79 3.08 2.49 7.12 3.37 11.82a44.71 44.71 0 0 0-.14-12.39 14.5 14.5 0 0 0-1.85-5.09s-2.12 2.72-1.38 5.66zm-5.31-.05a58.5 58.5 0 0 1 4.22 12.33 55.24 55.24 0 0 0-.38-12.59 12.81 12.81 0 0 0-2.28-5.35s-2.15 4.44-1.56 5.61zm16.18 1.17c.75 3 2.17 6.81 2.91 11.15a32.25 32.25 0 0 0 .64-11.25 15 15 0 0 0-2.42-6.07 7.51 7.51 0 0 0-1.13 6.17zm-28.37 2.26c1 2.68 2.23 6.18 3.42 10.47.74-1.89 0-6.92-1-11.07a26.35 26.35 0 0 0-2.79-6.64s-.34 5.38.37 7.24zm39.57-.32a55.89 55.89 0 0 1 1.07 10.07 35.72 35.72 0 0 0 1.88-9.54 12.49 12.49 0 0 0-1.63-6 5.9 5.9 0 0 0-1.32 5.47zm-58.5-18.98a35.09 35.09 0 0 1 5.76 8.55c.88 1.74 5.32 5.68 5.29 5.7a18.91 18.91 0 0 0-2.86-6.55c-2.33-3.43-5.71-7.19-8.19-7.7zm11.05 14.25s-.4 4.89 0 6a53.29 53.29 0 0 1 2.81 10.62c1.52-2.65 1-7.49 0-11.24a15.66 15.66 0 0 0-2.81-5.38zm11.96-10.49c-.9-3.58-2.62-7.74-5.69-10.11a22.22 22.22 0 0 1 2.63 10.65c.08 2 3 7 3 7a16.84 16.84 0 0 0 .06-7.54z" fill="#5ab54e"/><path d="M110.15 166.93c-1.55-4.07-4.35-8.8-8.19-9.8a32.13 32.13 0 0 1 5.2 10c.64 2 4 7.34 4 7.34a19.48 19.48 0 0 0-1.01-7.54zm5.35 6.7c-.64 1.28-.61 6.37 0 7.65a56.81 56.81 0 0 1 3.66 11c.91-2.48.2-7.89-.84-12.17a23.65 23.65 0 0 0-2.82-6.48zM97.16 159.9a34.82 34.82 0 0 1 5.46 8.93 21.81 21.81 0 0 0 4.81 6.35 17.64 17.64 0 0 0-2.16-6.82c-1.96-3.27-4.92-6.98-8.11-8.46zm10.53 21.79a46.57 46.57 0 0 1 3.56 12c1-2.23.16-8.07-.94-12.63a15.61 15.61 0 0 0-2.91-5.83s-.16 5.43.29 6.46zm55.75-6.46a11.53 11.53 0 0 0 2.69-9.06c-.83 2.26-3.7 4.33-5.58 6.42a8.94 8.94 0 0 0-2.27 5.35s3.41-.66 5.16-2.71zm-7.52 7.57a59.63 59.63 0 0 1 0 10 38.14 38.14 0 0 0 3.76-9.55c.6-2.38-1.34-5.32-1.35-5.31a5.28 5.28 0 0 0-2.41 4.86zm5.08 1.78a32.29 32.29 0 0 1-.46 9.76 24.15 24.15 0 0 0 4.18-8.73c.66-2.37-1.16-5.31-1.17-5.31a3.9 3.9 0 0 0-2.55 4.28zm14.57 3.32c1.24 3.73 10.36 10.1 10.88 10.61-.24-.32-3.17-4-5.89-7.27s-5.01-3.34-4.99-3.34zm5.6-.31a30.26 30.26 0 0 0 8-1.57c-3-.05-6.83-.56-10-.58a12.85 12.85 0 0 0-5.37 1 23.36 23.36 0 0 0 7.37 1.15zm-12.81-9.46a11.45 11.45 0 0 0 2.33-9.13c-.54 2.84-2.9 5.33-5.44 6.85-2.29 1.37-1.67 4.46-1.68 4.46s3.48-.41 4.79-2.18zm-1.82 8.45a39.77 39.77 0 0 1-.81 8.57 20.6 20.6 0 0 0 3.3-7.57 9.2 9.2 0 0 0-.52-4.47 3.75 3.75 0 0 0-1.97 3.47zm11.53-2.78a8.7 8.7 0 0 0 4.37-5.28 17 17 0 0 1-6 3.23 15 15 0 0 0-5.3 2.88s4.4.6 6.93-.83z" fill="#5ab54e"/><path d="M177 173.23a18.49 18.49 0 0 1-5.75 5.66c-2.92 1.82-2.72 4.27-2.73 4.26s3.81-.56 5.38-2.33a14.3 14.3 0 0 0 3.1-7.59zm-39.72-17.95c.67 2.47-.06 6.1-1.82 9.16-1.56 2.78.66 8.3.63 8.3a15.78 15.78 0 0 0 3.45-6.24c.83-3.41.96-7.7-2.26-11.22zm7.72 13.28c.79-3 1.31-7.18-.59-11-.14 3.27-1.79 6.81-3.57 9.6-1.44 2.28.16 6.08.14 6.08s3.35-2.01 4.02-4.68zm-15.23-14.18a20.16 20.16 0 0 1-.3 11c-.53 2 .95 7.27.93 7.27a18.18 18.18 0 0 0 2.1-6.93c.29-3.72-.06-8.11-2.73-11.34zm21.07 15.42c1.1-3.15 1.93-7.22.35-10.71-.21 2.92-2.47 6.63-4.48 9.47-1.87 2.67 0 5.72-.06 5.72a9 9 0 0 0 4.19-4.48zm22.72 20.66a20.86 20.86 0 0 1 .29 9 13.5 13.5 0 0 0 1.84-8.21 16.08 16.08 0 0 0-1.95-4.85 7.57 7.57 0 0 0-.18 4.06zm-3.73 6.54a15.32 15.32 0 0 0 2.19-7.86 12 12 0 0 0-.91-4.5 8.1 8.1 0 0 0-.82 4.11 54.13 54.13 0 0 1-.46 8.25zm-12.78-25.38c1.31-3.12 2.51-7.07 1.52-10.15a18.55 18.55 0 0 1-5.21 8.74c-2.3 2.24-1 5.63-1 5.63s3.43-1.28 4.69-4.22z" fill="#5ab54e"/><path d="M176.29 188.53c2.6 1.21-30.9-30.81-82.72-9.94.52.82 1 1.65 1.53 2.48 32.39-12.54 57.45-8.49 81.19 7.46z" fill="#4a984e"/><path d="M140.55 67c-9.32-4.1-20 9.68-24.12 15.75-7.58 11.32-13 24.1-17.51 36.93C88.1 150.53 87 183.23 87 183.23h7s5.65-16.19 8.65-21.88q9.57-18.12 19.1-36.27c3.98-7.61 31.85-52.45 18.8-58.08z" fill="#689f38"/><path d="M92.38 183.23c8.88-41.25 22.76-79.08 47.31-116.56-30.08 34.85-47.62 94.24-51.38 116.58z" fill="#7cb342"/><path d="M140 120.23c-21-.51-47.85 49-54 63h8s10.59-8.5 24-18c19.5-13.81 32-25 32-35 0-8-7.09-9.93-10-10z" fill="#9ccc65"/><path d="M88 183.23c13-28 41.42-48.59 59.35-59.93C130.42 136.64 105 157.23 92 183.23z" fill="#aed581"/><path d="M52.78 94.48c-15.86-20.59-27.56-25.56-35.84-24A13.28 13.28 0 0 0 12.63 72c-10.33 6.09 4.27 24.85 8.84 30.63 5.74 7.26 33.36 41.62 51.66 72.55a266.29 266.29 0 0 1 12.71 25H90c0-25.44-12-72.95-37.22-105.7z" fill="#689f38"/><path d="M12.63 72c27 22.6 47.63 53.69 62 85.76 8.12 18.14 12.94 42.49 12.94 42.49H90C80 150.78 51.79 103.78 12.63 72z" fill="#7cb342"/><path d="M83.4 195.11c-11.73-13.17-25.68-25.52-41.89-32.83-7.67-3.46-16.12-6.05-24.51-6.05-7 0-17 1.28-17 9.91 0 5.7 9.56 8.79 14.14 10.58 7.53 2.93 18 4.8 25.86 6.82a189.27 189.27 0 0 1 41.37 16.69l4.56-2.23z" fill="#9ccc65"/><path d="M1.22 161.67C55.94 172 83 199.45 83 199.45l2.53-1.23c-21.75-20.53-56.9-33.99-84.31-36.55z" fill="#aed581"/><path d="M34 158.9c18.43 10.67 27.32 17.1 41.36 41.33H84s-4.75-23.31-19.5-43.17c-7.37-9.92-23.5-29.83-47.5-29.83-2.58 0-4.41.53-5.53 1.5a4.36 4.36 0 0 0-1.47 3.5c0 7 9.25 18.13 24 26.67z" fill="#7cb342"/><path d="M12 128.28c18.31 7 33.58 21.61 46.21 36.81C70 179.23 79 200.23 79 200.23h4.85s-5.39-16.62-23.85-38c-12.34-14.3-29.47-27.61-48-33.95z" fill="#9ccc65"/><path d="M110 183.17c0 3.06-1.91 25.06-23.06 25.06h-5c-9 0-23.95-7-23.95-13 0-8 15.74-23 37.92-23 10.98 0 14.09 7.88 14.09 10.94z" fill="#e5c2a3"/><path d="M21 198.41c.1-3.18 6.09-11.18 32-11.18 10 0 12.17 1.59 19 5 8 4 10 7.85 10 11 0 5-7.71 7-12 7-7.69 0-21-5-41.92-5-5.97 0-7.18-3.64-7.08-6.82z" fill="#edd2b5"/></svg></g><g transform="translate(250.0 522.0) rotate(0 502.0 374.0) scale(5.569176494081363 5.584048136286608)"><svg width="180.278" height="133.953" viewBox="0 0 180.278 133.953"><path d="M155.278 100h-39.8c-5.5 0-10.9.7-16.3 2l-4 1-7 14 4.5 2.7c3.6 2.1 7.7 3.3 11.8 3.3h50.8c18 0 25-11.5 25-11.5s-7-11.5-25-11.5z" fill="#757575"/><g fill="#424242"><path d="M98.878 102.1c-1.6 4.9-4.2 12.5-8.5 16.1l2.5 1.5c3.5 2.1 7.4 3.2 11.5 3.3v-22c-1.7.3-3.3.6-5 1zm43.4-2.1h7v23h-7zm-15 0h7v23h-7zm-15 .1V123h7v-23h-3.8c-1 0-2.1 0-3.2.1zm45 0V123c16.5-.8 23-11.4 23-11.4s-6.5-10.7-23-11.5z"/></g><path d="M39.278 6c-4-3-8-3-8-3l9 13 6-2s-3.6-5.5-7-8zm21.7 5 4 2 9.3-13s-4 0-8 4c-3 3-5.3 7-5.3 7zm35.3 72s-.9-9.1-6-18c-4-7-9-12-11-15-3.4-5.1-6-12-6-12l-36.8 4.8-.8 3s-2.1 4.7-7.5 11.2c-5 6-7.8 10.1-10 19-1 4-1 10-1 10s-7 4-7 16c0 6.9 2 11.1 4.7 15 1.8 2.6 3.4 4.1 3.4 4.1l6.6 6.8c1.2.2 2.3 3.4 3.6-4.8.4-2.2 3.3-4.6 5.6-4.4 1.7.2 6.9 2.6 13 3.3 10 1 14.2.8 18 1l19 1s19-17 19-27c.2-8-2.8-12-6.8-14z" fill="#757575"/><path d="M74.278 59c-1-8 0-18 0-18l-34.1.8s-9.4 17.5-9.4 22.5.5 11.7-3.5 17.7l1 6s7 4.9 8 18c1 13 11 16 11 16s11 1 17 1c9 0 10-7.2 10.1-10.9.1-1.8-.1-4.1-.1-7.1 0-17 10-22 10-22l-1-9s-8-7-9-15z" fill="#9e9e9e"/><path d="M75.278 22c-9.1-4.5-28.8-7.7-45 6-2.6 2.2-5 6-5.9 9h-.1s2 2 4 2c-1 1-2 4-2 4s7 .8 9 2.5l4.8-.1 3.2 4.5s1.1.5 3.1 1.9c3.5 2.4 5.6 3.3 9 3.3 3.9 0 7.3-1.9 9.8-5.2 1.8-2.4 4.5-4.1 4.6-4.2l2.1-5.2 4.4-.6c1.7-1.3 8-2.9 8-2.9s-1-2-2-3c3 0 4-2 4-2s-2.6-5.8-11-10z" fill="#d0d0d0"/><path d="M45.278 29c-8 0-9.7 10.1-10 16.5 1.3 1.6 5.7 3.5 8 4.4 0 0 0-3.9 2-7.9 2.6-5.2 4-6 4-9 0-1.6-1-4-4-4z" fill="#424242"/><path d="M31.278 3c-3 0-3 5-3 6 0 8 3.5 14.6 4 15l11-8s-8-13-12-13zm43-3c-5 0-8.9 12.8-9 13l10 6c.2-1 2-4 2-12 0-6-2.1-7-3-7z" fill="#d0d0d0"/><path d="M54.278 10c-23 0-30 22-30 27 0 0 10-12 21-12 3 0 4.7 2.4 5 5.8.9 11.5 1 16.2 1 16.2l7-1s-1.8-12-2-16c-.2-3.2-1-8 7-8 15 0 23 10 23 10s-6-22-32-22z" fill="#757575"/><path d="M63.278 27c-3 0-5 2-5 5 0 2 0 3 4 6 4.1 3.1 7.5 7.7 7.5 7.7 3.6-2.4 6.5-5.8 6.5-5.8s-4-12.9-13-12.9z" fill="#424242"/><circle cx="44.778" cy="34.5" r="2.5"/><path d="M54.978 44.1c-2.4.2-4.3.9-4.7 2.5-.1.3-.1.5 0 .9.2 2 2.2 3.5 4.6 3.6h.8c2.5-.2 4.4-1.9 4.6-3.8v-.7c-.2-2.3-2.5-2.8-5.3-2.5z"/><circle cx="44.278" cy="34" fill="#fff" r="1"/><circle cx="62.778" cy="32.5" r="2.5"/><circle cx="62.278" cy="32" fill="#fff" r="1"/><path d="M39.578 16.5c-2-3.9-5.3-9.5-7.3-9.5-.4 0-1 0-1 2 0 5 1.5 9.1 2.9 11.7.2-.2 3.8-3 5.4-4.2zM74.278 3c-1.7 0-4 4-6 11l5 3c2-7 2.7-14 1-14z" fill="#757575"/><path d="M62.178 76.6c-.2.3-.5.6-.9.7v.3c0 .7-.6 1.3-1.3 1.3h-.3c-.1.6-.6 1.1-1.3 1.1-.2 0-.5-.1-.7-.2-.2.4-.6.7-1.1.7-.4 0-.8-.2-1-.5-.2.3-.6.5-1 .5-.5 0-.9-.3-1.1-.7-.2.1-.4.2-.7.2-.6 0-1.2-.5-1.3-1.1h-.3c-.7 0-1.3-.6-1.3-1.3v-.3c-.2 0-.4-.1-.5-.2-3.2 2.2-5.3 5.8-5.3 10 0 6.6 5.4 12 12 12s12-5.4 12-12c.2-4.6-2.2-8.4-5.9-10.5z" fill="#ffcc80"/><path d="M75.278 85s-.1-2.1-1.5-3.9-3.9-3.1-3.9-3.1-2.3 3.6-4.4 5.8c-2.7 2.1-5.9 3.9-6 3.9-.7.4-1 1.3-.6 2 .3.5.8.8 1.3.8h.3c-.5.2-.9.5-1.4.6-.8.3-1.1 1.2-.8 1.9.2.5.6.8 1 .9-.1.1-.3.2-.4.3-.7.4-.9 1.3-.5 2.1.3.5.8.7 1.3.7.3 0 .5-.1.8-.2.6-.3 1.2-.7 1.7-1.2 0 .2.1.4.2.7.3.5.8.7 1.3.7.3 0 .5-.1.8-.2 3.1-1.9 5.6-4.9 7.2-7.1 2-2.5 3.6-4.7 3.6-4.7z"/><path d="M74.278 42s-4 6.8-4 14c0 7 1 10.4 1 13 0 6-2.6 10.9-2.6 10.9s2.1-.7 4.6 2.1c1.8 2 2 3 2 3s4.6-3.6 6-5c5-5 4.6-6.5 5.9-9.8 0 0-12.9-26.4-12.9-28.2z" fill="#757575"/><path d="M50.278 92.1c-.1 0-.2-.1-.3-.1.5-.1 1-.4 1.2-1 .3-.8-.2-1.6-.9-1.9-.7-.2-1.7-.7-2.7-1.1h.3c.6 0 1.2-.4 1.4-1 .3-.8-.1-1.6-.9-1.9l-6.5-2.5c-1.6-.6-3.5-3.6-3.5-3.6s-2.8 1.2-4 3.8-1 4.3-1 4.3 2.6 1.2 5.1 3.3c1.4 1.5 3.6 3.7 6.6 5.5.2.1.5.2.8.2.5 0 1-.3 1.3-.7.2-.4.3-.8.2-1.2.6.3 1.3.5 2 .8.2.1.4.1.5.1.6 0 1.2-.4 1.4-1 .2-.8-.2-1.7-1-2z"/><path d="M37.478 47.2s-5.6 8.6-9.2 17.8-2 18-2 18c-.5 4.7 8.9 5 8.9 5s0-1.5.1-2c.6-5.1 4.6-5 4.6-5s-3.6-4.8-3.6-9c0-6 4-9 4-14 0-6-2.8-10.8-2.8-10.8z" fill="#757575"/><path d="M20.178 118.6c-2.7-3.5-3.5-4.4-6.6-8.4-1.3-1.6-3.1-3-3.2-3-.7-.4-1.6-.1-2 .7-.1.2-.2.5-.2.7l-1.6-1.2c-.7-.5-1.6-.4-2.1.3-.3.4-.4.9-.3 1.3l-.6-.5c-.6-.5-1.6-.5-2.1.1s-.5 1.6.1 2.1l.5.5c-.6-.3-1.4 0-1.8.6-.5.7-.3 1.6.4 2.1l.5.3c-.3.1-.5.2-.7.4-.6.6-.5 1.6.1 2.1.1.1 1.4 1.3 3.1 2.6 2.6 2 9.8 6.9 11.4 7.8 5 3 8.8 5 12 5 2 0 4-1 4-4 .2-3.9-6.9-4.3-10.9-9.5zm71.2-13.5c-.6-.3-1.3-.1-1.7.4l.6-1.5c.3-.8-.1-1.6-.9-1.9-.4-.1-.8-.1-1.1 0l.1-.2c.2-.8-.2-1.6-1-1.9-.8-.2-1.6.2-1.9 1l-.1.3c-.1-.6-.5-1.2-1.2-1.3-.8-.2-1.6.3-1.8 1.1l-.3 1.5c-.2-.3-.5-.5-.8-.6-.8-.2-1.6.3-1.8 1.1 0 .1-.2.6-.3 1.3-.8 3.4-1.4 6.9-1.8 10.8-1 9.4-7.5 13.3-5.6 16.6 1.5 2.6 3.8 2.5 5.5 1.5 2.8-1.6 5.1-5.3 8-10.5.9-1.6 3.6-6.5 5-11.1l1.9-4.7c.3-.7-.1-1.6-.8-1.9z"/><circle cx="54.278" cy="95" fill="#8d6e63" r="1"/><circle cx="51.278" cy="83" fill="#8d6e63" r="1"/><circle cx="63.278" cy="82" fill="#8d6e63" r="1"/><circle cx="56.278" cy="87" fill="#8d6e63" r="1"/></svg></g></svg>