<svg enable-background="new 0 0 180.278 133.953" height="134" viewBox="0 0 180.278 133.953" width="181" xmlns="http://www.w3.org/2000/svg"><path d="m155.278 100h-39.8c-5.5 0-10.9.7-16.3 2l-4 1-7 14 4.5 2.7c3.6 2.1 7.7 3.3 11.8 3.3h50.8c18 0 25-11.5 25-11.5s-7-11.5-25-11.5z" fill="#757575"/><g fill="#424242"><path d="m98.878 102.1c-1.6 4.9-4.2 12.5-8.5 16.1l2.5 1.5c3.5 2.1 7.4 3.2 11.5 3.3v-22c-1.7.3-3.3.6-5 1z"/><path d="m142.278 100h7v23h-7z"/><path d="m127.278 100h7v23h-7z"/><path d="m112.278 100.1v22.9h7v-23h-3.8c-1 0-2.1 0-3.2.1z"/><path d="m157.278 100.1v22.9c16.5-.8 23-11.4 23-11.4s-6.5-10.7-23-11.5z"/></g><path d="m39.278 6c-4-3-8-3-8-3l9 13 6-2s-3.6-5.5-7-8z" fill="#757575"/><path d="m60.978 11 4 2 9.3-13s-4 0-8 4c-3 3-5.3 7-5.3 7z" fill="#757575"/><path d="m96.278 83s-.9-9.1-6-18c-4-7-9-12-11-15-3.4-5.1-6-12-6-12l-36.8 4.8-.8 3s-2.1 4.7-7.5 11.2c-5 6-7.8 10.1-10 19-1 4-1 10-1 10s-7 4-7 16c0 6.9 2 11.1 4.7 15 1.8 2.6 3.4 4.1 3.4 4.1l6.6 6.8c1.2.2 2.3 3.4 3.6-4.8.4-2.2 3.3-4.6 5.6-4.4 1.7.2 6.9 2.6 13 3.3 10 1 14.2.8 18 1l19 1s19-17 19-27c.2-8-2.8-12-6.8-14z" fill="#757575"/><path d="m74.278 59c-1-8 0-18 0-18l-34.1.8s-9.4 17.5-9.4 22.5.5 11.7-3.5 17.7l1 6s7 4.9 8 18c1 13 11 16 11 16s11 1 17 1c9 0 10-7.2 10.1-10.9.1-1.8-.1-4.1-.1-7.1 0-17 10-22 10-22l-1-9s-8-7-9-15z" fill="#9e9e9e"/><path d="m75.278 22c-9.1-4.5-28.8-7.7-45 6-2.6 2.2-5 6-5.9 9h-.1s2 2 4 2c-1 1-2 4-2 4s7 .8 9 2.5l4.8-.1 3.2 4.5s1.1.5 3.1 1.9c3.5 2.4 5.6 3.3 9 3.3 3.9 0 7.3-1.9 9.8-5.2 1.8-2.4 4.5-4.1 4.6-4.2l2.1-5.2 4.4-.6c1.7-1.3 8-2.9 8-2.9s-1-2-2-3c3 0 4-2 4-2s-2.6-5.8-11-10z" fill="#d0d0d0"/><path d="m45.278 29c-8 0-9.7 10.1-10 16.5 1.3 1.6 5.7 3.5 8 4.4 0 0 0-3.9 2-7.9 2.6-5.2 4-6 4-9 0-1.6-1-4-4-4z" fill="#424242"/><path d="m31.278 3c-3 0-3 5-3 6 0 8 3.5 14.6 4 15l11-8s-8-13-12-13z" fill="#d0d0d0"/><path d="m74.278 0c-5 0-8.9 12.8-9 13l10 6c.2-1 2-4 2-12 0-6-2.1-7-3-7z" fill="#d0d0d0"/><path d="m54.278 10c-23 0-30 22-30 27 0 0 10-12 21-12 3 0 4.7 2.4 5 5.8.9 11.5 1 16.2 1 16.2l7-1s-1.8-12-2-16c-.2-3.2-1-8 7-8 15 0 23 10 23 10s-6-22-32-22z" fill="#757575"/><path d="m63.278 27c-3 0-5 2-5 5 0 2 0 3 4 6 4.1 3.1 7.5 7.7 7.5 7.7 3.6-2.4 6.5-5.8 6.5-5.8s-4-12.9-13-12.9z" fill="#424242"/><circle cx="44.778" cy="34.5" r="2.5"/><path d="m54.978 44.1c-2.4.2-4.3.9-4.7 2.5-.1.3-.1.5 0 .9.2 2 2.2 3.5 4.6 3.6h.8c2.5-.2 4.4-1.9 4.6-3.8 0-.2 0-.4 0-.7-.2-2.3-2.5-2.8-5.3-2.5z"/><circle cx="44.278" cy="34" fill="#fff" r="1"/><circle cx="62.778" cy="32.5" r="2.5"/><circle cx="62.278" cy="32" fill="#fff" r="1"/><path d="m39.578 16.5c-2-3.9-5.3-9.5-7.3-9.5-.4 0-1 0-1 2 0 5 1.5 9.1 2.9 11.7.2-.2 3.8-3 5.4-4.2z" fill="#757575"/><path d="m74.278 3c-1.7 0-4 4-6 11l5 3c2-7 2.7-14 1-14z" fill="#757575"/><path d="m62.178 76.6c-.2.3-.5.6-.9.7v.3c0 .7-.6 1.3-1.3 1.3-.1 0-.2 0-.3 0-.1.6-.6 1.1-1.3 1.1-.2 0-.5-.1-.7-.2-.2.4-.6.7-1.1.7-.4 0-.8-.2-1-.5-.2.3-.6.5-1 .5-.5 0-.9-.3-1.1-.7-.2.1-.4.2-.7.2-.6 0-1.2-.5-1.3-1.1-.1 0-.2 0-.3 0-.7 0-1.3-.6-1.3-1.3 0-.1 0-.2 0-.3-.2 0-.4-.1-.5-.2-3.2 2.2-5.3 5.8-5.3 10 0 6.6 5.4 12 12 12s12-5.4 12-12c.2-4.6-2.2-8.4-5.9-10.5z" fill="#ffcc80"/><path d="m75.278 85s-.1-2.1-1.5-3.9-3.9-3.1-3.9-3.1-2.3 3.6-4.4 5.8c-2.7 2.1-5.9 3.9-6 3.9-.7.4-1 1.3-.6 2 .3.5.8.8 1.3.8h.3c-.5.2-.9.5-1.4.6-.8.3-1.1 1.2-.8 1.9.2.5.6.8 1 .9-.1.1-.3.2-.4.3-.7.4-.9 1.3-.5 2.1.3.5.8.7 1.3.7.3 0 .5-.1.8-.2.6-.3 1.2-.7 1.7-1.2 0 .2.1.4.2.7.3.5.8.7 1.3.7.3 0 .5-.1.8-.2 3.1-1.9 5.6-4.9 7.2-7.1 2-2.5 3.6-4.7 3.6-4.7z"/><path d="m74.278 42s-4 6.8-4 14c0 7 1 10.4 1 13 0 6-2.6 10.9-2.6 10.9s2.1-.7 4.6 2.1c1.8 2 2 3 2 3s4.6-3.6 6-5c5-5 4.6-6.5 5.9-9.8-0 0-12.9-26.4-12.9-28.2z" fill="#757575"/><path d="m50.278 92.1c-.1 0-.2-.1-.3-.1.5-.1 1-.4 1.2-1 .3-.8-.2-1.6-.9-1.9-.7-.2-1.7-.7-2.7-1.1h.3c.6 0 1.2-.4 1.4-1 .3-.8-.1-1.6-.9-1.9l-6.5-2.5c-1.6-.6-3.5-3.6-3.5-3.6s-2.8 1.2-4 3.8-1 4.3-1 4.3 2.6 1.2 5.1 3.3c1.4 1.5 3.6 3.7 6.6 5.5.2.1.5.2.8.2.5 0 1-.3 1.3-.7.2-.4.3-.8.2-1.2.6.3 1.3.5 2 .8.2.1.4.1.5.1.6 0 1.2-.4 1.4-1 .2-.8-.2-1.7-1-2z"/><path d="m37.478 47.2s-5.6 8.6-9.2 17.8-2 18-2 18c-.5 4.7 8.9 5 8.9 5s0-1.5.1-2c.6-5.1 4.6-5 4.6-5s-3.6-4.8-3.6-9c0-6 4-9 4-14-0-6-2.8-10.8-2.8-10.8z" fill="#757575"/><path d="m20.178 118.6c-2.7-3.5-3.5-4.4-6.6-8.4-1.3-1.6-3.1-3-3.2-3-.7-.4-1.6-.1-2 .7-.1.2-.2.5-.2.7l-1.6-1.2c-.7-.5-1.6-.4-2.1.3-.3.4-.4.9-.3 1.3l-.6-.5c-.6-.5-1.6-.5-2.1.1s-.5 1.6.1 2.1l.5.5c-.6-.3-1.4 0-1.8.6-.5.7-.3 1.6.4 2.1l.5.3c-.3.1-.5.2-.7.4-.6.6-.5 1.6.1 2.1.1.1 1.4 1.3 3.1 2.6 2.6 2 9.8 6.9 11.4 7.8 5 3 8.8 5 12 5 2 0 4-1 4-4 .2-3.9-6.9-4.3-10.9-9.5z"/><path d="m91.378 105.1c-.6-.3-1.3-.1-1.7.4l.6-1.5c.3-.8-.1-1.6-.9-1.9-.4-.1-.8-.1-1.1 0l.1-.2c.2-.8-.2-1.6-1-1.9-.8-.2-1.6.2-1.9 1l-.1.3c-.1-.6-.5-1.2-1.2-1.3-.8-.2-1.6.3-1.8 1.1l-.3 1.5c-.2-.3-.5-.5-.8-.6-.8-.2-1.6.3-1.8 1.1 0 .1-.2.6-.3 1.3-.8 3.4-1.4 6.9-1.8 10.8-1 9.4-7.5 13.3-5.6 16.6 1.5 2.6 3.8 2.5 5.5 1.5 2.8-1.6 5.1-5.3 8-10.5.9-1.6 3.6-6.5 5-11.1l1.9-4.7c.3-.7-.1-1.6-.8-1.9z"/><circle cx="54.278" cy="95" fill="#8d6e63" r="1"/><circle cx="51.278" cy="83" fill="#8d6e63" r="1"/><circle cx="63.278" cy="82" fill="#8d6e63" r="1"/><circle cx="56.278" cy="87" fill="#8d6e63" r="1"/></svg>