<svg data-name="Layer 1" xmlns="http://www.w3.org/2000/svg" xmlns:xlink="http://www.w3.org/1999/xlink" width="800" height="600" viewBox="0 0 800 600"><defs><linearGradient id="a" x1="789.5" y1="1017.08" x2="789.5" y2="465.09" gradientTransform="matrix(1, 0, 0, -1, 0, 1150)" gradientUnits="userSpaceOnUse"><stop offset="0" stop-color="#eee"/><stop offset=".01" stop-color="#ededed"/><stop offset=".39" stop-color="#d3d3d3"/><stop offset=".74" stop-color="#c3c3c3"/><stop offset="1" stop-color="#bdbdbd"/></linearGradient><linearGradient id="c" x1="752" y1="1017.08" x2="752" y2="465.09" xlink:href="#a"/><linearGradient id="d" x1="776.5" y1="1017.08" x2="776.5" y2="465.09" xlink:href="#a"/><linearGradient id="e" x1="698" y1="1017.08" x2="698" y2="465.09" xlink:href="#a"/><linearGradient id="f" x1="725" y1="1017.08" x2="725" y2="465.09" xlink:href="#a"/><linearGradient id="g" x1="644" y1="1017.08" x2="644" y2="465.09" xlink:href="#a"/><linearGradient id="h" x1="671" y1="1017.08" x2="671" y2="465.09" xlink:href="#a"/><linearGradient id="i" x1="590" y1="1017.08" x2="590" y2="465.09" xlink:href="#a"/><linearGradient id="j" x1="617" y1="1017.08" x2="617" y2="465.09" xlink:href="#a"/><linearGradient id="k" x1="536" y1="1017.08" x2="536" y2="465.09" xlink:href="#a"/><linearGradient id="l" x1="563" y1="1017.08" x2="563" y2="465.09" xlink:href="#a"/><linearGradient id="m" x1="482" y1="1017.08" x2="482" y2="465.09" xlink:href="#a"/><linearGradient id="n" x1="509" y1="1017.08" x2="509" y2="465.09" xlink:href="#a"/><linearGradient id="o" x1="428" y1="1017.08" x2="428" y2="465.09" xlink:href="#a"/><linearGradient id="p" x1="455" y1="1017.08" x2="455" y2="465.09" xlink:href="#a"/><linearGradient id="q" x1="374" y1="1017.08" x2="374" y2="465.09" xlink:href="#a"/><linearGradient id="r" x1="401" y1="1017.08" x2="401" y2="465.09" xlink:href="#a"/><linearGradient id="s" x1="320" y1="1017.08" x2="320" y2="465.09" xlink:href="#a"/><linearGradient id="t" x1="347" y1="1017.08" x2="347" y2="465.09" xlink:href="#a"/><linearGradient id="u" x1="266" y1="1017.08" x2="266" y2="465.09" xlink:href="#a"/><linearGradient id="v" x1="293" y1="1017.08" x2="293" y2="465.09" xlink:href="#a"/><linearGradient id="w" x1="212" y1="1017.08" x2="212" y2="465.09" xlink:href="#a"/><linearGradient id="x" x1="239" y1="1017.08" x2="239" y2="465.09" xlink:href="#a"/><linearGradient id="y" x1="158" y1="1017.08" x2="158" y2="465.09" xlink:href="#a"/><linearGradient id="z" x1="185" y1="1017.08" x2="185" y2="465.09" xlink:href="#a"/><linearGradient id="A" x1="104" y1="1017.08" x2="104" y2="465.09" xlink:href="#a"/><linearGradient id="B" x1="131" y1="1017.08" x2="131" y2="465.09" xlink:href="#a"/><linearGradient id="C" x1="50" y1="1017.08" x2="50" y2="465.09" xlink:href="#a"/><linearGradient id="D" x1="77" y1="1017.08" x2="77" y2="465.09" xlink:href="#a"/><linearGradient id="E" x1="11" y1="1017.08" x2="11" y2="465.09" xlink:href="#a"/><linearGradient id="F" x1="24.5" y1="1017.08" x2="24.5" y2="465.09" xlink:href="#a"/><linearGradient id="b" x1="594.5" y1="477" x2="594.5" y2="497" gradientUnits="userSpaceOnUse"><stop offset="0" stop-color="#e0e0e0"/><stop offset="1" stop-color="#fff"/></linearGradient><linearGradient id="H" x1="321.8" y1="682" x2="321.8" y2="662" gradientTransform="matrix(1, 0, 0, -1, 0, 1150)" xlink:href="#b"/><radialGradient id="G" cx="398.25" cy="471.56" r="333.46" gradientTransform="translate(0 -96.54) scale(1 1.13)" gradientUnits="userSpaceOnUse"><stop offset="0" stop-color="#fff" stop-opacity="0"/><stop offset=".09" stop-color="#fff" stop-opacity=".02"/><stop offset=".22" stop-color="#fff" stop-opacity=".09"/><stop offset=".36" stop-color="#fff" stop-opacity=".2"/><stop offset=".52" stop-color="#fff" stop-opacity=".35"/><stop offset=".69" stop-color="#fff" stop-opacity=".55"/><stop offset=".86" stop-color="#fff" stop-opacity=".79"/><stop offset="1" stop-color="#fff"/></radialGradient></defs><path fill="#fff" d="M0 0h800v600H0z"/><path d="M798 423h-17a.94.94 0 0 0-1 1v12a.94.94 0 0 0 1 1h17a.94.94 0 0 0 1-1v-12a.94.94 0 0 0-1-1Z" fill="url(#a)"/><path d="M777 423h-50a.94.94 0 0 0-1 1v12a.94.94 0 0 0 1 1h50a.94.94 0 0 0 1-1v-12a.94.94 0 0 0-1-1Z" fill="url(#c)"/><path d="M799 407h-45a.94.94 0 0 0-1 1v12a.94.94 0 0 0 1 1h45a.94.94 0 0 0 1-1v-12a.94.94 0 0 0-1-1Z" fill="url(#d)"/><path d="M723 423h-50a.94.94 0 0 0-1 1v12a.94.94 0 0 0 1 1h50a.94.94 0 0 0 1-1v-12a.94.94 0 0 0-1-1Z" fill="url(#e)"/><path d="M750 407h-50a.94.94 0 0 0-1 1v12a.94.94 0 0 0 1 1h50a.94.94 0 0 0 1-1v-12a.94.94 0 0 0-1-1Z" fill="url(#f)"/><path d="M669 423h-50a.94.94 0 0 0-1 1v12a.94.94 0 0 0 1 1h50a.94.94 0 0 0 1-1v-12a.94.94 0 0 0-1-1Z" fill="url(#g)"/><path d="M696 407h-50a.94.94 0 0 0-1 1v12a.94.94 0 0 0 1 1h50a.94.94 0 0 0 1-1v-12a.94.94 0 0 0-1-1Z" fill="url(#h)"/><path d="M615 423h-50a.94.94 0 0 0-1 1v12a.94.94 0 0 0 1 1h50a.94.94 0 0 0 1-1v-12a.94.94 0 0 0-1-1Z" fill="url(#i)"/><path d="M642 407h-50a.94.94 0 0 0-1 1v12a.94.94 0 0 0 1 1h50a.94.94 0 0 0 1-1v-12a.94.94 0 0 0-1-1Z" fill="url(#j)"/><path d="M561 423h-50a.94.94 0 0 0-1 1v12a.94.94 0 0 0 1 1h50a.94.94 0 0 0 1-1v-12a.94.94 0 0 0-1-1Z" fill="url(#k)"/><path d="M588 407h-50a.94.94 0 0 0-1 1v12a.94.94 0 0 0 1 1h50a.94.94 0 0 0 1-1v-12a.94.94 0 0 0-1-1Z" fill="url(#l)"/><path d="M507 423h-50a.94.94 0 0 0-1 1v12a.94.94 0 0 0 1 1h50a.94.94 0 0 0 1-1v-12a.94.94 0 0 0-1-1Z" fill="url(#m)"/><path d="M534 407h-50a.94.94 0 0 0-1 1v12a.94.94 0 0 0 1 1h50a.94.94 0 0 0 1-1v-12a.94.94 0 0 0-1-1Z" fill="url(#n)"/><path d="M453 423h-50a.94.94 0 0 0-1 1v12a.94.94 0 0 0 1 1h50a.94.94 0 0 0 1-1v-12a.94.94 0 0 0-1-1Z" fill="url(#o)"/><path d="M480 407h-50a.94.94 0 0 0-1 1v12a.94.94 0 0 0 1 1h50a.94.94 0 0 0 1-1v-12a.94.94 0 0 0-1-1Z" fill="url(#p)"/><path d="M399 423h-50a.94.94 0 0 0-1 1v12a.94.94 0 0 0 1 1h50a.94.94 0 0 0 1-1v-12a.94.94 0 0 0-1-1Z" fill="url(#q)"/><path d="M426 407h-50a.94.94 0 0 0-1 1v12a.94.94 0 0 0 1 1h50a.94.94 0 0 0 1-1v-12a.94.94 0 0 0-1-1Z" fill="url(#r)"/><path d="M345 423h-50a.94.94 0 0 0-1 1v12a.94.94 0 0 0 1 1h50a.94.94 0 0 0 1-1v-12a.94.94 0 0 0-1-1Z" fill="url(#s)"/><path d="M372 407h-50a.94.94 0 0 0-1 1v12a.94.94 0 0 0 1 1h50a.94.94 0 0 0 1-1v-12a.94.94 0 0 0-1-1Z" fill="url(#t)"/><path d="M291 423h-50a.94.94 0 0 0-1 1v12a.94.94 0 0 0 1 1h50a.94.94 0 0 0 1-1v-12a.94.94 0 0 0-1-1Z" fill="url(#u)"/><path d="M318 407h-50a.94.94 0 0 0-1 1v12a.94.94 0 0 0 1 1h50a.94.94 0 0 0 1-1v-12a.94.94 0 0 0-1-1Z" fill="url(#v)"/><path d="M237 423h-50a.94.94 0 0 0-1 1v12a.94.94 0 0 0 1 1h50a.94.94 0 0 0 1-1v-12a.94.94 0 0 0-1-1Z" fill="url(#w)"/><path d="M264 407h-50a.94.94 0 0 0-1 1v12a.94.94 0 0 0 1 1h50a.94.94 0 0 0 1-1v-12a.94.94 0 0 0-1-1Z" fill="url(#x)"/><path d="M183 423h-50a.94.94 0 0 0-1 1v12a.94.94 0 0 0 1 1h50a.94.94 0 0 0 1-1v-12a.94.94 0 0 0-1-1Z" fill="url(#y)"/><path d="M210 407h-50a.94.94 0 0 0-1 1v12a.94.94 0 0 0 1 1h50a.94.94 0 0 0 1-1v-12a.94.94 0 0 0-1-1Z" fill="url(#z)"/><path d="M129 423H79a.94.94 0 0 0-1 1v12a.94.94 0 0 0 1 1h50a.94.94 0 0 0 1-1v-12a.94.94 0 0 0-1-1Z" fill="url(#A)"/><path d="M156 407h-50a.94.94 0 0 0-1 1v12a.94.94 0 0 0 1 1h50a.94.94 0 0 0 1-1v-12a.94.94 0 0 0-1-1Z" fill="url(#B)"/><path d="M75 423H25a.94.94 0 0 0-1 1v12a.94.94 0 0 0 1 1h50a.94.94 0 0 0 1-1v-12a.94.94 0 0 0-1-1Z" fill="url(#C)"/><path d="M102 407H52a.94.94 0 0 0-1 1v12a.94.94 0 0 0 1 1h50a.94.94 0 0 0 1-1v-12a.94.94 0 0 0-1-1Z" fill="url(#D)"/><path d="M21 423H1a.94.94 0 0 0-1 1v12a.94.94 0 0 0 1 1h20a.94.94 0 0 0 1-1v-12a.94.94 0 0 0-1-1Z" fill="url(#E)"/><path d="M48 407H1a.94.94 0 0 0-1 1v12a.94.94 0 0 0 1 1h47a.94.94 0 0 0 1-1v-12a.94.94 0 0 0-1-1Z" fill="url(#F)"/><path d="M798 391h-17a.94.94 0 0 0-1 1v12a.94.94 0 0 0 1 1h17a.94.94 0 0 0 1-1v-12a.94.94 0 0 0-1-1Z" fill="url(#a)"/><path d="M777 391h-50a.94.94 0 0 0-1 1v12a.94.94 0 0 0 1 1h50a.94.94 0 0 0 1-1v-12a.94.94 0 0 0-1-1Z" fill="url(#c)"/><path d="M799 375h-45a.94.94 0 0 0-1 1v12a.94.94 0 0 0 1 1h45a.94.94 0 0 0 1-1v-12a.94.94 0 0 0-1-1Z" fill="url(#d)"/><path d="M723 391h-50a.94.94 0 0 0-1 1v12a.94.94 0 0 0 1 1h50a.94.94 0 0 0 1-1v-12a.94.94 0 0 0-1-1Z" fill="url(#e)"/><path d="M750 375h-50a.94.94 0 0 0-1 1v12a.94.94 0 0 0 1 1h50a.94.94 0 0 0 1-1v-12a.94.94 0 0 0-1-1Z" fill="url(#f)"/><path d="M669 391h-50a.94.94 0 0 0-1 1v12a.94.94 0 0 0 1 1h50a.94.94 0 0 0 1-1v-12a.94.94 0 0 0-1-1Z" fill="url(#g)"/><path d="M696 375h-50a.94.94 0 0 0-1 1v12a.94.94 0 0 0 1 1h50a.94.94 0 0 0 1-1v-12a.94.94 0 0 0-1-1Z" fill="url(#h)"/><path d="M615 391h-50a.94.94 0 0 0-1 1v12a.94.94 0 0 0 1 1h50a.94.94 0 0 0 1-1v-12a.94.94 0 0 0-1-1Z" fill="url(#i)"/><path d="M642 375h-50a.94.94 0 0 0-1 1v12a.94.94 0 0 0 1 1h50a.94.94 0 0 0 1-1v-12a.94.94 0 0 0-1-1Z" fill="url(#j)"/><path d="M561 391h-50a.94.94 0 0 0-1 1v12a.94.94 0 0 0 1 1h50a.94.94 0 0 0 1-1v-12a.94.94 0 0 0-1-1Z" fill="url(#k)"/><path d="M588 375h-50a.94.94 0 0 0-1 1v12a.94.94 0 0 0 1 1h50a.94.94 0 0 0 1-1v-12a.94.94 0 0 0-1-1Z" fill="url(#l)"/><path d="M507 391h-50a.94.94 0 0 0-1 1v12a.94.94 0 0 0 1 1h50a.94.94 0 0 0 1-1v-12a.94.94 0 0 0-1-1Z" fill="url(#m)"/><path d="M534 375h-50a.94.94 0 0 0-1 1v12a.94.94 0 0 0 1 1h50a.94.94 0 0 0 1-1v-12a.94.94 0 0 0-1-1Z" fill="url(#n)"/><path d="M453 391h-50a.94.94 0 0 0-1 1v12a.94.94 0 0 0 1 1h50a.94.94 0 0 0 1-1v-12a.94.94 0 0 0-1-1Z" fill="url(#o)"/><path d="M480 375h-50a.94.94 0 0 0-1 1v12a.94.94 0 0 0 1 1h50a.94.94 0 0 0 1-1v-12a.94.94 0 0 0-1-1Z" fill="url(#p)"/><path d="M399 391h-50a.94.94 0 0 0-1 1v12a.94.94 0 0 0 1 1h50a.94.94 0 0 0 1-1v-12a.94.94 0 0 0-1-1Z" fill="url(#q)"/><path d="M426 375h-50a.94.94 0 0 0-1 1v12a.94.94 0 0 0 1 1h50a.94.94 0 0 0 1-1v-12a.94.94 0 0 0-1-1Z" fill="url(#r)"/><path d="M345 391h-50a.94.94 0 0 0-1 1v12a.94.94 0 0 0 1 1h50a.94.94 0 0 0 1-1v-12a.94.94 0 0 0-1-1Z" fill="url(#s)"/><path d="M372 375h-50a.94.94 0 0 0-1 1v12a.94.94 0 0 0 1 1h50a.94.94 0 0 0 1-1v-12a.94.94 0 0 0-1-1Z" fill="url(#t)"/><path d="M291 391h-50a.94.94 0 0 0-1 1v12a.94.94 0 0 0 1 1h50a.94.94 0 0 0 1-1v-12a.94.94 0 0 0-1-1Z" fill="url(#u)"/><path d="M318 375h-50a.94.94 0 0 0-1 1v12a.94.94 0 0 0 1 1h50a.94.94 0 0 0 1-1v-12a.94.94 0 0 0-1-1Z" fill="url(#v)"/><path d="M237 391h-50a.94.94 0 0 0-1 1v12a.94.94 0 0 0 1 1h50a.94.94 0 0 0 1-1v-12a.94.94 0 0 0-1-1Z" fill="url(#w)"/><path d="M264 375h-50a.94.94 0 0 0-1 1v12a.94.94 0 0 0 1 1h50a.94.94 0 0 0 1-1v-12a.94.94 0 0 0-1-1Z" fill="url(#x)"/><path d="M183 391h-50a.94.94 0 0 0-1 1v12a.94.94 0 0 0 1 1h50a.94.94 0 0 0 1-1v-12a.94.94 0 0 0-1-1Z" fill="url(#y)"/><path d="M210 375h-50a.94.94 0 0 0-1 1v12a.94.94 0 0 0 1 1h50a.94.94 0 0 0 1-1v-12a.94.94 0 0 0-1-1Z" fill="url(#z)"/><path d="M129 391H79a.94.94 0 0 0-1 1v12a.94.94 0 0 0 1 1h50a.94.94 0 0 0 1-1v-12a.94.94 0 0 0-1-1Z" fill="url(#A)"/><path d="M156 375h-50a.94.94 0 0 0-1 1v12a.94.94 0 0 0 1 1h50a.94.94 0 0 0 1-1v-12a.94.94 0 0 0-1-1Z" fill="url(#B)"/><path d="M75 391H25a.94.94 0 0 0-1 1v12a.94.94 0 0 0 1 1h50a.94.94 0 0 0 1-1v-12a.94.94 0 0 0-1-1Z" fill="url(#C)"/><path d="M102 375H52a.94.94 0 0 0-1 1v12a.94.94 0 0 0 1 1h50a.94.94 0 0 0 1-1v-12a.94.94 0 0 0-1-1Z" fill="url(#D)"/><path d="M21 391H1a.94.94 0 0 0-1 1v12a.94.94 0 0 0 1 1h20a.94.94 0 0 0 1-1v-12a.94.94 0 0 0-1-1Z" fill="url(#E)"/><path d="M48 375H1a.94.94 0 0 0-1 1v12a.94.94 0 0 0 1 1h47a.94.94 0 0 0 1-1v-12a.94.94 0 0 0-1-1Z" fill="url(#F)"/><path d="M798 359h-17a.94.94 0 0 0-1 1v12a.94.94 0 0 0 1 1h17a.94.94 0 0 0 1-1v-12a.94.94 0 0 0-1-1Z" fill="url(#a)"/><path d="M777 359h-50a.94.94 0 0 0-1 1v12a.94.94 0 0 0 1 1h50a.94.94 0 0 0 1-1v-12a.94.94 0 0 0-1-1Z" fill="url(#c)"/><path d="M799 343h-45a.94.94 0 0 0-1 1v12a.94.94 0 0 0 1 1h45a.94.94 0 0 0 1-1v-12a.94.94 0 0 0-1-1Z" fill="url(#d)"/><path d="M723 359h-50a.94.94 0 0 0-1 1v12a.94.94 0 0 0 1 1h50a.94.94 0 0 0 1-1v-12a.94.94 0 0 0-1-1Z" fill="url(#e)"/><path d="M750 343h-50a.94.94 0 0 0-1 1v12a.94.94 0 0 0 1 1h50a.94.94 0 0 0 1-1v-12a.94.94 0 0 0-1-1Z" fill="url(#f)"/><path d="M669 359h-50a.94.94 0 0 0-1 1v12a.94.94 0 0 0 1 1h50a.94.94 0 0 0 1-1v-12a.94.94 0 0 0-1-1Z" fill="url(#g)"/><path d="M696 343h-50a.94.94 0 0 0-1 1v12a.94.94 0 0 0 1 1h50a.94.94 0 0 0 1-1v-12a.94.94 0 0 0-1-1Z" fill="url(#h)"/><path d="M615 359h-50a.94.94 0 0 0-1 1v12a.94.94 0 0 0 1 1h50a.94.94 0 0 0 1-1v-12a.94.94 0 0 0-1-1Z" fill="url(#i)"/><path d="M642 343h-50a.94.94 0 0 0-1 1v12a.94.94 0 0 0 1 1h50a.94.94 0 0 0 1-1v-12a.94.94 0 0 0-1-1Z" fill="url(#j)"/><path d="M561 359h-50a.94.94 0 0 0-1 1v12a.94.94 0 0 0 1 1h50a.94.94 0 0 0 1-1v-12a.94.94 0 0 0-1-1Z" fill="url(#k)"/><path d="M588 343h-50a.94.94 0 0 0-1 1v12a.94.94 0 0 0 1 1h50a.94.94 0 0 0 1-1v-12a.94.94 0 0 0-1-1Z" fill="url(#l)"/><path d="M507 359h-50a.94.94 0 0 0-1 1v12a.94.94 0 0 0 1 1h50a.94.94 0 0 0 1-1v-12a.94.94 0 0 0-1-1Z" fill="url(#m)"/><path d="M534 343h-50a.94.94 0 0 0-1 1v12a.94.94 0 0 0 1 1h50a.94.94 0 0 0 1-1v-12a.94.94 0 0 0-1-1Z" fill="url(#n)"/><path d="M453 359h-50a.94.94 0 0 0-1 1v12a.94.94 0 0 0 1 1h50a.94.94 0 0 0 1-1v-12a.94.94 0 0 0-1-1Z" fill="url(#o)"/><path d="M480 343h-50a.94.94 0 0 0-1 1v12a.94.94 0 0 0 1 1h50a.94.94 0 0 0 1-1v-12a.94.94 0 0 0-1-1Z" fill="url(#p)"/><path d="M399 359h-50a.94.94 0 0 0-1 1v12a.94.94 0 0 0 1 1h50a.94.94 0 0 0 1-1v-12a.94.94 0 0 0-1-1Z" fill="url(#q)"/><path d="M426 343h-50a.94.94 0 0 0-1 1v12a.94.94 0 0 0 1 1h50a.94.94 0 0 0 1-1v-12a.94.94 0 0 0-1-1Z" fill="url(#r)"/><path d="M345 359h-50a.94.94 0 0 0-1 1v12a.94.94 0 0 0 1 1h50a.94.94 0 0 0 1-1v-12a.94.94 0 0 0-1-1Z" fill="url(#s)"/><path d="M372 343h-50a.94.94 0 0 0-1 1v12a.94.94 0 0 0 1 1h50a.94.94 0 0 0 1-1v-12a.94.94 0 0 0-1-1Z" fill="url(#t)"/><path d="M291 359h-50a.94.94 0 0 0-1 1v12a.94.94 0 0 0 1 1h50a.94.94 0 0 0 1-1v-12a.94.94 0 0 0-1-1Z" fill="url(#u)"/><path d="M318 343h-50a.94.94 0 0 0-1 1v12a.94.94 0 0 0 1 1h50a.94.94 0 0 0 1-1v-12a.94.94 0 0 0-1-1Z" fill="url(#v)"/><path d="M237 359h-50a.94.94 0 0 0-1 1v12a.94.94 0 0 0 1 1h50a.94.94 0 0 0 1-1v-12a.94.94 0 0 0-1-1Z" fill="url(#w)"/><path d="M264 343h-50a.94.94 0 0 0-1 1v12a.94.94 0 0 0 1 1h50a.94.94 0 0 0 1-1v-12a.94.94 0 0 0-1-1Z" fill="url(#x)"/><path d="M183 359h-50a.94.94 0 0 0-1 1v12a.94.94 0 0 0 1 1h50a.94.94 0 0 0 1-1v-12a.94.94 0 0 0-1-1Z" fill="url(#y)"/><path d="M210 343h-50a.94.94 0 0 0-1 1v12a.94.94 0 0 0 1 1h50a.94.94 0 0 0 1-1v-12a.94.94 0 0 0-1-1Z" fill="url(#z)"/><path d="M129 359H79a.94.94 0 0 0-1 1v12a.94.94 0 0 0 1 1h50a.94.94 0 0 0 1-1v-12a.94.94 0 0 0-1-1Z" fill="url(#A)"/><path d="M156 343h-50a.94.94 0 0 0-1 1v12a.94.94 0 0 0 1 1h50a.94.94 0 0 0 1-1v-12a.94.94 0 0 0-1-1Z" fill="url(#B)"/><path d="M75 359H25a.94.94 0 0 0-1 1v12a.94.94 0 0 0 1 1h50a.94.94 0 0 0 1-1v-12a.94.94 0 0 0-1-1Z" fill="url(#C)"/><path d="M102 343H52a.94.94 0 0 0-1 1v12a.94.94 0 0 0 1 1h50a.94.94 0 0 0 1-1v-12a.94.94 0 0 0-1-1Z" fill="url(#D)"/><path d="M21 359H1a.94.94 0 0 0-1 1v12a.94.94 0 0 0 1 1h20a.94.94 0 0 0 1-1v-12a.94.94 0 0 0-1-1Z" fill="url(#E)"/><path d="M48 343H1a.94.94 0 0 0-1 1v12a.94.94 0 0 0 1 1h47a.94.94 0 0 0 1-1v-12a.94.94 0 0 0-1-1Z" fill="url(#F)"/><path d="M798 327h-17a.94.94 0 0 0-1 1v12a.94.94 0 0 0 1 1h17a.94.94 0 0 0 1-1v-12a.94.94 0 0 0-1-1Z" fill="url(#a)"/><path d="M777 327h-50a.94.94 0 0 0-1 1v12a.94.94 0 0 0 1 1h50a.94.94 0 0 0 1-1v-12a.94.94 0 0 0-1-1Z" fill="url(#c)"/><path d="M799 311h-45a.94.94 0 0 0-1 1v12a.94.94 0 0 0 1 1h45a.94.94 0 0 0 1-1v-12a.94.94 0 0 0-1-1Z" fill="url(#d)"/><path d="M723 327h-50a.94.94 0 0 0-1 1v12a.94.94 0 0 0 1 1h50a.94.94 0 0 0 1-1v-12a.94.94 0 0 0-1-1Z" fill="url(#e)"/><path d="M750 311h-50a.94.94 0 0 0-1 1v12a.94.94 0 0 0 1 1h50a.94.94 0 0 0 1-1v-12a.94.94 0 0 0-1-1Z" fill="url(#f)"/><path d="M669 327h-50a.94.94 0 0 0-1 1v12a.94.94 0 0 0 1 1h50a.94.94 0 0 0 1-1v-12a.94.94 0 0 0-1-1Z" fill="url(#g)"/><path d="M696 311h-50a.94.94 0 0 0-1 1v12a.94.94 0 0 0 1 1h50a.94.94 0 0 0 1-1v-12a.94.94 0 0 0-1-1Z" fill="url(#h)"/><path d="M615 327h-50a.94.94 0 0 0-1 1v12a.94.94 0 0 0 1 1h50a.94.94 0 0 0 1-1v-12a.94.94 0 0 0-1-1Z" fill="url(#i)"/><path d="M642 311h-50a.94.94 0 0 0-1 1v12a.94.94 0 0 0 1 1h50a.94.94 0 0 0 1-1v-12a.94.94 0 0 0-1-1Z" fill="url(#j)"/><path d="M561 327h-50a.94.94 0 0 0-1 1v12a.94.94 0 0 0 1 1h50a.94.94 0 0 0 1-1v-12a.94.94 0 0 0-1-1Z" fill="url(#k)"/><path d="M588 311h-50a.94.94 0 0 0-1 1v12a.94.94 0 0 0 1 1h50a.94.94 0 0 0 1-1v-12a.94.94 0 0 0-1-1Z" fill="url(#l)"/><path d="M507 327h-50a.94.94 0 0 0-1 1v12a.94.94 0 0 0 1 1h50a.94.94 0 0 0 1-1v-12a.94.94 0 0 0-1-1Z" fill="url(#m)"/><path d="M534 311h-50a.94.94 0 0 0-1 1v12a.94.94 0 0 0 1 1h50a.94.94 0 0 0 1-1v-12a.94.94 0 0 0-1-1Z" fill="url(#n)"/><path d="M453 327h-50a.94.94 0 0 0-1 1v12a.94.94 0 0 0 1 1h50a.94.94 0 0 0 1-1v-12a.94.94 0 0 0-1-1Z" fill="url(#o)"/><path d="M480 311h-50a.94.94 0 0 0-1 1v12a.94.94 0 0 0 1 1h50a.94.94 0 0 0 1-1v-12a.94.94 0 0 0-1-1Z" fill="url(#p)"/><path d="M399 327h-50a.94.94 0 0 0-1 1v12a.94.94 0 0 0 1 1h50a.94.94 0 0 0 1-1v-12a.94.94 0 0 0-1-1Z" fill="url(#q)"/><path d="M426 311h-50a.94.94 0 0 0-1 1v12a.94.94 0 0 0 1 1h50a.94.94 0 0 0 1-1v-12a.94.94 0 0 0-1-1Z" fill="url(#r)"/><path d="M345 327h-50a.94.94 0 0 0-1 1v12a.94.94 0 0 0 1 1h50a.94.94 0 0 0 1-1v-12a.94.94 0 0 0-1-1Z" fill="url(#s)"/><path d="M372 311h-50a.94.94 0 0 0-1 1v12a.94.94 0 0 0 1 1h50a.94.94 0 0 0 1-1v-12a.94.94 0 0 0-1-1Z" fill="url(#t)"/><path d="M291 327h-50a.94.94 0 0 0-1 1v12a.94.94 0 0 0 1 1h50a.94.94 0 0 0 1-1v-12a.94.94 0 0 0-1-1Z" fill="url(#u)"/><path d="M318 311h-50a.94.94 0 0 0-1 1v12a.94.94 0 0 0 1 1h50a.94.94 0 0 0 1-1v-12a.94.94 0 0 0-1-1Z" fill="url(#v)"/><path d="M237 327h-50a.94.94 0 0 0-1 1v12a.94.94 0 0 0 1 1h50a.94.94 0 0 0 1-1v-12a.94.94 0 0 0-1-1Z" fill="url(#w)"/><path d="M264 311h-50a.94.94 0 0 0-1 1v12a.94.94 0 0 0 1 1h50a.94.94 0 0 0 1-1v-12a.94.94 0 0 0-1-1Z" fill="url(#x)"/><path d="M183 327h-50a.94.94 0 0 0-1 1v12a.94.94 0 0 0 1 1h50a.94.94 0 0 0 1-1v-12a.94.94 0 0 0-1-1Z" fill="url(#y)"/><path d="M210 311h-50a.94.94 0 0 0-1 1v12a.94.94 0 0 0 1 1h50a.94.94 0 0 0 1-1v-12a.94.94 0 0 0-1-1Z" fill="url(#z)"/><path d="M129 327H79a.94.94 0 0 0-1 1v12a.94.94 0 0 0 1 1h50a.94.94 0 0 0 1-1v-12a.94.94 0 0 0-1-1Z" fill="url(#A)"/><path d="M156 311h-50a.94.94 0 0 0-1 1v12a.94.94 0 0 0 1 1h50a.94.94 0 0 0 1-1v-12a.94.94 0 0 0-1-1Z" fill="url(#B)"/><path d="M75 327H25a.94.94 0 0 0-1 1v12a.94.94 0 0 0 1 1h50a.94.94 0 0 0 1-1v-12a.94.94 0 0 0-1-1Z" fill="url(#C)"/><path d="M102 311H52a.94.94 0 0 0-1 1v12a.94.94 0 0 0 1 1h50a.94.94 0 0 0 1-1v-12a.94.94 0 0 0-1-1Z" fill="url(#D)"/><path d="M21 327H1a.94.94 0 0 0-1 1v12a.94.94 0 0 0 1 1h20a.94.94 0 0 0 1-1v-12a.94.94 0 0 0-1-1Z" fill="url(#E)"/><path d="M48 311H1a.94.94 0 0 0-1 1v12a.94.94 0 0 0 1 1h47a.94.94 0 0 0 1-1v-12a.94.94 0 0 0-1-1Z" fill="url(#F)"/><path d="M798 295h-17a.94.94 0 0 0-1 1v12a.94.94 0 0 0 1 1h17a.94.94 0 0 0 1-1v-12a.94.94 0 0 0-1-1Z" fill="url(#a)"/><path d="M777 295h-50a.94.94 0 0 0-1 1v12a.94.94 0 0 0 1 1h50a.94.94 0 0 0 1-1v-12a.94.94 0 0 0-1-1Z" fill="url(#c)"/><path d="M799 279h-45a.94.94 0 0 0-1 1v12a.94.94 0 0 0 1 1h45a.94.94 0 0 0 1-1v-12a.94.94 0 0 0-1-1Z" fill="url(#d)"/><path d="M723 295h-50a.94.94 0 0 0-1 1v12a.94.94 0 0 0 1 1h50a.94.94 0 0 0 1-1v-12a.94.94 0 0 0-1-1Z" fill="url(#e)"/><path d="M750 279h-50a.94.94 0 0 0-1 1v12a.94.94 0 0 0 1 1h50a.94.94 0 0 0 1-1v-12a.94.94 0 0 0-1-1Z" fill="url(#f)"/><path d="M669 295h-50a.94.94 0 0 0-1 1v12a.94.94 0 0 0 1 1h50a.94.94 0 0 0 1-1v-12a.94.94 0 0 0-1-1Z" fill="url(#g)"/><path d="M696 279h-50a.94.94 0 0 0-1 1v12a.94.94 0 0 0 1 1h50a.94.94 0 0 0 1-1v-12a.94.94 0 0 0-1-1Z" fill="url(#h)"/><path d="M615 295h-50a.94.94 0 0 0-1 1v12a.94.94 0 0 0 1 1h50a.94.94 0 0 0 1-1v-12a.94.94 0 0 0-1-1Z" fill="url(#i)"/><path d="M642 279h-50a.94.94 0 0 0-1 1v12a.94.94 0 0 0 1 1h50a.94.94 0 0 0 1-1v-12a.94.94 0 0 0-1-1Z" fill="url(#j)"/><path d="M561 295h-50a.94.94 0 0 0-1 1v12a.94.94 0 0 0 1 1h50a.94.94 0 0 0 1-1v-12a.94.94 0 0 0-1-1Z" fill="url(#k)"/><path d="M588 279h-50a.94.94 0 0 0-1 1v12a.94.94 0 0 0 1 1h50a.94.94 0 0 0 1-1v-12a.94.94 0 0 0-1-1Z" fill="url(#l)"/><path d="M507 295h-50a.94.94 0 0 0-1 1v12a.94.94 0 0 0 1 1h50a.94.94 0 0 0 1-1v-12a.94.94 0 0 0-1-1Z" fill="url(#m)"/><path d="M534 279h-50a.94.94 0 0 0-1 1v12a.94.94 0 0 0 1 1h50a.94.94 0 0 0 1-1v-12a.94.94 0 0 0-1-1Z" fill="url(#n)"/><path d="M453 295h-50a.94.94 0 0 0-1 1v12a.94.94 0 0 0 1 1h50a.94.94 0 0 0 1-1v-12a.94.94 0 0 0-1-1Z" fill="url(#o)"/><path d="M480 279h-50a.94.94 0 0 0-1 1v12a.94.94 0 0 0 1 1h50a.94.94 0 0 0 1-1v-12a.94.94 0 0 0-1-1Z" fill="url(#p)"/><path d="M399 295h-50a.94.94 0 0 0-1 1v12a.94.94 0 0 0 1 1h50a.94.94 0 0 0 1-1v-12a.94.94 0 0 0-1-1Z" fill="url(#q)"/><path d="M426 279h-50a.94.94 0 0 0-1 1v12a.94.94 0 0 0 1 1h50a.94.94 0 0 0 1-1v-12a.94.94 0 0 0-1-1Z" fill="url(#r)"/><path d="M345 295h-50a.94.94 0 0 0-1 1v12a.94.94 0 0 0 1 1h50a.94.94 0 0 0 1-1v-12a.94.94 0 0 0-1-1Z" fill="url(#s)"/><path d="M372 279h-50a.94.94 0 0 0-1 1v12a.94.94 0 0 0 1 1h50a.94.94 0 0 0 1-1v-12a.94.94 0 0 0-1-1Z" fill="url(#t)"/><path d="M291 295h-50a.94.94 0 0 0-1 1v12a.94.94 0 0 0 1 1h50a.94.94 0 0 0 1-1v-12a.94.94 0 0 0-1-1Z" fill="url(#u)"/><path d="M318 279h-50a.94.94 0 0 0-1 1v12a.94.94 0 0 0 1 1h50a.94.94 0 0 0 1-1v-12a.94.94 0 0 0-1-1Z" fill="url(#v)"/><path d="M237 295h-50a.94.94 0 0 0-1 1v12a.94.94 0 0 0 1 1h50a.94.94 0 0 0 1-1v-12a.94.94 0 0 0-1-1Z" fill="url(#w)"/><path d="M264 279h-50a.94.94 0 0 0-1 1v12a.94.94 0 0 0 1 1h50a.94.94 0 0 0 1-1v-12a.94.94 0 0 0-1-1Z" fill="url(#x)"/><path d="M183 295h-50a.94.94 0 0 0-1 1v12a.94.94 0 0 0 1 1h50a.94.94 0 0 0 1-1v-12a.94.94 0 0 0-1-1Z" fill="url(#y)"/><path d="M210 279h-50a.94.94 0 0 0-1 1v12a.94.94 0 0 0 1 1h50a.94.94 0 0 0 1-1v-12a.94.94 0 0 0-1-1Z" fill="url(#z)"/><path d="M129 295H79a.94.94 0 0 0-1 1v12a.94.94 0 0 0 1 1h50a.94.94 0 0 0 1-1v-12a.94.94 0 0 0-1-1Z" fill="url(#A)"/><path d="M156 279h-50a.94.94 0 0 0-1 1v12a.94.94 0 0 0 1 1h50a.94.94 0 0 0 1-1v-12a.94.94 0 0 0-1-1Z" fill="url(#B)"/><path d="M75 295H25a.94.94 0 0 0-1 1v12a.94.94 0 0 0 1 1h50a.94.94 0 0 0 1-1v-12a.94.94 0 0 0-1-1Z" fill="url(#C)"/><path d="M102 279H52a.94.94 0 0 0-1 1v12a.94.94 0 0 0 1 1h50a.94.94 0 0 0 1-1v-12a.94.94 0 0 0-1-1Z" fill="url(#D)"/><path d="M21 295H1a.94.94 0 0 0-1 1v12a.94.94 0 0 0 1 1h20a.94.94 0 0 0 1-1v-12a.94.94 0 0 0-1-1Z" fill="url(#E)"/><path d="M48 279H1a.94.94 0 0 0-1 1v12a.94.94 0 0 0 1 1h47a.94.94 0 0 0 1-1v-12a.94.94 0 0 0-1-1Z" fill="url(#F)"/><path d="M798 263h-17a.94.94 0 0 0-1 1v12a.94.94 0 0 0 1 1h17a.94.94 0 0 0 1-1v-12a.94.94 0 0 0-1-1Z" fill="url(#a)"/><path d="M777 263h-50a.94.94 0 0 0-1 1v12a.94.94 0 0 0 1 1h50a.94.94 0 0 0 1-1v-12a.94.94 0 0 0-1-1Z" fill="url(#c)"/><path d="M799 247h-45a.94.94 0 0 0-1 1v12a.94.94 0 0 0 1 1h45a.94.94 0 0 0 1-1v-12a.94.94 0 0 0-1-1Z" fill="url(#d)"/><path d="M723 263h-50a.94.94 0 0 0-1 1v12a.94.94 0 0 0 1 1h50a.94.94 0 0 0 1-1v-12a.94.94 0 0 0-1-1Z" fill="url(#e)"/><path d="M750 247h-50a.94.94 0 0 0-1 1v12a.94.94 0 0 0 1 1h50a.94.94 0 0 0 1-1v-12a.94.94 0 0 0-1-1Z" fill="url(#f)"/><path d="M669 263h-50a.94.94 0 0 0-1 1v12a.94.94 0 0 0 1 1h50a.94.94 0 0 0 1-1v-12a.94.94 0 0 0-1-1Z" fill="url(#g)"/><path d="M696 247h-50a.94.94 0 0 0-1 1v12a.94.94 0 0 0 1 1h50a.94.94 0 0 0 1-1v-12a.94.94 0 0 0-1-1Z" fill="url(#h)"/><path d="M615 263h-50a.94.94 0 0 0-1 1v12a.94.94 0 0 0 1 1h50a.94.94 0 0 0 1-1v-12a.94.94 0 0 0-1-1Z" fill="url(#i)"/><path d="M642 247h-50a.94.94 0 0 0-1 1v12a.94.94 0 0 0 1 1h50a.94.94 0 0 0 1-1v-12a.94.94 0 0 0-1-1Z" fill="url(#j)"/><path d="M561 263h-50a.94.94 0 0 0-1 1v12a.94.94 0 0 0 1 1h50a.94.94 0 0 0 1-1v-12a.94.94 0 0 0-1-1Z" fill="url(#k)"/><path d="M588 247h-50a.94.94 0 0 0-1 1v12a.94.94 0 0 0 1 1h50a.94.94 0 0 0 1-1v-12a.94.94 0 0 0-1-1Z" fill="url(#l)"/><path d="M507 263h-50a.94.94 0 0 0-1 1v12a.94.94 0 0 0 1 1h50a.94.94 0 0 0 1-1v-12a.94.94 0 0 0-1-1Z" fill="url(#m)"/><path d="M534 247h-50a.94.94 0 0 0-1 1v12a.94.94 0 0 0 1 1h50a.94.94 0 0 0 1-1v-12a.94.94 0 0 0-1-1Z" fill="url(#n)"/><path d="M453 263h-50a.94.94 0 0 0-1 1v12a.94.94 0 0 0 1 1h50a.94.94 0 0 0 1-1v-12a.94.94 0 0 0-1-1Z" fill="url(#o)"/><path d="M480 247h-50a.94.94 0 0 0-1 1v12a.94.94 0 0 0 1 1h50a.94.94 0 0 0 1-1v-12a.94.94 0 0 0-1-1Z" fill="url(#p)"/><path d="M399 263h-50a.94.94 0 0 0-1 1v12a.94.94 0 0 0 1 1h50a.94.94 0 0 0 1-1v-12a.94.94 0 0 0-1-1Z" fill="url(#q)"/><path d="M426 247h-50a.94.94 0 0 0-1 1v12a.94.94 0 0 0 1 1h50a.94.94 0 0 0 1-1v-12a.94.94 0 0 0-1-1Z" fill="url(#r)"/><path d="M345 263h-50a.94.94 0 0 0-1 1v12a.94.94 0 0 0 1 1h50a.94.94 0 0 0 1-1v-12a.94.94 0 0 0-1-1Z" fill="url(#s)"/><path d="M372 247h-50a.94.94 0 0 0-1 1v12a.94.94 0 0 0 1 1h50a.94.94 0 0 0 1-1v-12a.94.94 0 0 0-1-1Z" fill="url(#t)"/><path d="M291 263h-50a.94.94 0 0 0-1 1v12a.94.94 0 0 0 1 1h50a.94.94 0 0 0 1-1v-12a.94.94 0 0 0-1-1Z" fill="url(#u)"/><path d="M318 247h-50a.94.94 0 0 0-1 1v12a.94.94 0 0 0 1 1h50a.94.94 0 0 0 1-1v-12a.94.94 0 0 0-1-1Z" fill="url(#v)"/><path d="M237 263h-50a.94.94 0 0 0-1 1v12a.94.94 0 0 0 1 1h50a.94.94 0 0 0 1-1v-12a.94.94 0 0 0-1-1Z" fill="url(#w)"/><path d="M264 247h-50a.94.94 0 0 0-1 1v12a.94.94 0 0 0 1 1h50a.94.94 0 0 0 1-1v-12a.94.94 0 0 0-1-1Z" fill="url(#x)"/><path d="M183 263h-50a.94.94 0 0 0-1 1v12a.94.94 0 0 0 1 1h50a.94.94 0 0 0 1-1v-12a.94.94 0 0 0-1-1Z" fill="url(#y)"/><path d="M210 247h-50a.94.94 0 0 0-1 1v12a.94.94 0 0 0 1 1h50a.94.94 0 0 0 1-1v-12a.94.94 0 0 0-1-1Z" fill="url(#z)"/><path d="M129 263H79a.94.94 0 0 0-1 1v12a.94.94 0 0 0 1 1h50a.94.94 0 0 0 1-1v-12a.94.94 0 0 0-1-1Z" fill="url(#A)"/><path d="M156 247h-50a.94.94 0 0 0-1 1v12a.94.94 0 0 0 1 1h50a.94.94 0 0 0 1-1v-12a.94.94 0 0 0-1-1Z" fill="url(#B)"/><path d="M75 263H25a.94.94 0 0 0-1 1v12a.94.94 0 0 0 1 1h50a.94.94 0 0 0 1-1v-12a.94.94 0 0 0-1-1Z" fill="url(#C)"/><path d="M102 247H52a.94.94 0 0 0-1 1v12a.94.94 0 0 0 1 1h50a.94.94 0 0 0 1-1v-12a.94.94 0 0 0-1-1Z" fill="url(#D)"/><path d="M21 263H1a.94.94 0 0 0-1 1v12a.94.94 0 0 0 1 1h20a.94.94 0 0 0 1-1v-12a.94.94 0 0 0-1-1Z" fill="url(#E)"/><path d="M48 247H1a.94.94 0 0 0-1 1v12a.94.94 0 0 0 1 1h47a.94.94 0 0 0 1-1v-12a.94.94 0 0 0-1-1Z" fill="url(#F)"/><path d="M798 231h-17a.94.94 0 0 0-1 1v12a.94.94 0 0 0 1 1h17a.94.94 0 0 0 1-1v-12a.94.94 0 0 0-1-1Z" fill="url(#a)"/><path d="M777 231h-50a.94.94 0 0 0-1 1v12a.94.94 0 0 0 1 1h50a.94.94 0 0 0 1-1v-12a.94.94 0 0 0-1-1Z" fill="url(#c)"/><path d="M799 215h-45a.94.94 0 0 0-1 1v12a.94.94 0 0 0 1 1h45a.94.94 0 0 0 1-1v-12a.94.94 0 0 0-1-1Z" fill="url(#d)"/><path d="M723 231h-50a.94.94 0 0 0-1 1v12a.94.94 0 0 0 1 1h50a.94.94 0 0 0 1-1v-12a.94.94 0 0 0-1-1Z" fill="url(#e)"/><path d="M750 215h-50a.94.94 0 0 0-1 1v12a.94.94 0 0 0 1 1h50a.94.94 0 0 0 1-1v-12a.94.94 0 0 0-1-1Z" fill="url(#f)"/><path d="M669 231h-50a.94.94 0 0 0-1 1v12a.94.94 0 0 0 1 1h50a.94.94 0 0 0 1-1v-12a.94.94 0 0 0-1-1Z" fill="url(#g)"/><path d="M696 215h-50a.94.94 0 0 0-1 1v12a.94.94 0 0 0 1 1h50a.94.94 0 0 0 1-1v-12a.94.94 0 0 0-1-1Z" fill="url(#h)"/><path d="M615 231h-50a.94.94 0 0 0-1 1v12a.94.94 0 0 0 1 1h50a.94.94 0 0 0 1-1v-12a.94.94 0 0 0-1-1Z" fill="url(#i)"/><path d="M642 215h-50a.94.94 0 0 0-1 1v12a.94.94 0 0 0 1 1h50a.94.94 0 0 0 1-1v-12a.94.94 0 0 0-1-1Z" fill="url(#j)"/><path d="M561 231h-50a.94.94 0 0 0-1 1v12a.94.94 0 0 0 1 1h50a.94.94 0 0 0 1-1v-12a.94.94 0 0 0-1-1Z" fill="url(#k)"/><path d="M588 215h-50a.94.94 0 0 0-1 1v12a.94.94 0 0 0 1 1h50a.94.94 0 0 0 1-1v-12a.94.94 0 0 0-1-1Z" fill="url(#l)"/><path d="M507 231h-50a.94.94 0 0 0-1 1v12a.94.94 0 0 0 1 1h50a.94.94 0 0 0 1-1v-12a.94.94 0 0 0-1-1Z" fill="url(#m)"/><path d="M534 215h-50a.94.94 0 0 0-1 1v12a.94.94 0 0 0 1 1h50a.94.94 0 0 0 1-1v-12a.94.94 0 0 0-1-1Z" fill="url(#n)"/><path d="M453 231h-50a.94.94 0 0 0-1 1v12a.94.94 0 0 0 1 1h50a.94.94 0 0 0 1-1v-12a.94.94 0 0 0-1-1Z" fill="url(#o)"/><path d="M480 215h-50a.94.94 0 0 0-1 1v12a.94.94 0 0 0 1 1h50a.94.94 0 0 0 1-1v-12a.94.94 0 0 0-1-1Z" fill="url(#p)"/><path d="M399 231h-50a.94.94 0 0 0-1 1v12a.94.94 0 0 0 1 1h50a.94.94 0 0 0 1-1v-12a.94.94 0 0 0-1-1Z" fill="url(#q)"/><path d="M426 215h-50a.94.94 0 0 0-1 1v12a.94.94 0 0 0 1 1h50a.94.94 0 0 0 1-1v-12a.94.94 0 0 0-1-1Z" fill="url(#r)"/><path d="M345 231h-50a.94.94 0 0 0-1 1v12a.94.94 0 0 0 1 1h50a.94.94 0 0 0 1-1v-12a.94.94 0 0 0-1-1Z" fill="url(#s)"/><path d="M372 215h-50a.94.94 0 0 0-1 1v12a.94.94 0 0 0 1 1h50a.94.94 0 0 0 1-1v-12a.94.94 0 0 0-1-1Z" fill="url(#t)"/><path d="M291 231h-50a.94.94 0 0 0-1 1v12a.94.94 0 0 0 1 1h50a.94.94 0 0 0 1-1v-12a.94.94 0 0 0-1-1Z" fill="url(#u)"/><path d="M318 215h-50a.94.94 0 0 0-1 1v12a.94.94 0 0 0 1 1h50a.94.94 0 0 0 1-1v-12a.94.94 0 0 0-1-1Z" fill="url(#v)"/><path d="M237 231h-50a.94.94 0 0 0-1 1v12a.94.94 0 0 0 1 1h50a.94.94 0 0 0 1-1v-12a.94.94 0 0 0-1-1Z" fill="url(#w)"/><path d="M264 215h-50a.94.94 0 0 0-1 1v12a.94.94 0 0 0 1 1h50a.94.94 0 0 0 1-1v-12a.94.94 0 0 0-1-1Z" fill="url(#x)"/><path d="M183 231h-50a.94.94 0 0 0-1 1v12a.94.94 0 0 0 1 1h50a.94.94 0 0 0 1-1v-12a.94.94 0 0 0-1-1Z" fill="url(#y)"/><path d="M210 215h-50a.94.94 0 0 0-1 1v12a.94.94 0 0 0 1 1h50a.94.94 0 0 0 1-1v-12a.94.94 0 0 0-1-1Z" fill="url(#z)"/><path d="M129 231H79a.94.94 0 0 0-1 1v12a.94.94 0 0 0 1 1h50a.94.94 0 0 0 1-1v-12a.94.94 0 0 0-1-1Z" fill="url(#A)"/><path d="M156 215h-50a.94.94 0 0 0-1 1v12a.94.94 0 0 0 1 1h50a.94.94 0 0 0 1-1v-12a.94.94 0 0 0-1-1Z" fill="url(#B)"/><path d="M75 231H25a.94.94 0 0 0-1 1v12a.94.94 0 0 0 1 1h50a.94.94 0 0 0 1-1v-12a.94.94 0 0 0-1-1Z" fill="url(#C)"/><path d="M102 215H52a.94.94 0 0 0-1 1v12a.94.94 0 0 0 1 1h50a.94.94 0 0 0 1-1v-12a.94.94 0 0 0-1-1Z" fill="url(#D)"/><path d="M21 231H1a.94.94 0 0 0-1 1v12a.94.94 0 0 0 1 1h20a.94.94 0 0 0 1-1v-12a.94.94 0 0 0-1-1Z" fill="url(#E)"/><path d="M48 215H1a.94.94 0 0 0-1 1v12a.94.94 0 0 0 1 1h47a.94.94 0 0 0 1-1v-12a.94.94 0 0 0-1-1Z" fill="url(#F)"/><path d="M798 199h-17a.94.94 0 0 0-1 1v12a.94.94 0 0 0 1 1h17a.94.94 0 0 0 1-1v-12a.94.94 0 0 0-1-1Z" fill="url(#a)"/><path d="M777 199h-50a.94.94 0 0 0-1 1v12a.94.94 0 0 0 1 1h50a.94.94 0 0 0 1-1v-12a.94.94 0 0 0-1-1Z" fill="url(#c)"/><path d="M799 183h-45a.94.94 0 0 0-1 1v12a.94.94 0 0 0 1 1h45a.94.94 0 0 0 1-1v-12a.94.94 0 0 0-1-1Z" fill="url(#d)"/><path d="M723 199h-50a.94.94 0 0 0-1 1v12a.94.94 0 0 0 1 1h50a.94.94 0 0 0 1-1v-12a.94.94 0 0 0-1-1Z" fill="url(#e)"/><path d="M750 183h-50a.94.94 0 0 0-1 1v12a.94.94 0 0 0 1 1h50a.94.94 0 0 0 1-1v-12a.94.94 0 0 0-1-1Z" fill="url(#f)"/><path d="M669 199h-50a.94.94 0 0 0-1 1v12a.94.94 0 0 0 1 1h50a.94.94 0 0 0 1-1v-12a.94.94 0 0 0-1-1Z" fill="url(#g)"/><path d="M696 183h-50a.94.94 0 0 0-1 1v12a.94.94 0 0 0 1 1h50a.94.94 0 0 0 1-1v-12a.94.94 0 0 0-1-1Z" fill="url(#h)"/><path d="M615 199h-50a.94.94 0 0 0-1 1v12a.94.94 0 0 0 1 1h50a.94.94 0 0 0 1-1v-12a.94.94 0 0 0-1-1Z" fill="url(#i)"/><path d="M642 183h-50a.94.94 0 0 0-1 1v12a.94.94 0 0 0 1 1h50a.94.94 0 0 0 1-1v-12a.94.94 0 0 0-1-1Z" fill="url(#j)"/><path d="M561 199h-50a.94.94 0 0 0-1 1v12a.94.94 0 0 0 1 1h50a.94.94 0 0 0 1-1v-12a.94.94 0 0 0-1-1Z" fill="url(#k)"/><path d="M588 183h-50a.94.94 0 0 0-1 1v12a.94.94 0 0 0 1 1h50a.94.94 0 0 0 1-1v-12a.94.94 0 0 0-1-1Z" fill="url(#l)"/><path d="M507 199h-50a.94.94 0 0 0-1 1v12a.94.94 0 0 0 1 1h50a.94.94 0 0 0 1-1v-12a.94.94 0 0 0-1-1Z" fill="url(#m)"/><path d="M534 183h-50a.94.94 0 0 0-1 1v12a.94.94 0 0 0 1 1h50a.94.94 0 0 0 1-1v-12a.94.94 0 0 0-1-1Z" fill="url(#n)"/><path d="M453 199h-50a.94.94 0 0 0-1 1v12a.94.94 0 0 0 1 1h50a.94.94 0 0 0 1-1v-12a.94.94 0 0 0-1-1Z" fill="url(#o)"/><path d="M480 183h-50a.94.94 0 0 0-1 1v12a.94.94 0 0 0 1 1h50a.94.94 0 0 0 1-1v-12a.94.94 0 0 0-1-1Z" fill="url(#p)"/><path d="M399 199h-50a.94.94 0 0 0-1 1v12a.94.94 0 0 0 1 1h50a.94.94 0 0 0 1-1v-12a.94.94 0 0 0-1-1Z" fill="url(#q)"/><path d="M426 183h-50a.94.94 0 0 0-1 1v12a.94.94 0 0 0 1 1h50a.94.94 0 0 0 1-1v-12a.94.94 0 0 0-1-1Z" fill="url(#r)"/><path d="M345 199h-50a.94.94 0 0 0-1 1v12a.94.94 0 0 0 1 1h50a.94.94 0 0 0 1-1v-12a.94.94 0 0 0-1-1Z" fill="url(#s)"/><path d="M372 183h-50a.94.94 0 0 0-1 1v12a.94.94 0 0 0 1 1h50a.94.94 0 0 0 1-1v-12a.94.94 0 0 0-1-1Z" fill="url(#t)"/><path d="M291 199h-50a.94.94 0 0 0-1 1v12a.94.94 0 0 0 1 1h50a.94.94 0 0 0 1-1v-12a.94.94 0 0 0-1-1Z" fill="url(#u)"/><path d="M318 183h-50a.94.94 0 0 0-1 1v12a.94.94 0 0 0 1 1h50a.94.94 0 0 0 1-1v-12a.94.94 0 0 0-1-1Z" fill="url(#v)"/><path d="M237 199h-50a.94.94 0 0 0-1 1v12a.94.94 0 0 0 1 1h50a.94.94 0 0 0 1-1v-12a.94.94 0 0 0-1-1Z" fill="url(#w)"/><path d="M264 183h-50a.94.94 0 0 0-1 1v12a.94.94 0 0 0 1 1h50a.94.94 0 0 0 1-1v-12a.94.94 0 0 0-1-1Z" fill="url(#x)"/><path d="M183 199h-50a.94.94 0 0 0-1 1v12a.94.94 0 0 0 1 1h50a.94.94 0 0 0 1-1v-12a.94.94 0 0 0-1-1Z" fill="url(#y)"/><path d="M210 183h-50a.94.94 0 0 0-1 1v12a.94.94 0 0 0 1 1h50a.94.94 0 0 0 1-1v-12a.94.94 0 0 0-1-1Z" fill="url(#z)"/><path d="M129 199H79a.94.94 0 0 0-1 1v12a.94.94 0 0 0 1 1h50a.94.94 0 0 0 1-1v-12a.94.94 0 0 0-1-1Z" fill="url(#A)"/><path d="M156 183h-50a.94.94 0 0 0-1 1v12a.94.94 0 0 0 1 1h50a.94.94 0 0 0 1-1v-12a.94.94 0 0 0-1-1Z" fill="url(#B)"/><path d="M75 199H25a.94.94 0 0 0-1 1v12a.94.94 0 0 0 1 1h50a.94.94 0 0 0 1-1v-12a.94.94 0 0 0-1-1Z" fill="url(#C)"/><path d="M102 183H52a.94.94 0 0 0-1 1v12a.94.94 0 0 0 1 1h50a.94.94 0 0 0 1-1v-12a.94.94 0 0 0-1-1Z" fill="url(#D)"/><path d="M21 199H1a.94.94 0 0 0-1 1v12a.94.94 0 0 0 1 1h20a.94.94 0 0 0 1-1v-12a.94.94 0 0 0-1-1Z" fill="url(#E)"/><path d="M48 183H1a.94.94 0 0 0-1 1v12a.94.94 0 0 0 1 1h47a.94.94 0 0 0 1-1v-12a.94.94 0 0 0-1-1Z" fill="url(#F)"/><path d="M798 167h-17a.94.94 0 0 0-1 1v12a.94.94 0 0 0 1 1h17a.94.94 0 0 0 1-1v-12a.94.94 0 0 0-1-1Z" fill="url(#a)"/><path d="M777 167h-50a.94.94 0 0 0-1 1v12a.94.94 0 0 0 1 1h50a.94.94 0 0 0 1-1v-12a.94.94 0 0 0-1-1Z" fill="url(#c)"/><path d="M799 151h-45a.94.94 0 0 0-1 1v12a.94.94 0 0 0 1 1h45a.94.94 0 0 0 1-1v-12a.94.94 0 0 0-1-1Z" fill="url(#d)"/><path d="M723 167h-50a.94.94 0 0 0-1 1v12a.94.94 0 0 0 1 1h50a.94.94 0 0 0 1-1v-12a.94.94 0 0 0-1-1Z" fill="url(#e)"/><path d="M750 151h-50a.94.94 0 0 0-1 1v12a.94.94 0 0 0 1 1h50a.94.94 0 0 0 1-1v-12a.94.94 0 0 0-1-1Z" fill="url(#f)"/><path d="M669 167h-50a.94.94 0 0 0-1 1v12a.94.94 0 0 0 1 1h50a.94.94 0 0 0 1-1v-12a.94.94 0 0 0-1-1Z" fill="url(#g)"/><path d="M696 151h-50a.94.94 0 0 0-1 1v12a.94.94 0 0 0 1 1h50a.94.94 0 0 0 1-1v-12a.94.94 0 0 0-1-1Z" fill="url(#h)"/><path d="M615 167h-50a.94.94 0 0 0-1 1v12a.94.94 0 0 0 1 1h50a.94.94 0 0 0 1-1v-12a.94.94 0 0 0-1-1Z" fill="url(#i)"/><path d="M642 151h-50a.94.94 0 0 0-1 1v12a.94.94 0 0 0 1 1h50a.94.94 0 0 0 1-1v-12a.94.94 0 0 0-1-1Z" fill="url(#j)"/><path d="M561 167h-50a.94.94 0 0 0-1 1v12a.94.94 0 0 0 1 1h50a.94.94 0 0 0 1-1v-12a.94.94 0 0 0-1-1Z" fill="url(#k)"/><path d="M588 151h-50a.94.94 0 0 0-1 1v12a.94.94 0 0 0 1 1h50a.94.94 0 0 0 1-1v-12a.94.94 0 0 0-1-1Z" fill="url(#l)"/><path d="M507 167h-50a.94.94 0 0 0-1 1v12a.94.94 0 0 0 1 1h50a.94.94 0 0 0 1-1v-12a.94.94 0 0 0-1-1Z" fill="url(#m)"/><path d="M534 151h-50a.94.94 0 0 0-1 1v12a.94.94 0 0 0 1 1h50a.94.94 0 0 0 1-1v-12a.94.94 0 0 0-1-1Z" fill="url(#n)"/><path d="M453 167h-50a.94.94 0 0 0-1 1v12a.94.94 0 0 0 1 1h50a.94.94 0 0 0 1-1v-12a.94.94 0 0 0-1-1Z" fill="url(#o)"/><path d="M480 151h-50a.94.94 0 0 0-1 1v12a.94.94 0 0 0 1 1h50a.94.94 0 0 0 1-1v-12a.94.94 0 0 0-1-1Z" fill="url(#p)"/><path d="M399 167h-50a.94.94 0 0 0-1 1v12a.94.94 0 0 0 1 1h50a.94.94 0 0 0 1-1v-12a.94.94 0 0 0-1-1Z" fill="url(#q)"/><path d="M426 151h-50a.94.94 0 0 0-1 1v12a.94.94 0 0 0 1 1h50a.94.94 0 0 0 1-1v-12a.94.94 0 0 0-1-1Z" fill="url(#r)"/><path d="M345 167h-50a.94.94 0 0 0-1 1v12a.94.94 0 0 0 1 1h50a.94.94 0 0 0 1-1v-12a.94.94 0 0 0-1-1Z" fill="url(#s)"/><path d="M372 151h-50a.94.94 0 0 0-1 1v12a.94.94 0 0 0 1 1h50a.94.94 0 0 0 1-1v-12a.94.94 0 0 0-1-1Z" fill="url(#t)"/><path d="M291 167h-50a.94.94 0 0 0-1 1v12a.94.94 0 0 0 1 1h50a.94.94 0 0 0 1-1v-12a.94.94 0 0 0-1-1Z" fill="url(#u)"/><path d="M318 151h-50a.94.94 0 0 0-1 1v12a.94.94 0 0 0 1 1h50a.94.94 0 0 0 1-1v-12a.94.94 0 0 0-1-1Z" fill="url(#v)"/><path d="M237 167h-50a.94.94 0 0 0-1 1v12a.94.94 0 0 0 1 1h50a.94.94 0 0 0 1-1v-12a.94.94 0 0 0-1-1Z" fill="url(#w)"/><path d="M264 151h-50a.94.94 0 0 0-1 1v12a.94.94 0 0 0 1 1h50a.94.94 0 0 0 1-1v-12a.94.94 0 0 0-1-1Z" fill="url(#x)"/><path d="M183 167h-50a.94.94 0 0 0-1 1v12a.94.94 0 0 0 1 1h50a.94.94 0 0 0 1-1v-12a.94.94 0 0 0-1-1Z" fill="url(#y)"/><path d="M210 151h-50a.94.94 0 0 0-1 1v12a.94.94 0 0 0 1 1h50a.94.94 0 0 0 1-1v-12a.94.94 0 0 0-1-1Z" fill="url(#z)"/><path d="M129 167H79a.94.94 0 0 0-1 1v12a.94.94 0 0 0 1 1h50a.94.94 0 0 0 1-1v-12a.94.94 0 0 0-1-1Z" fill="url(#A)"/><path d="M156 151h-50a.94.94 0 0 0-1 1v12a.94.94 0 0 0 1 1h50a.94.94 0 0 0 1-1v-12a.94.94 0 0 0-1-1Z" fill="url(#B)"/><path d="M75 167H25a.94.94 0 0 0-1 1v12a.94.94 0 0 0 1 1h50a.94.94 0 0 0 1-1v-12a.94.94 0 0 0-1-1Z" fill="url(#C)"/><path d="M102 151H52a.94.94 0 0 0-1 1v12a.94.94 0 0 0 1 1h50a.94.94 0 0 0 1-1v-12a.94.94 0 0 0-1-1Z" fill="url(#D)"/><path d="M21 167H1a.94.94 0 0 0-1 1v12a.94.94 0 0 0 1 1h20a.94.94 0 0 0 1-1v-12a.94.94 0 0 0-1-1Z" fill="url(#E)"/><path d="M48 151H1a.94.94 0 0 0-1 1v12a.94.94 0 0 0 1 1h47a.94.94 0 0 0 1-1v-12a.94.94 0 0 0-1-1Z" fill="url(#F)"/><path d="M798 135h-17a.94.94 0 0 0-1 1v12a.94.94 0 0 0 1 1h17a.94.94 0 0 0 1-1v-12a.94.94 0 0 0-1-1Z" fill="url(#a)"/><path d="M777 135h-50a.94.94 0 0 0-1 1v12a.94.94 0 0 0 1 1h50a.94.94 0 0 0 1-1v-12a.94.94 0 0 0-1-1Z" fill="url(#c)"/><path d="M799 119h-45a.94.94 0 0 0-1 1v12a.94.94 0 0 0 1 1h45a.94.94 0 0 0 1-1v-12a.94.94 0 0 0-1-1Z" fill="url(#d)"/><path d="M723 135h-50a.94.94 0 0 0-1 1v12a.94.94 0 0 0 1 1h50a.94.94 0 0 0 1-1v-12a.94.94 0 0 0-1-1Z" fill="url(#e)"/><path d="M750 119h-50a.94.94 0 0 0-1 1v12a.94.94 0 0 0 1 1h50a.94.94 0 0 0 1-1v-12a.94.94 0 0 0-1-1Z" fill="url(#f)"/><path d="M669 135h-50a.94.94 0 0 0-1 1v12a.94.94 0 0 0 1 1h50a.94.94 0 0 0 1-1v-12a.94.94 0 0 0-1-1Z" fill="url(#g)"/><path d="M696 119h-50a.94.94 0 0 0-1 1v12a.94.94 0 0 0 1 1h50a.94.94 0 0 0 1-1v-12a.94.94 0 0 0-1-1Z" fill="url(#h)"/><path d="M615 135h-50a.94.94 0 0 0-1 1v12a.94.94 0 0 0 1 1h50a.94.94 0 0 0 1-1v-12a.94.94 0 0 0-1-1Z" fill="url(#i)"/><path d="M642 119h-50a.94.94 0 0 0-1 1v12a.94.94 0 0 0 1 1h50a.94.94 0 0 0 1-1v-12a.94.94 0 0 0-1-1Z" fill="url(#j)"/><path d="M561 135h-50a.94.94 0 0 0-1 1v12a.94.94 0 0 0 1 1h50a.94.94 0 0 0 1-1v-12a.94.94 0 0 0-1-1Z" fill="url(#k)"/><path d="M588 119h-50a.94.94 0 0 0-1 1v12a.94.94 0 0 0 1 1h50a.94.94 0 0 0 1-1v-12a.94.94 0 0 0-1-1Z" fill="url(#l)"/><path d="M507 135h-50a.94.94 0 0 0-1 1v12a.94.94 0 0 0 1 1h50a.94.94 0 0 0 1-1v-12a.94.94 0 0 0-1-1Z" fill="url(#m)"/><path d="M534 119h-50a.94.94 0 0 0-1 1v12a.94.94 0 0 0 1 1h50a.94.94 0 0 0 1-1v-12a.94.94 0 0 0-1-1Z" fill="url(#n)"/><path d="M453 135h-50a.94.94 0 0 0-1 1v12a.94.94 0 0 0 1 1h50a.94.94 0 0 0 1-1v-12a.94.94 0 0 0-1-1Z" fill="url(#o)"/><path d="M480 119h-50a.94.94 0 0 0-1 1v12a.94.94 0 0 0 1 1h50a.94.94 0 0 0 1-1v-12a.94.94 0 0 0-1-1Z" fill="url(#p)"/><path d="M399 135h-50a.94.94 0 0 0-1 1v12a.94.94 0 0 0 1 1h50a.94.94 0 0 0 1-1v-12a.94.94 0 0 0-1-1Z" fill="url(#q)"/><path d="M426 119h-50a.94.94 0 0 0-1 1v12a.94.94 0 0 0 1 1h50a.94.94 0 0 0 1-1v-12a.94.94 0 0 0-1-1Z" fill="url(#r)"/><path d="M345 135h-50a.94.94 0 0 0-1 1v12a.94.94 0 0 0 1 1h50a.94.94 0 0 0 1-1v-12a.94.94 0 0 0-1-1Z" fill="url(#s)"/><path d="M372 119h-50a.94.94 0 0 0-1 1v12a.94.94 0 0 0 1 1h50a.94.94 0 0 0 1-1v-12a.94.94 0 0 0-1-1Z" fill="url(#t)"/><path d="M291 135h-50a.94.94 0 0 0-1 1v12a.94.94 0 0 0 1 1h50a.94.94 0 0 0 1-1v-12a.94.94 0 0 0-1-1Z" fill="url(#u)"/><path d="M318 119h-50a.94.94 0 0 0-1 1v12a.94.94 0 0 0 1 1h50a.94.94 0 0 0 1-1v-12a.94.94 0 0 0-1-1Z" fill="url(#v)"/><path d="M237 135h-50a.94.94 0 0 0-1 1v12a.94.94 0 0 0 1 1h50a.94.94 0 0 0 1-1v-12a.94.94 0 0 0-1-1Z" fill="url(#w)"/><path d="M264 119h-50a.94.94 0 0 0-1 1v12a.94.94 0 0 0 1 1h50a.94.94 0 0 0 1-1v-12a.94.94 0 0 0-1-1Z" fill="url(#x)"/><path d="M183 135h-50a.94.94 0 0 0-1 1v12a.94.94 0 0 0 1 1h50a.94.94 0 0 0 1-1v-12a.94.94 0 0 0-1-1Z" fill="url(#y)"/><path d="M210 119h-50a.94.94 0 0 0-1 1v12a.94.94 0 0 0 1 1h50a.94.94 0 0 0 1-1v-12a.94.94 0 0 0-1-1Z" fill="url(#z)"/><path d="M129 135H79a.94.94 0 0 0-1 1v12a.94.94 0 0 0 1 1h50a.94.94 0 0 0 1-1v-12a.94.94 0 0 0-1-1Z" fill="url(#A)"/><path d="M156 119h-50a.94.94 0 0 0-1 1v12a.94.94 0 0 0 1 1h50a.94.94 0 0 0 1-1v-12a.94.94 0 0 0-1-1Z" fill="url(#B)"/><path d="M75 135H25a.94.94 0 0 0-1 1v12a.94.94 0 0 0 1 1h50a.94.94 0 0 0 1-1v-12a.94.94 0 0 0-1-1Z" fill="url(#C)"/><path d="M102 119H52a.94.94 0 0 0-1 1v12a.94.94 0 0 0 1 1h50a.94.94 0 0 0 1-1v-12a.94.94 0 0 0-1-1Z" fill="url(#D)"/><path d="M21 135H1a.94.94 0 0 0-1 1v12a.94.94 0 0 0 1 1h20a.94.94 0 0 0 1-1v-12a.94.94 0 0 0-1-1Z" fill="url(#E)"/><path d="M48 119H1a.94.94 0 0 0-1 1v12a.94.94 0 0 0 1 1h47a.94.94 0 0 0 1-1v-12a.94.94 0 0 0-1-1Z" fill="url(#F)"/><path d="M798 103h-17a.94.94 0 0 0-1 1v12a.94.94 0 0 0 1 1h17a.94.94 0 0 0 1-1v-12a.94.94 0 0 0-1-1Z" fill="url(#a)"/><path d="M777 103h-50a.94.94 0 0 0-1 1v12a.94.94 0 0 0 1 1h50a.94.94 0 0 0 1-1v-12a.94.94 0 0 0-1-1Z" fill="url(#c)"/><path d="M799 87h-45a.94.94 0 0 0-1 1v12a.94.94 0 0 0 1 1h45a.94.94 0 0 0 1-1V88a.94.94 0 0 0-1-1Z" fill="url(#d)"/><path d="M723 103h-50a.94.94 0 0 0-1 1v12a.94.94 0 0 0 1 1h50a.94.94 0 0 0 1-1v-12a.94.94 0 0 0-1-1Z" fill="url(#e)"/><path d="M750 87h-50a.94.94 0 0 0-1 1v12a.94.94 0 0 0 1 1h50a.94.94 0 0 0 1-1V88a.94.94 0 0 0-1-1Z" fill="url(#f)"/><path d="M669 103h-50a.94.94 0 0 0-1 1v12a.94.94 0 0 0 1 1h50a.94.94 0 0 0 1-1v-12a.94.94 0 0 0-1-1Z" fill="url(#g)"/><path d="M696 87h-50a.94.94 0 0 0-1 1v12a.94.94 0 0 0 1 1h50a.94.94 0 0 0 1-1V88a.94.94 0 0 0-1-1Z" fill="url(#h)"/><path d="M615 103h-50a.94.94 0 0 0-1 1v12a.94.94 0 0 0 1 1h50a.94.94 0 0 0 1-1v-12a.94.94 0 0 0-1-1Z" fill="url(#i)"/><path d="M642 87h-50a.94.94 0 0 0-1 1v12a.94.94 0 0 0 1 1h50a.94.94 0 0 0 1-1V88a.94.94 0 0 0-1-1Z" fill="url(#j)"/><path d="M561 103h-50a.94.94 0 0 0-1 1v12a.94.94 0 0 0 1 1h50a.94.94 0 0 0 1-1v-12a.94.94 0 0 0-1-1Z" fill="url(#k)"/><path d="M588 87h-50a.94.94 0 0 0-1 1v12a.94.94 0 0 0 1 1h50a.94.94 0 0 0 1-1V88a.94.94 0 0 0-1-1Z" fill="url(#l)"/><path d="M507 103h-50a.94.94 0 0 0-1 1v12a.94.94 0 0 0 1 1h50a.94.94 0 0 0 1-1v-12a.94.94 0 0 0-1-1Z" fill="url(#m)"/><path d="M534 87h-50a.94.94 0 0 0-1 1v12a.94.94 0 0 0 1 1h50a.94.94 0 0 0 1-1V88a.94.94 0 0 0-1-1Z" fill="url(#n)"/><path d="M453 103h-50a.94.94 0 0 0-1 1v12a.94.94 0 0 0 1 1h50a.94.94 0 0 0 1-1v-12a.94.94 0 0 0-1-1Z" fill="url(#o)"/><path d="M480 87h-50a.94.94 0 0 0-1 1v12a.94.94 0 0 0 1 1h50a.94.94 0 0 0 1-1V88a.94.94 0 0 0-1-1Z" fill="url(#p)"/><path d="M399 103h-50a.94.94 0 0 0-1 1v12a.94.94 0 0 0 1 1h50a.94.94 0 0 0 1-1v-12a.94.94 0 0 0-1-1Z" fill="url(#q)"/><path d="M426 87h-50a.94.94 0 0 0-1 1v12a.94.94 0 0 0 1 1h50a.94.94 0 0 0 1-1V88a.94.94 0 0 0-1-1Z" fill="url(#r)"/><path d="M345 103h-50a.94.94 0 0 0-1 1v12a.94.94 0 0 0 1 1h50a.94.94 0 0 0 1-1v-12a.94.94 0 0 0-1-1Z" fill="url(#s)"/><path d="M372 87h-50a.94.94 0 0 0-1 1v12a.94.94 0 0 0 1 1h50a.94.94 0 0 0 1-1V88a.94.94 0 0 0-1-1Z" fill="url(#t)"/><path d="M291 103h-50a.94.94 0 0 0-1 1v12a.94.94 0 0 0 1 1h50a.94.94 0 0 0 1-1v-12a.94.94 0 0 0-1-1Z" fill="url(#u)"/><path d="M318 87h-50a.94.94 0 0 0-1 1v12a.94.94 0 0 0 1 1h50a.94.94 0 0 0 1-1V88a.94.94 0 0 0-1-1Z" fill="url(#v)"/><path d="M237 103h-50a.94.94 0 0 0-1 1v12a.94.94 0 0 0 1 1h50a.94.94 0 0 0 1-1v-12a.94.94 0 0 0-1-1Z" fill="url(#w)"/><path d="M264 87h-50a.94.94 0 0 0-1 1v12a.94.94 0 0 0 1 1h50a.94.94 0 0 0 1-1V88a.94.94 0 0 0-1-1Z" fill="url(#x)"/><path d="M183 103h-50a.94.94 0 0 0-1 1v12a.94.94 0 0 0 1 1h50a.94.94 0 0 0 1-1v-12a.94.94 0 0 0-1-1Z" fill="url(#y)"/><path d="M210 87h-50a.94.94 0 0 0-1 1v12a.94.94 0 0 0 1 1h50a.94.94 0 0 0 1-1V88a.94.94 0 0 0-1-1Z" fill="url(#z)"/><path d="M129 103H79a.94.94 0 0 0-1 1v12a.94.94 0 0 0 1 1h50a.94.94 0 0 0 1-1v-12a.94.94 0 0 0-1-1Z" fill="url(#A)"/><path d="M156 87h-50a.94.94 0 0 0-1 1v12a.94.94 0 0 0 1 1h50a.94.94 0 0 0 1-1V88a.94.94 0 0 0-1-1Z" fill="url(#B)"/><path d="M75 103H25a.94.94 0 0 0-1 1v12a.94.94 0 0 0 1 1h50a.94.94 0 0 0 1-1v-12a.94.94 0 0 0-1-1Z" fill="url(#C)"/><path d="M102 87H52a.94.94 0 0 0-1 1v12a.94.94 0 0 0 1 1h50a.94.94 0 0 0 1-1V88a.94.94 0 0 0-1-1Z" fill="url(#D)"/><path d="M21 103H1a.94.94 0 0 0-1 1v12a.94.94 0 0 0 1 1h20a.94.94 0 0 0 1-1v-12a.94.94 0 0 0-1-1Z" fill="url(#E)"/><path d="M48 87H1a.94.94 0 0 0-1 1v12a.94.94 0 0 0 1 1h47a.94.94 0 0 0 1-1V88a.94.94 0 0 0-1-1Z" fill="url(#F)"/><path d="M798 71h-17a.94.94 0 0 0-1 1v12a.94.94 0 0 0 1 1h17a.94.94 0 0 0 1-1V72a.94.94 0 0 0-1-1Z" fill="url(#a)"/><path d="M777 71h-50a.94.94 0 0 0-1 1v12a.94.94 0 0 0 1 1h50a.94.94 0 0 0 1-1V72a.94.94 0 0 0-1-1Z" fill="url(#c)"/><path d="M799 55h-45a.94.94 0 0 0-1 1v12a.94.94 0 0 0 1 1h45a.94.94 0 0 0 1-1V56a.94.94 0 0 0-1-1Z" fill="url(#d)"/><path d="M723 71h-50a.94.94 0 0 0-1 1v12a.94.94 0 0 0 1 1h50a.94.94 0 0 0 1-1V72a.94.94 0 0 0-1-1Z" fill="url(#e)"/><path d="M750 55h-50a.94.94 0 0 0-1 1v12a.94.94 0 0 0 1 1h50a.94.94 0 0 0 1-1V56a.94.94 0 0 0-1-1Z" fill="url(#f)"/><path d="M669 71h-50a.94.94 0 0 0-1 1v12a.94.94 0 0 0 1 1h50a.94.94 0 0 0 1-1V72a.94.94 0 0 0-1-1Z" fill="url(#g)"/><path d="M696 55h-50a.94.94 0 0 0-1 1v12a.94.94 0 0 0 1 1h50a.94.94 0 0 0 1-1V56a.94.94 0 0 0-1-1Z" fill="url(#h)"/><path d="M615 71h-50a.94.94 0 0 0-1 1v12a.94.94 0 0 0 1 1h50a.94.94 0 0 0 1-1V72a.94.94 0 0 0-1-1Z" fill="url(#i)"/><path d="M642 55h-50a.94.94 0 0 0-1 1v12a.94.94 0 0 0 1 1h50a.94.94 0 0 0 1-1V56a.94.94 0 0 0-1-1Z" fill="url(#j)"/><path d="M561 71h-50a.94.94 0 0 0-1 1v12a.94.94 0 0 0 1 1h50a.94.94 0 0 0 1-1V72a.94.94 0 0 0-1-1Z" fill="url(#k)"/><path d="M588 55h-50a.94.94 0 0 0-1 1v12a.94.94 0 0 0 1 1h50a.94.94 0 0 0 1-1V56a.94.94 0 0 0-1-1Z" fill="url(#l)"/><path d="M507 71h-50a.94.94 0 0 0-1 1v12a.94.94 0 0 0 1 1h50a.94.94 0 0 0 1-1V72a.94.94 0 0 0-1-1Z" fill="url(#m)"/><path d="M534 55h-50a.94.94 0 0 0-1 1v12a.94.94 0 0 0 1 1h50a.94.94 0 0 0 1-1V56a.94.94 0 0 0-1-1Z" fill="url(#n)"/><path d="M453 71h-50a.94.94 0 0 0-1 1v12a.94.94 0 0 0 1 1h50a.94.94 0 0 0 1-1V72a.94.94 0 0 0-1-1Z" fill="url(#o)"/><path d="M480 55h-50a.94.94 0 0 0-1 1v12a.94.94 0 0 0 1 1h50a.94.94 0 0 0 1-1V56a.94.94 0 0 0-1-1Z" fill="url(#p)"/><path d="M399 71h-50a.94.94 0 0 0-1 1v12a.94.94 0 0 0 1 1h50a.94.94 0 0 0 1-1V72a.94.94 0 0 0-1-1Z" fill="url(#q)"/><path d="M426 55h-50a.94.94 0 0 0-1 1v12a.94.94 0 0 0 1 1h50a.94.94 0 0 0 1-1V56a.94.94 0 0 0-1-1Z" fill="url(#r)"/><path d="M345 71h-50a.94.94 0 0 0-1 1v12a.94.94 0 0 0 1 1h50a.94.94 0 0 0 1-1V72a.94.94 0 0 0-1-1Z" fill="url(#s)"/><path d="M372 55h-50a.94.94 0 0 0-1 1v12a.94.94 0 0 0 1 1h50a.94.94 0 0 0 1-1V56a.94.94 0 0 0-1-1Z" fill="url(#t)"/><path d="M291 71h-50a.94.94 0 0 0-1 1v12a.94.94 0 0 0 1 1h50a.94.94 0 0 0 1-1V72a.94.94 0 0 0-1-1Z" fill="url(#u)"/><path d="M318 55h-50a.94.94 0 0 0-1 1v12a.94.94 0 0 0 1 1h50a.94.94 0 0 0 1-1V56a.94.94 0 0 0-1-1Z" fill="url(#v)"/><path d="M237 71h-50a.94.94 0 0 0-1 1v12a.94.94 0 0 0 1 1h50a.94.94 0 0 0 1-1V72a.94.94 0 0 0-1-1Z" fill="url(#w)"/><path d="M264 55h-50a.94.94 0 0 0-1 1v12a.94.94 0 0 0 1 1h50a.94.94 0 0 0 1-1V56a.94.94 0 0 0-1-1Z" fill="url(#x)"/><path d="M183 71h-50a.94.94 0 0 0-1 1v12a.94.94 0 0 0 1 1h50a.94.94 0 0 0 1-1V72a.94.94 0 0 0-1-1Z" fill="url(#y)"/><path d="M210 55h-50a.94.94 0 0 0-1 1v12a.94.94 0 0 0 1 1h50a.94.94 0 0 0 1-1V56a.94.94 0 0 0-1-1Z" fill="url(#z)"/><path d="M129 71H79a.94.94 0 0 0-1 1v12a.94.94 0 0 0 1 1h50a.94.94 0 0 0 1-1V72a.94.94 0 0 0-1-1Z" fill="url(#A)"/><path d="M156 55h-50a.94.94 0 0 0-1 1v12a.94.94 0 0 0 1 1h50a.94.94 0 0 0 1-1V56a.94.94 0 0 0-1-1Z" fill="url(#B)"/><path d="M75 71H25a.94.94 0 0 0-1 1v12a.94.94 0 0 0 1 1h50a.94.94 0 0 0 1-1V72a.94.94 0 0 0-1-1Z" fill="url(#C)"/><path d="M102 55H52a.94.94 0 0 0-1 1v12a.94.94 0 0 0 1 1h50a.94.94 0 0 0 1-1V56a.94.94 0 0 0-1-1Z" fill="url(#D)"/><path d="M21 71H1a.94.94 0 0 0-1 1v12a.94.94 0 0 0 1 1h20a.94.94 0 0 0 1-1V72a.94.94 0 0 0-1-1Z" fill="url(#E)"/><path d="M48 55H1a.94.94 0 0 0-1 1v12a.94.94 0 0 0 1 1h47a.94.94 0 0 0 1-1V56a.94.94 0 0 0-1-1Z" fill="url(#F)"/><path d="M798 39h-17a.94.94 0 0 0-1 1v12a.94.94 0 0 0 1 1h17a.94.94 0 0 0 1-1V40a.94.94 0 0 0-1-1Z" fill="url(#a)"/><path d="M777 39h-50a.94.94 0 0 0-1 1v12a.94.94 0 0 0 1 1h50a.94.94 0 0 0 1-1V40a.94.94 0 0 0-1-1Z" fill="url(#c)"/><path d="M723 39h-50a.94.94 0 0 0-1 1v12a.94.94 0 0 0 1 1h50a.94.94 0 0 0 1-1V40a.94.94 0 0 0-1-1Z" fill="url(#e)"/><path d="M669 39h-50a.94.94 0 0 0-1 1v12a.94.94 0 0 0 1 1h50a.94.94 0 0 0 1-1V40a.94.94 0 0 0-1-1Z" fill="url(#g)"/><path d="M615 39h-50a.94.94 0 0 0-1 1v12a.94.94 0 0 0 1 1h50a.94.94 0 0 0 1-1V40a.94.94 0 0 0-1-1Z" fill="url(#i)"/><path d="M561 39h-50a.94.94 0 0 0-1 1v12a.94.94 0 0 0 1 1h50a.94.94 0 0 0 1-1V40a.94.94 0 0 0-1-1Z" fill="url(#k)"/><path d="M507 39h-50a.94.94 0 0 0-1 1v12a.94.94 0 0 0 1 1h50a.94.94 0 0 0 1-1V40a.94.94 0 0 0-1-1Z" fill="url(#m)"/><path d="M453 39h-50a.94.94 0 0 0-1 1v12a.94.94 0 0 0 1 1h50a.94.94 0 0 0 1-1V40a.94.94 0 0 0-1-1Z" fill="url(#o)"/><path d="M399 39h-50a.94.94 0 0 0-1 1v12a.94.94 0 0 0 1 1h50a.94.94 0 0 0 1-1V40a.94.94 0 0 0-1-1Z" fill="url(#q)"/><path d="M345 39h-50a.94.94 0 0 0-1 1v12a.94.94 0 0 0 1 1h50a.94.94 0 0 0 1-1V40a.94.94 0 0 0-1-1Z" fill="url(#s)"/><path d="M291 39h-50a.94.94 0 0 0-1 1v12a.94.94 0 0 0 1 1h50a.94.94 0 0 0 1-1V40a.94.94 0 0 0-1-1Z" fill="url(#u)"/><path d="M237 39h-50a.94.94 0 0 0-1 1v12a.94.94 0 0 0 1 1h50a.94.94 0 0 0 1-1V40a.94.94 0 0 0-1-1Z" fill="url(#w)"/><path d="M183 39h-50a.94.94 0 0 0-1 1v12a.94.94 0 0 0 1 1h50a.94.94 0 0 0 1-1V40a.94.94 0 0 0-1-1Z" fill="url(#y)"/><path d="M129 39H79a.94.94 0 0 0-1 1v12a.94.94 0 0 0 1 1h50a.94.94 0 0 0 1-1V40a.94.94 0 0 0-1-1Z" fill="url(#A)"/><path d="M75 39H25a.94.94 0 0 0-1 1v12a.94.94 0 0 0 1 1h50a.94.94 0 0 0 1-1V40a.94.94 0 0 0-1-1Z" fill="url(#C)"/><path d="M21 39H1a.94.94 0 0 0-1 1v12a.94.94 0 0 0 1 1h20a.94.94 0 0 0 1-1V40a.94.94 0 0 0-1-1Z" fill="url(#E)"/><path fill="url(#G)" d="M-.3-.3h800v466H-.3z"/><path d="M563 497h63a20 20 0 0 0 20-20H543a20.06 20.06 0 0 0 20 20Z" opacity=".2" fill="url(#b)" style="isolation:isolate"/><path d="M128 488h387.6a20 20 0 0 0 20-20H108a20 20 0 0 0 20 20Z" opacity=".2" fill="url(#H)" style="isolation:isolate"/><circle cx="535" cy="141" r="32" fill="#fff"/><path d="M535 109v32h32a32 32 0 0 0-32-32Z" fill="#ffca28"/><circle cx="535" cy="141" r="32" fill="none" stroke="#546e7a" stroke-miterlimit="10" stroke-width="6"/><path fill="none" stroke="#90a4ae" stroke-linecap="round" stroke-linejoin="round" stroke-width="4" d="M535 119v22h17"/><path fill="#b0bec5" d="M373 285h152v183H373z"/><path fill="#455a64" d="M373 285h151.9v41H373z"/><path d="M384 313a5 5 0 0 0 5 5h21a5 5 0 0 0 5-5v-4h-31v4Z" fill="#37474f"/><circle cx="449" cy="389" r="39" fill="#bbdefb"/><circle cx="503.5" cy="305.5" r="9.5" fill="#b0bec5"/><circle cx="503.5" cy="305.5" r="6.5" fill="#cfd8dc"/><path d="M476.5 390.1A36 36 0 0 0 461 387c-10.5 0-19.8 4-26 7.5 0 7.5 11.6 13.4 20 11.5 18-4 22.6-14.7 23.2-15-.5-.3-1.1-.6-1.7-.9Z" fill="#1565c0"/><path d="M478.2 391c-.7.3-1.4.7-2.1 1-.3.1-.5.3-.8.4-15.3 8.4-30.7 10.8-40.4 2a23.54 23.54 0 0 1-3.3-3.7 11.17 11.17 0 0 0-8.7-4.8 7.47 7.47 0 0 0-2 .3c-4.5 1.3-9.1 6.6-10.6 8.5a39.07 39.07 0 0 0 26.8 31.4 38.33 38.33 0 0 0 11.8 1.8 39 39 0 0 0 37.6-28.7 22.12 22.12 0 0 0-8.3-8.2Z" fill="#1e88e5"/><path d="M449 350a39 39 0 1 0 39 39 39.05 39.05 0 0 0-39-39Zm0 63a28 28 0 1 1 28-28 28 28 0 0 1-28 28Z" fill="#212121" opacity=".2" style="isolation:isolate"/><path d="M475 389.8c0 10.6 2.1 21.6 3.3 27.3 3.2-3.4 6.3-6.8 9.6-10.1v-35.1l-9.7-9.3c-1.2 5.9-3.2 16.7-3.2 27.2Z" fill="#78909c"/><path d="M449 343a46 46 0 1 0 46 46 46 46 0 0 0-46-46Zm0 81a35 35 0 1 1 35-35 35 35 0 0 1-35 35Zm-76-147h152v8H373z" fill="#90a4ae"/><path fill="#37474f" d="M426 285h5v41h-5zm17 8h31v18h-31z"/><path fill="#ffca28" d="M448 297h21v10h-21z"/><circle cx="438.5" cy="317.5" r="2.5" fill="#90a4ae"/><circle cx="446.5" cy="317.5" r="2.5" fill="#90a4ae"/><circle cx="454.5" cy="317.5" r="2.5" fill="#90a4ae"/><circle cx="462.5" cy="317.5" r="2.5" fill="#90a4ae"/><circle cx="470.5" cy="317.5" r="2.5" fill="#90a4ae"/><circle cx="478.5" cy="317.5" r="2.5" fill="#90a4ae"/><path d="M516 438h-27a2 2 0 0 0-2 2v19a2 2 0 0 0 2 2h27a2 2 0 0 0 2-2v-19a2 2 0 0 0-2-2ZM221 285h152v183H221z" fill="#90a4ae"/><circle cx="297" cy="389" r="39" fill="#bbdefb"/><path d="M313.4 394.2c-5.6-3.8-17-10.2-30.3-10.2-14.6 0-21.6 6.2-24.7 10.8a38.84 38.84 0 0 0 15.9 25.9c.3.1 28.7 4.3 39.1-26.5Z" fill="#1e88e5"/><path d="M328.7 387.9c-1.1-.3-4.4 1.3-8.5 3.2-2.1 1-4.4 2.1-6.8 3-3.8 1.6-7.6 2.8-10.4 2.8-9.9 0-18.5 1.2-24.6 3.2-4.1 1.4-7 3.1-8.4 5.2a37.47 37.47 0 0 0-3.3 8.2 39 39 0 0 0 69.2-21.8 24 24 0 0 0-7.2-3.8Z" fill="#42a5f5"/><path d="M297 350a39 39 0 1 0 39 39 39.05 39.05 0 0 0-39-39Zm0 59a24 24 0 1 1 24-24 23.94 23.94 0 0 1-24 24Z" fill="#212121" opacity=".2" style="isolation:isolate"/><path fill="#37474f" d="M221 285h152v41H221z"/><path d="M297 343a46 46 0 1 0 46 46 46 46 0 0 0-46-46Zm0 77a31 31 0 1 1 31-31 31 31 0 0 1-31 31Z" fill="#607d8b"/><path fill="#78909c" d="M221 277h152v8H221z"/><path fill="#263238" d="M281 293h32v18h-32z"/><circle cx="276.5" cy="317.5" r="2.5" fill="#90a4ae"/><circle cx="284.5" cy="317.5" r="2.5" fill="#90a4ae"/><circle cx="292.5" cy="317.5" r="2.5" fill="#90a4ae"/><circle cx="300.5" cy="317.5" r="2.5" fill="#90a4ae"/><circle cx="308.5" cy="317.5" r="2.5" fill="#90a4ae"/><circle cx="316.5" cy="317.5" r="2.5" fill="#90a4ae"/><path fill="#ffca28" d="M286 297h22v10h-22z"/><path d="M352 439H242a2 2 0 0 0-2 2v18a2 2 0 0 0 2 2h110a2 2 0 0 0 2-2v-18a2 2 0 0 0-2-2Z" fill="#607d8b"/><circle cx="341" cy="450" r="7" fill="#455a64"/><path fill="#90a4ae" d="M246 443h77v2h-77zm0 4h77v2h-77zm0 4h77v2h-77zm0 4h77v2h-77z"/><path d="M172 405.2v-1.3a.94.94 0 0 0-1-1v-4a2 2 0 0 0-2-2v-8a2 2 0 0 0-2-2h-11a2 2 0 0 0-2 2v8a2 2 0 0 0-2 2v4a.94.94 0 0 0-1 1v2.8a5.85 5.85 0 0 1-1.5 4 38.6 38.6 0 0 0-9.5 25.4V460a8 8 0 0 0 8 8h33a8 8 0 0 0 8-8v-15c0-3 1-10.7 1-15 0-7.3 0-13-4.7-18.8-3.7-4.6-10.1-5.7-13.3-6Zm9 34.8c-2 0-3-4.1-3-4.1s-2-11.2-2-17.2c0-1.7 0-3.7 1.6-3.7 5.4 0 6.4 7.9 6.4 14.9 0 3.3-1 10.1-3 10.1Z" fill="#cfd8dc"/><path d="M139 416a.94.94 0 0 0 1-1v-2a.94.94 0 0 0-1-1h-10a.94.94 0 0 0-1 1v2a.94.94 0 0 0 1 1v2s-9 15-9 20v27a3 3 0 0 0 3 3h22a3 3 0 0 0 3-3v-27c0-5-9-20-9-20Zm196.3-191.5c-20-11.5 3.1-11.5-33.8-11.5-12.5 0-28.5 8.1-33.2 10.6a1 1 0 0 0-.1 1.6l25 16.5a.78.78 0 0 0 .8.1l41.1-15.7a.86.86 0 0 0 .2-1.6Z" fill="#b0bec5"/><path d="m255 223 38.5 19 43.5-17.8S277.7 213 269.8 213 255 223 255 223Z" fill="#90a4ae"/><path d="M339.7 230h-94.4a.94.94 0 0 0-.9 1.2l13.1 39a9.6 9.6 0 0 0 9.1 6.8h51.6a9.42 9.42 0 0 0 9.1-6.8l13.1-39a.75.75 0 0 0-.7-1.2Z" fill="#b0bec5"/><path fill="none" stroke="#cfd8dc" stroke-linecap="round" stroke-miterlimit="10" stroke-width="7" d="M244.5 227.5h96"/><path d="M698 459h-39.8a69.26 69.26 0 0 0-16.3 2l-4 1-7 14 4.5 2.7a23.6 23.6 0 0 0 11.8 3.3H698c18 0 25-11.5 25-11.5s-7-11.5-25-11.5Z" fill="#757575"/><path d="M641.6 461.1c-1.6 4.9-4.2 12.5-8.5 16.1l2.5 1.5a23.24 23.24 0 0 0 11.5 3.3v-22c-1.7.3-3.3.6-5 1ZM685 459h7v23h-7zm-15 0h7v23h-7zm-15 .1V482h7v-23h-3.8c-1 0-2.1 0-3.2.1Zm45 0V482c16.5-.8 23-11.4 23-11.4s-6.5-10.7-23-11.5Z" fill="#424242"/><path d="M582 365a14.63 14.63 0 0 0-8-3l9 13 6-2s-3.6-5.5-7-8Zm21.7 5 4 2 9.3-13s-4 0-8 4a38.68 38.68 0 0 0-5.3 7Zm35.3 72a50.44 50.44 0 0 0-6-18c-4-7-9-12-11-15a70 70 0 0 1-6-12l-36.8 4.8-.8 3a54.63 54.63 0 0 1-7.5 11.2c-5 6-7.8 10.1-10 19a51.3 51.3 0 0 0-1 10s-7 4-7 16a24.15 24.15 0 0 0 4.7 15 27.79 27.79 0 0 0 3.4 4.1l6.6 6.8c1.2.2 2.3 3.4 3.6-4.8.4-2.2 3.3-4.6 5.6-4.4 1.7.2 6.9 2.6 13 3.3 10 1 14.2.8 18 1l19 1s19-17 19-27c.2-8-2.8-12-6.8-14Z" fill="#757575"/><path d="M617 418a96.23 96.23 0 0 1 0-18l-34.1.8s-9.4 17.5-9.4 22.5.5 11.7-3.5 17.7l1 6s7 4.9 8 18 11 16 11 16 11 1 17 1c9 0 10-7.2 10.1-10.9.1-1.8-.1-4.1-.1-7.1 0-17 10-22 10-22l-1-9s-8-7-9-15Z" fill="#9e9e9e"/><path d="M618 381c-9.1-4.5-28.8-7.7-45 6a21.09 21.09 0 0 0-5.9 9h-.1s2 2 4 2c-1 1-2 4-2 4s7 .8 9 2.5l4.8-.1 3.2 4.5a22.22 22.22 0 0 1 3.1 1.9c3.5 2.4 5.6 3.3 9 3.3a12.15 12.15 0 0 0 9.8-5.2 20.88 20.88 0 0 1 4.6-4.2l2.1-5.2 4.4-.6c1.7-1.3 8-2.9 8-2.9a14.39 14.39 0 0 0-2-3 4.33 4.33 0 0 0 4-2s-2.6-5.8-11-10Z" fill="#d0d0d0"/><path d="M588 388c-8 0-9.7 10.1-10 16.5 1.3 1.6 5.7 3.5 8 4.4a19.64 19.64 0 0 1 2-7.9c2.6-5.2 4-6 4-9a3.85 3.85 0 0 0-4-4Z" fill="#424242"/><path d="M574 362c-3 0-3 5-3 6 0 8 3.5 14.6 4 15l11-8s-8-13-12-13Zm43-3c-5 0-8.9 12.8-9 13l10 6a30.39 30.39 0 0 0 2-12c0-6-2.1-7-3-7Z" fill="#d0d0d0"/><path d="M597 369c-23 0-30 22-30 27 0 0 10-12 21-12 3 0 4.7 2.4 5 5.8.9 11.5 1 16.2 1 16.2l7-1s-1.8-12-2-16c-.2-3.2-1-8 7-8a30.68 30.68 0 0 1 23 10s-6-22-32-22Z" fill="#757575"/><path d="M606 386a4.72 4.72 0 0 0-5 5c0 2 0 3 4 6a43.69 43.69 0 0 1 7.5 7.7 36.21 36.21 0 0 0 6.5-5.8s-4-12.9-13-12.9Z" fill="#424242"/><circle cx="587.5" cy="393.5" r="2.5"/><path d="M597.7 403.1c-2.4.2-4.3.9-4.7 2.5a1.38 1.38 0 0 0 0 .9c.2 2 2.2 3.5 4.6 3.6h.8c2.5-.2 4.4-1.9 4.6-3.8v-.7c-.2-2.3-2.5-2.8-5.3-2.5Z"/><circle cx="587" cy="393" r="1" fill="#fff"/><circle cx="605.5" cy="391.5" r="2.5"/><circle cx="605" cy="391" r="1" fill="#fff"/><path d="M582.3 375.5c-2-3.9-5.3-9.5-7.3-9.5-.4 0-1 0-1 2a25 25 0 0 0 2.9 11.7c.2-.2 3.8-3 5.4-4.2ZM617 362c-1.7 0-4 4-6 11l5 3c2-7 2.7-14 1-14Z" fill="#757575"/><path d="M604.9 435.6a1.6 1.6 0 0 1-.9.7v.3a1.32 1.32 0 0 1-1.3 1.3h-.3a1.3 1.3 0 0 1-1.3 1.1 1.85 1.85 0 0 1-.7-.2 4.41 4.41 0 0 0-3.1.7 1.23 1.23 0 0 1-1.1-.7 1.45 1.45 0 0 1-.7.2 1.38 1.38 0 0 1-1.3-1.1h-.3a1.32 1.32 0 0 1-1.3-1.3v-.3a.76.76 0 0 1-.5-.2 12 12 0 1 0 18.7 10 11.32 11.32 0 0 0-5.9-10.5Z" fill="#ffcc80"/><path d="M618 444a7.63 7.63 0 0 0-1.5-3.9 13.79 13.79 0 0 0-3.9-3.1 46.54 46.54 0 0 1-4.4 5.8 43.71 43.71 0 0 1-6 3.9 1.49 1.49 0 0 0-.6 2 1.56 1.56 0 0 0 1.3.8h.3a8.43 8.43 0 0 1-1.4.6 1.43 1.43 0 0 0-.8 1.9 1.47 1.47 0 0 0 1 .9c-.1.1-.3.2-.4.3a1.55 1.55 0 0 0-.5 2.1 1.46 1.46 0 0 0 1.3.7 2.35 2.35 0 0 0 .8-.2 6.57 6.57 0 0 0 1.7-1.2 2.54 2.54 0 0 0 .2.7 1.46 1.46 0 0 0 1.3.7 2.35 2.35 0 0 0 .8-.2 27 27 0 0 0 7.2-7.1c2-2.5 3.6-4.7 3.6-4.7Z"/><path d="M617 401s-4 6.8-4 14c0 7 1 10.4 1 13a25.83 25.83 0 0 1-2.6 10.9s2.1-.7 4.6 2.1a7.87 7.87 0 0 1 2 3s4.6-3.6 6-5c5-5 4.6-6.5 5.9-9.8 0 0-12.9-26.4-12.9-28.2Z" fill="#757575"/><path d="M593 451.1c-.1 0-.2-.1-.3-.1a1.51 1.51 0 0 0 .3-2.9c-.7-.2-1.7-.7-2.7-1.1h.3a1.5 1.5 0 0 0 1.4-1 1.45 1.45 0 0 0-.9-1.9l-6.5-2.5c-1.6-.6-3.5-3.6-3.5-3.6a8.59 8.59 0 0 0-4 3.8 8.83 8.83 0 0 0-1 4.3 25.62 25.62 0 0 1 5.1 3.3 30.67 30.67 0 0 0 6.6 5.5 1.88 1.88 0 0 0 .8.2 1.53 1.53 0 0 0 1.5-1.9c.6.3 1.3.5 2 .8a1.09 1.09 0 0 0 .5.1 1.5 1.5 0 0 0 1.4-1 1.7 1.7 0 0 0-1-2Z"/><path d="M580.2 406.2A113 113 0 0 0 571 424a36.67 36.67 0 0 0-2 18c-.5 4.7 8.9 5 8.9 5a17.22 17.22 0 0 1 .1-2c.6-5.1 4.6-5 4.6-5s-3.6-4.8-3.6-9c0-6 4-9 4-14a23.74 23.74 0 0 0-2.8-10.8Z" fill="#757575"/><path d="M562.9 477.6c-2.7-3.5-3.5-4.4-6.6-8.4a16.49 16.49 0 0 0-3.2-3 1.44 1.44 0 0 0-2 .7 1.85 1.85 0 0 0-.2.7l-1.6-1.2a1.46 1.46 0 0 0-2.1.3 1.59 1.59 0 0 0-.3 1.3l-.6-.5a1.49 1.49 0 0 0-2 2.2l.5.5a1.53 1.53 0 0 0-1.4 2.7l.5.3a1.61 1.61 0 0 0-.7.4 1.45 1.45 0 0 0 .1 2.1c.1.1 1.4 1.3 3.1 2.6 2.6 2 9.8 6.9 11.4 7.8 5 3 8.8 5 12 5a3.66 3.66 0 0 0 4-4c.2-3.9-6.9-4.3-10.9-9.5Zm71.2-13.5a1.39 1.39 0 0 0-1.7.4l.6-1.5a1.45 1.45 0 0 0-.9-1.9 2 2 0 0 0-1.1 0l.1-.2a1.52 1.52 0 0 0-2.9-.9l-.1.3a1.53 1.53 0 0 0-3-.2l-.3 1.5a1.56 1.56 0 0 0-.8-.6 1.49 1.49 0 0 0-1.8 1.1c0 .1-.2.6-.3 1.3a83.83 83.83 0 0 0-1.8 10.8c-1 9.4-7.5 13.3-5.6 16.6a3.71 3.71 0 0 0 5.5 1.5c2.8-1.6 5.1-5.3 8-10.5a61.71 61.71 0 0 0 5-11.1l1.9-4.7a1.52 1.52 0 0 0-.8-1.9Z"/><circle cx="597" cy="454" r="1" fill="#8d6e63"/><circle cx="594" cy="442" r="1" fill="#8d6e63"/><circle cx="606" cy="441" r="1" fill="#8d6e63"/><circle cx="599" cy="446" r="1" fill="#8d6e63"/></svg>