<svg xmlns="http://www.w3.org/2000/svg" viewBox="0 0 1500 1500" width="1500" height="1500"><g transform="translate(201.0 626.0) rotate(0.0 570.0 395.0) scale(0.7502467917077986 0.7498813478879924)"><svg width="1519.5" height="1053.5" viewBox="0 0 1519.5 1053.5"><path d="M334.3 254.3c2.3 6 442.6 71.8 442.6 71.8l484.6-135s21.8-16.1-29.5-50.9-252.8-114.4-295.3-128C894.3-1.4 683.1 33.3 576.2 53s-363.8 83.8-363.8 83.8l39.7 100z" fill="#ff7900"/><path d="M1489.4 352.2c-1.7-.4-3.4-.6-5-.8-13.3-11.2-29.1-18-44.3-26-.3-.4-.6-.7-1-1.1-1.6-1.6-8.1-6.8-10.1-7.7-3.3-2.1-2.8-6.8-6.5-7.7-1.1-.8 0-4-1.1-4.8 3.9-5.1-1.2-1-1.2-1l4.3-2s-3 3-3.1 2.9c-.2-.1 5.8-3.9-1.1 1-.2.1-.3-4.6-.5-4.8-1-.8-3.6-2.5-4.6-3.4-2.2-1.8-1.6-.7-3.6-2.6-4-3.7-10.1-5.6-13.7-9.7-1.7-2-8.2.1-9.8-1.9l-1.2-1.5-.1-.1c-.9-1.2-1.8-2.3-2.6-3.5-8.2-11-16.2-21.4-27.5-29.4-1.8-1.3-4-1.9-6.2-1.9-3.9-5.6-7.7-11.3-11.4-17.1-6.2-9.6-15.2-17.4-26.2-20.9 0-.1-.1-.2-.1-.4-1-3-2.3-6-3.9-8.7s-3.6-5.2-5.6-7.6c-2.6-2.9-6.8-4.2-10.7-3.8-2.7-4.7-5.3-9.3-8-14-2.1-3.7-5.9-5.9-10-6.4-3.4-2-7.3-2.5-11.5-.7-3.2 1.3-5.9-6.5-7.3-3-3.5-.7-6.1.7-9 2.6-1.3-.5-3.7 1.5-5.1 1.7-36.6 3.9-73 19-108.3 29.6-1.7.5-3.3 1.4-4.7 2.5-32.5 4.8-64.8 11.6-96.5 20.4-2 .6-3.8 1.6-5.3 3-11.5 1.9-23 3.8-34.5 5.6-22.4 3.7-44.9 6.7-67.2 11.2-8.9 1.8-17.5 4.2-25.9 7.4-3-2-6.8-2.8-10.8-1.8-19 4.6-38.1 8.5-57.4 11.8-9.6 1.7-19.3 3.2-28.9 4.7-4.5.7-9 1.3-13.5 1.9-1.3.2-2.6.4-3.9.5-.1 0-1.7.2-2.3.3-2.3.3-4.7.6-7 .9-38.5 5-77.2 8.9-115.9 13l-32.9 3.5c-8.4.9-17.3 1.7-24.7 5.8-6.7-.4-13.5-.9-20.1-1.8-10-1.3-19.2 8.3-13.9 16.1 13.1 19.3 29.5 42 44.1 60.3.3.5.5 1 .8 1.6 1.9 5.8 5.1 10.8 9.7 15.1 2.1 2.2 4.2 4.5 6.3 6.8 2.6 5 5.3 9.9 8.1 14.7 5 9.8 9.9 19.5 14.9 29.3 5.2 10.3 10.5 20.6 15.7 30.8 4.5 8.9 8.8 18 14.2 26.4 6.3 9.9 14.1 18.8 24.3 24.9 1.2.7 2.5 1.1 3.9 1.4 7.5 17.2 16.6 33.8 27.2 49.2 6.7 9.7 16 18.8 28 21.5 4.1.6 8.3 1.1 12.4 1.7 6.4.2 12.5-1.1 18-4 4-1.1 7.4-3.1 10.3-6 4.9-3.2 8.8-7.4 11.8-12.7 4.8.5 9.7 0 14.5-1.5 33.4-5.8 66.4-13.4 98.9-23 35.8-10.6 70.7-23.7 105.1-38.3 6.1-2.6 12.1-5.2 18.1-8 1 .5 2.1.9 3.3 1.1 5.7.9 10.6.8 15.9-1.4 3.5-1.4 7.1-4.1 10.6-5.1 2.5-.7 5-.7 7.4-1 4.2 3.1 8.9 5.4 14.1 6.6l12.4 1.7c8.4 0 16.3-2.2 23.6-6.4l9.9-4.2c21.1-8.8 42.4-17.1 63.9-25 2.8.8 5.6 1.4 8.6 1.5 6.2 1.4 12.4 1.1 18.7-.8 18.3-3.5 31.3-15.7 48.5-22.7 20.7-8.4 45.6-11 64.3-23.2l.9-.6c11.1 1.9 22.1.1 32.8-3.2 4.2-1.3 8.4-2.7 12.6-4.2h.5c4.5 0 10-.9 14.4-1.9 2.9-.7 15.4-7.5 14.1-6.4 2.7-1.9 6.1-4.5 7.9-6.2 1-1 2.9-3.3 4.6-5.4 6.1-1.5 12.3-2.9 18.4-4.4 1.8-.4 3.7-.9 5.5-1.3 1-.1 2-.3 3.1-.5.9-.2 1.8-.5 2.6-.9.7-.2 1.4-.3 2-.5.8-.2 1.5-.3 2.3-.5.8.2 1.7.3 2.6.2l6.1-.1c6.7-.1 12.3-5 13.1-11.6.8-5.8-3.1-12.6-9.6-14.1zM558.8 719c2.5-12.5 1.9-24.8-4.7-36.1-2.6-4.4-6.3-8.8-10.7-12.4 2.2-44.3 2.7-88.8 1.4-133.1-.2-7.3-.5-14.7-.8-22 2.7-1.7 4.9-4.2 5.8-7.6 2.5-9.5 2-19.5 2-29.2v-82.7c0-3.8-1.9-7.6-4.7-10.1-.2-1.1-.4-2.2-.6-3.4-.4-3.3-.8-6.6-1.3-9.9-.5-3.6-1.2-7.1-1.9-10.6v-.2c2.6-19.6 4.2-39.3 4.8-59 .2-6-4.3-11.2-9.8-12.9-12.9-3.9-25.7-8.1-38.3-12.7-6.2-2.3-12.4-4.6-18.5-7.1-3.2-1.3-6.3-2.6-9.5-3.9-.5-.2-.7-.3-.9-.4.1.1.3.1.6.2-.8-.3-1.6-.7-2.4-1-1.6-.7-3.1-1.4-4.7-2-2.8-1.2-5.9-1.7-8.9-1.4-11.6-5.6-23.4-10.8-35.4-15.6-3.4-1.9-7.1-3.3-10.8-4.2-.4-.1-.8-.1-1.2-.2l-6-3.3c-1.4-.8-3-1.3-4.6-1.5-3.4-2.4-7.2-4.1-11.2-5.1-1-.2-2.1-.2-3 0-.6-.3-1.2-.5-1.8-.8-2.4-1.5-4.9-2.9-7.4-4.3-.6-1.9-1.6-3.8-3.1-5.2-2.8-2.5-5.7-3.5-9.5-3.9l-5.7-.6c-3-1.5-6-3-9.1-4.3-2.9-1.3-5.8-2.1-8.9-1.7-22.1-11.7-44.2-23.3-66.3-34.9-2.4-1.3-5-1.8-7.6-1.6-7.6-5.5-15.1-11-22.7-16.6-2-1.4-4.5-1.9-7.1-1.8-2.4-1.6-5.1-2.6-7.8-2.8-.4-.4-.8-.9-1.2-1.3-3.7-3.9-9.8-4.8-14.6-2.8-4.5 1.9-8.7 7-8.2 12.2s.9 10.3 1.3 15.5c-1.5 2.1-2.4 4.6-2.2 7.4 1.5 20 2.5 40.1 2.9 60.1.1 2.7 1 5.4 2.5 7.6l.2 67.5c0 1.2.2 2.5.6 3.7-1.4 67.1-2.8 134.2-4.2 201.2-.4 19.1-.9 38.3-.2 57.4-.6 12.3-1 24.6-1.5 36.8-.9 24.7-1.8 49.3-2.8 74-.9 24.9-1.9 49.7-2.8 74.6-.5 12.2-1.4 24.5-1.3 36.7.1 7.8 2.2 14.6 7.2 20.6 3.8 4.5 9.1 7.8 13.9 11.3 21.4 15.7 43.5 30.2 66.4 43.6 3.1 1.8 6.9 2.1 10.4 1.2 7.9 6.8 16.5 12.8 25.5 18 15.8 10.7 31.6 21.5 48 31.1.6 1 1.3 1.9 2.1 2.7 10.8 9.3 22.7 16.9 35.4 22.9 24.4 15.5 48.8 31 73.2 46.6 1.3.8 2.8 1.3 4.2 1.6 4.8 3.7 9.9 6.8 15.5 9.3l5.7 3.9c1.3 1 2.7 1.9 4 2.9.4.3 4.3 3.3 2.2 1.6 4.1 3.1 8.4 4.8 13.3 3.2.2.2.4.5.6.7 1 2.1 2 4.3 3 6.4.8 1.6 2 2.8 3.4 3.8 1.3 1.2 2.8 2 4.5 2.4 1.2.2 2.4.3 3.6.5 1.8.1 3.6-.3 5.2-1.2 2.6-1.1 5.1-2.9 6.4-5.5.5-1.1.9-2.1 1.3-3.2.6-2.4.6-4.7 0-7.1-.4-2.5-.9-5-1.3-7.6-.5-2.8-2.8-5.7-5.2-7.4-.3-.6-.5-1.1-.8-1.6 2.1-2.3 3.4-5.3 3.5-8.8 1.1-34.8 2.1-69.7 3.2-104.5.1-4.6-2.7-9.1-6.7-11.6.4-37.3 2.9-74.5 7.6-111.5 2.5-16.3 5.3-32.7 8.5-49z" fill="#ffa400"/><path d="M207.7 165.5c.7-5.5-4.7-11.7-9.8-12.9-5.5-1.2-12.5.7-15.1 6.1-.7 1.5-1.4 3-2.1 4.4-3.8.6-7.5 2.6-9.1 6.3-4.9 10.8-10.2 21.3-15.9 31.6-2.9 4.2-5.7 8.4-8.4 12.8-1.6.6-3.1 1.4-4.6 2.3-7.3 4.7-13 11.4-15.4 20-.2.6-.3 1.3-.5 1.9-6.9 7.3-13.7 14.6-20.6 21.8-2.7.4-5.3 1.6-7.4 3.6-13.2 13.3-25.1 27.7-36.1 42.9-1.4 1.9-1.9 4.2-1.9 6.5-.7.7-1.5 1.3-2.2 2-7.5 6.7-14.4 13.9-18.9 22.8-.8.4-1.6.8-2.5 1.2-.7.3-1.4.7-2.1 1-.2.1-.3.1-.4.2-1.7.7-3.4 1.4-5.1 2-6.6 2.4-11.7 9.2-9.3 16.5 2.2 6.8 9.3 11.5 16.5 9.3 1.7-.5 3.4-1 5-1.5s3.1-1.3 4.5-2.3c11.7 3.3 22.5-1.5 33.6-4.8 2.6-.8 5.2-1.4 7.8-2 1.2-.3 2.4-.5 3.7-.7l1.8-.3h.1c5.6-.4 11.1-.8 16.8-.4 2.6.1 5.1-.7 7.2-2.2 1.8.9 3.9 1.5 6.1 1.6 7.6.1 15.1-.1 22.7-.7 1.7.2 3.4.1 5.1-.4 2.7-.3 5.4-.5 8.1-.9 6.4-.8 13.4-1.4 19.6-3.2 3.3-1 5.9-3.1 7.6-5.7 7.1-.8 12-6.1 12.4-13.2 2-35.5 4-70.9 5.9-106.4.2-3.1-1-6-3-8.3 1.7-17.1 3.6-34 5.9-50.9zm1095.8 768.2c-.5-5.9-1.1-11.7-1.6-17.6.3-4.1-.1-8.3-1.3-12.2-.3-.9-.6-1.7-1.1-2.5 1.2-25.5 1.1-51.1-.3-76.7.5-28.5.1-57-1.1-85.5-.6-13.9-1.4-27.8-2.4-41.8-.1-1.3-.3-2.5-.7-3.7.5-.7 1-1.5 1.4-2.3 4.2-8 5.7-16.9 3.4-25.8-4.6-17.5-8.5-35.3-11.6-53.1 2.6-28.1 2.6-56.3-.2-84.4-.4-3.8-2-7.5-4.7-10.1.5-14.2.9-28.5 1.3-42.7.1-2.9-.9-5.5-2.6-7.7 3.2-4.2 3.6-16.3.4-21.3-3.4-5.3-10.3-2.1-16.3 1-.8-.1-1.6-.2-2.4-.2-8 .2-15.4 3.1-21.3 8.1-4.1-.5-8.2-.2-12.4.9-21.5 5.7-43 11.4-64.6 17.1-2-.4-4.1-.4-6.2.3-7.6 2.6-15.3 5-23 7.4-9.3 2.5-18.5 4.9-27.8 7.4-4.9-.9-9.9-.8-15.2.3-13.6 3-26.9 7.5-39.7 13-5.7 1.9-11.4 3.7-17.1 5.6-1.9.6-3.8 1.4-5.6 2.3-22.3 5.4-44.6 10.5-67 15.6-7.2 1.6-14.4 3.3-21.7 4.9-2.9-1.6-6.3-2.2-9.8-1.2l-54.5 15.3c-.7-.1-1.3-.1-2-.1-24 1.9-42.6 4.7-65.1 13.1-.3 0-3.6 1-3.9 1-.4.1-4.7.8-4.7.8-5.6.6-11 5.4-16.6 5.9-8.2-.3-16.3 1.2-23.8 4.4-2.2.7-4.3 1.6-6.3 2.5-.9 0-1.8 0-2.6.1-2.3.1-4.5.8-6.4 1.9-.5 0-.9.1-1.4.1-.2-.3-.3-.6-.5-.9-19.8-29.6-41.1-58.1-63.9-85.4-8.5-16.1-16.9-32.3-26.1-48-6.6-11.3-13.7-22.3-21.5-32.8-2-2.8-5-5-8.1-6-7.5-15.4-16-30.3-25.8-44.5-.8-1.1-1.7-2.2-2.8-3.1-.7-.8-1.4-1.6-2.3-2.3-.3-.7-.7-1.5-.8-1.9-.3-.7-.9-2.1-1-2.4-.5-1.2-1-2.3-1.5-3.5-1-2.3-1.9-4.7-2.9-7-3.9-9.6-7.6-19.3-11.1-29-2.4-6.5-9.2-11.7-16.5-9.3-6.8 2.2-11.4 9.3-9.3 16.5.9 3 1.7 6 2.6 9 .4 1.4 1.1 2.8 2 4-1.6 2.2-2.6 4.8-2.3 7.6.7 8 1.4 16.1 2 24.1v22.9c0 1.4.3 2.8.7 4.1 0 .3-.1.5-.1.8-1.6 21.2-.8 42.4 1.9 63.4-2.7 2.4-4.5 5.8-4.2 9.6 1.1 13.8 2.2 27.5 3.4 41.3-3.3 2.4-5.5 6.2-5.2 10.4.7 8.5 1.4 17.1 2.1 25.6.5 13.2.9 26.4 1.4 39.6-.8 1.7-1.3 3.6-1.2 5.7.4 18.5.8 37.1 1.3 55.6-3.8 2.4-6.8 6.5-6.2 11.1 2.2 19.1 4.1 38.3 5.6 57.5-5 61.6-6.4 123.4-4.3 185.1.3 9.7.5 19.4 1.4 29 .5 5.4 1.3 10.6 3 15.5-.6 4.7-1.2 9.4-1.9 14.1-.3 2.3.3 4.5 1.5 6.4-.8 1.7-1.3 3.5-1.4 5.6-.6 9.2-.2 18.4.9 27.5.3 9.7.7 19.4 1 29.1-.1.5-.2 1-.4 1.5-.1.3-1.5 3.8-.4 1.3-2.3 5-4.6 13.8-1.1 18.4 3.4 4.5 6.5 4 11.9 2.9 9.6-1.8 23.5-5.2 33.2-6.8 9.3 1.6 19 .9 28-1.7 4.1-1.2 8.1-2.7 12.1-4.3.3 0 .6-.1.9-.1 2-.3 3.9-.5 5.9-.8h.3c.2 0 .4-.1.7-.1.9-.1 1.7-.2 2.6-.3l11.7-1.5c31.5-4.1 63-8.1 94.6-12.1l47.8-6.1c1.1.7 2.4 1.3 3.7 1.5 7.8 1.7 15.6 1 23.2-1.5 5.9-1.9 11.6-4.3 17.5-6 5-1.5 10-2.7 15.1-3.8 2.4 2.9 5.9 4.9 9.9 4.5 22.3-1.9 44.5-4.1 66.1-9.4 13.1 2.6 25.8 2 39.1.1 18.2-2.7 34.7-11.1 51.7-17.8 2.3 1.9 5.2 3.1 8.5 3.3 11.9.8 23.7-2.1 35.1-5.4 5.4-1.5 10.8-3.1 16.3-4.2 1.3-.3 2.5-.5 3.8-.7.5-.1 1.9-.2 2.2-.3 3.1-.3 6.1-.5 9.2-.8 12.2-1.1 24.1-3.9 36.2-6 1.4-.2 2.8-.5 4.2-.7.3 0 .4-.1.6-.1.4 0 .8-.1 1.2-.1 2.8-.3 5.5-.5 8.3-.5 1.4 0 2.7 0 4.1.1.7 0 1.4.1 2 .2 2.8.5 5.5 1.2 8.3 2.1 4.7 1.6 10.3-.4 13.6-4.1 8-.9 16-2.3 23.9-4.2 2.4 2.8 5.8 4.7 9.9 4.8 13.4.4 27-1 40.1-4 6.1-1.4 12.1-3.1 17.9-5.3 2.9-1 5.7-2.2 8.6-3 1.2-.4 2.4-.7 3.7-.9-.3.2 2.9-.1 3.4 0 6.8.5 14.1-6.2 13.4-13.2zm-565.6-127c-7.6 1.4-15.2 3.1-22.7 5.2-4 1.2-7.1 3.9-8.7 7.7-1.8 4.2-1.1 7.8.7 11.9-.8-1.8-.1-.2.3.7s.7 1.8 1.1 2.7c-1.9 4.2-3.1 8.8-3.3 13.8-.4 9.3.9 19.1 3.5 28.1 1.9 6.4 4.4 12.9 7.7 18.8-.7 1.2-1.4 2.3-2.2 3.5-.4.6-.9 1.2-1.3 1.9 0 0-1.2 1.5-1.4 1.7-1.5 1.8-3.2 3.5-4.9 5.2l-4.2 1.2c-5.2 1.6-9.7 4.2-13.5 7.6-4.3-9.1-8.6-18.3-12.9-27.4l-5.1-55.2c-1.7-18.6-3.4-37.2-5.1-55.9-.1-1.1-.2-2.2-.4-3.2 4.2-4.4 8.3-8.8 12.5-13.1 3.9-4.1 7.8-8.1 11.6-12.2.5.1.9.3 1.4.4h.1c.4.2.8.4 1 .4 2.1 1 4.1 2.2 6.1 3.6.1 0 .2.2.4.3l.1.1c1 .9 2.1 1.7 3.1 2.7 1.8 1.6 3.4 3.4 5 5.1.7.8 1.4 1.6 2 2.3.4.5.9 1.1 1.3 1.6.1.1.4.5.7.8.1.1.1.2.1.2.4.6.8 1.1 1.2 1.7.6.8 1.2 1.7 1.8 2.5 1.5 2.1 3 4.3 4.5 6.5l10.5 15.3c2.9 4.3 5.9 8.5 8.8 12.8.2.3.2.5.2.7z" fill="#ff7900"/><path d="M730.7 786.4c-3.1-4-6.2-7.4-10.8-9.8-1.2-.6-2.4-1.1-3.6-1.3-4.8-4.2-8.6-9.4-10.9-15.8-4.2-11.9-22.3-13.5-25.8 0l-2.2 8.4c-3.2 4.9-5.8 10.1-7.6 15.7-.9.5-1.8 1.1-2.6 1.7-2.1.6-4 1.6-5.7 3.3-1.4 1.3-2.7 2.7-4.1 4-5 4.9-13.1 19-7.8 23.8s19.5-.2 25.1-3.7c.4.4.8.7 1.3 1-.6 10.4-.6 20.8.2 31.2.6 7.8 4 19.3 4.2 29-2.1 2.1-3.5 5.1-3.7 8.8-.2 3.2-.3 6.4-.5 9.7-.7 13.3 14.5 21.2 21.2 10.7 2.5-.5 8.2-5.2 10-7.1 2.4-2.6 3.9-5.8 3.9-9.5v-3.8c.1-1.8-.3-3.6-1.2-5.2-.5-1.7-1.5-3.1-2.8-4.3-.4-.4-.9-.8-1.4-1.1-.5-5.5-1.4-11.1-2.1-16.9-1-8.6-1.5-17.2-1.5-25.8 1.7-1.6 3-3.7 3.8-6 2.2-6.3 3.9-12.8 5-19.4.5.3.9.5 1.4.8 5.4 2.7 11.8 2.3 16.2-2.1 3.7-3.9 5.6-11.7 2-16.3z" fill="#4e4e4e"/><path d="M551 295.1c44.4-4.3 88.8-9.3 133.2-14.9 46.7-5.9 93.3-12.4 139.7-19.6 48.3-7.5 96.5-15.6 144.6-24.7 47.9-9.1 95.6-19.2 143.2-30 45.3-10.3 90.6-21.2 135.7-32.4 5.3-1.3 10.7-2.7 16-4 8.5-2.1 4.9-15.2-3.6-13.1-44.5 11.1-89 22-133.7 32.3-47.1 10.9-94.4 21.1-141.8 30.4-48.1 9.4-96.5 17.7-144.9 25.4-46.2 7.3-92.5 14-138.9 20-44.4 5.7-88.8 10.8-133.3 15.3-5.4.5-10.8 1.1-16.1 1.6-3.6.4-6.8 2.9-6.8 6.8-.1 3.5 3 7.3 6.7 6.9z"/><path d="M544.2 288.4c-.3 98.9-.6 197.8-1 296.7-.3 98.4-.6 196.8-1 295.2-.2 55.5-.4 111-.5 166.5 0 8.7 13.5 8.7 13.5 0 .3-98.9.6-197.8 1-296.7.3-98.4.6-196.8 1-295.2.2-55.5.4-111 .5-166.5.1-8.8-13.5-8.8-13.5 0z"/><path d="M203.1 142.7c21.8 12.1 43.9 23.8 66.2 35.2 22.1 11.2 44.3 22 66.8 32.4 22.7 10.5 45.6 20.6 68.6 30.2 22.4 9.4 45 18.4 67.8 27.1 22.6 8.6 45.3 16.7 68.2 24.5 2.8 1 5.7 1.9 8.5 2.9 3.4 1.1 7.5-1.3 8.3-4.7.9-3.7-1.1-7.1-4.7-8.3-22.8-7.6-45.4-15.6-67.9-24.1-22.8-8.5-45.4-17.4-67.8-26.7-2.8-1.2-5.6-2.3-8.4-3.5l-2.1-.9c-.3-.1-1.8-.7-.8-.3-1.5-.6-3-1.3-4.5-1.9l-16.8-7.2c-11.2-4.9-22.4-9.9-33.5-14.9-22.5-10.3-44.8-21-66.9-32.1-22.2-11.2-44.2-22.7-66-34.7-2.7-1.5-5.4-3-8.2-4.5-3.1-1.7-7.5-.9-9.3 2.4-1.6 3-.8 7.3 2.5 9.1z"/><path d="M921 0c-44.4 4.3-88.8 9.3-133.2 14.9-46.7 5.9-93.3 12.4-139.7 19.6-48.3 7.5-96.5 15.6-144.6 24.7-47.9 9.1-95.6 19.2-143.2 30-45.3 10.3-90.6 21.2-135.7 32.4-5.3 1.3-10.7 2.7-16 4-8.5 2.1-4.9 15.2 3.6 13.1 44.5-11.1 89-22 133.7-32.3C393 95.5 440.3 85.3 487.7 76c48.1-9.4 96.5-17.7 144.9-25.4 46.2-7.3 92.5-14 138.9-20 44.4-5.7 88.8-10.8 133.3-15.3 5.4-.5 10.8-1.1 16.1-1.6 3.6-.4 6.8-2.9 6.8-6.8 0-3.5-3.1-7.2-6.7-6.9z"/><path d="M1278 161.9c-.5-.3-.9-.6-1.3-.9-.3-.2-.5-.4-.8-.6-.2-.1-.3-.2-.5-.4-.7-.5.5.4.6.5-1.4-1.3-3.1-2.5-4.6-3.7-3.4-2.8-6.8-5.7-10.4-8.3-4-3-8.8-5.2-13.2-7.6-6-3.3-12.1-6.5-18.1-9.7-24.2-12.7-48.6-25-73.3-36.7-24.3-11.6-48.9-22.7-73.6-33.3-25-10.7-50.2-20.9-75.5-30.7-24.8-9.5-49.9-18.6-75-27.1-3.1-1.1-6.2-2.1-9.4-3.2-3.4-1.1-7.5 1.3-8.3 4.7-.9 3.7 1.1 7.1 4.7 8.3 25.1 8.4 50 17.3 74.8 26.6 12.4 4.7 24.9 9.5 37.2 14.5l18.6 7.5c3.1 1.3 6.2 2.6 9.3 3.8 1.5.6 3.1 1.3 4.6 1.9.7.3 1.4.6 2.2.9.2.1 1.2.5.2.1.4.2.8.3 1.2.5 24.8 10.5 49.4 21.5 73.7 32.9 24.6 11.6 49 23.6 73.1 36.2 12.2 6.3 24.3 12.8 36.3 19.4 1.4.7 2.6 1.6 3.8 2.5.7.5-1.3-1.1 0 0 .3.3.7.5 1 .8.8.6 1.6 1.3 2.3 1.9 3.5 2.8 6.9 5.7 10.5 8.5 1 .8 2 1.6 3.2 2.2 3.1 1.8 7.5.8 9.3-2.4 1.5-3.1.7-7.2-2.6-9.1zM199.7 136.8c-1.3 89.4-2.7 178.9-4 268.3-1.3 89-2.6 177.9-4 266.9-.7 50.2-1.5 100.4-2.2 150.6-.1 8.7 13.4 8.7 13.5 0 1.3-89.4 2.7-178.9 4-268.3 1.3-89 2.6-177.9 4-266.9.7-50.2 1.5-100.4 2.2-150.6.2-8.7-13.3-8.7-13.5 0z"/><path d="M192.9 828.4c21.7 14.9 43.6 29.7 65.5 44.4 22.3 14.9 44.7 29.6 67.2 44.2 22.9 14.8 45.9 29.5 68.9 44 23.5 14.8 47 29.3 70.7 43.8 23.5 14.3 47.2 28.5 70.9 42.5 3 1.7 5.9 3.5 8.9 5.2 3.1 1.8 7.6.8 9.3-2.4 1.7-3.3.8-7.3-2.4-9.3-23.8-14-47.5-28.2-71.1-42.5-23.7-14.4-47.4-29-70.9-43.7-23.2-14.5-46.2-29.2-69.2-44-22.6-14.6-45.1-29.3-67.4-44.2-21.9-14.6-43.7-29.3-65.5-44.2-2.7-1.9-5.4-3.7-8.1-5.6-2.9-2-7.6-.6-9.3 2.4-1.8 3.6-.6 7.3 2.5 9.4zm1084.6-386.5c2.9 65.8 5.8 131.5 8.7 197.3 2.9 65.4 5.8 130.9 8.7 196.3 1.6 36.9 3.3 73.8 4.9 110.7.2 3.7 3 6.8 6.8 6.8 3.5 0 6.9-3.1 6.8-6.8-2.9-65.8-5.8-131.5-8.7-197.3-2.9-65.4-5.8-130.9-8.7-196.3-1.6-36.9-3.3-73.8-4.9-110.7-.2-3.7-3-6.8-6.8-6.8-3.6 0-7 3.1-6.8 6.8z"/><path d="M548.5 1053.5c98.6-13.1 197.1-26.1 295.7-39.2s197.1-26.1 295.7-39.2c55.5-7.4 111.1-14.7 166.6-22.1 3.6-.5 6.8-2.8 6.8-6.8 0-3.3-3.1-7.3-6.8-6.8-98.6 13.1-197.1 26.1-295.7 39.2s-197.1 26.1-295.7 39.2c-55.5 7.4-111.1 14.7-166.6 22.1-3.6.5-6.8 2.8-6.8 6.8 0 3.3 3.1 7.3 6.8 6.8zM201.7 132.1l-39 45.9-39 45.9c-13 15.2-25.9 30.5-38.9 45.7l-39 45.9-39 45.9c-1.6 1.9-3.2 3.8-4.9 5.7-1.8 2.1-2.5 4.7-1.4 7.4.9 2.2 3.6 4.5 6.2 4.2 25.2-3.4 50.5-6.8 75.7-10.2 25.1-3.4 50.2-6.7 75.3-10.1l42.6-5.7c1.9-.3 3.4-.6 4.8-2 1.2-1.2 2.1-3.1 2-4.8-.1-1.8-.7-3.6-2-4.8-1.2-1.1-3.1-2.2-4.8-2-25.2 3.4-50.5 6.8-75.7 10.2-25.1 3.4-50.2 6.7-75.3 10.1l-42.6 5.7c1.6 3.9 3.2 7.7 4.8 11.6l39-45.9 39-45.9c13-15.2 25.9-30.5 38.9-45.7l39-45.9 39-45.9c1.6-1.9 3.2-3.8 4.9-5.7 1.2-1.4 2-2.9 2-4.8 0-1.7-.7-3.6-2-4.8-2.5-2.4-7.1-2.9-9.6 0zm350.4 159.3c11.9 18.3 23.9 36.5 35.8 54.8 11.9 18.2 23.8 36.4 35.7 54.5 11.9 18.2 23.8 36.4 35.7 54.5 11.9 18.3 23.9 36.5 35.8 54.8 11.9 18.2 23.8 36.4 35.7 54.5 1.5 2.3 3 4.5 4.4 6.8 1.9 3 6.1 4.5 9.3 2.4 3-1.9 4.5-6.1 2.4-9.3-11.9-18.3-23.9-36.5-35.8-54.8-11.9-18.2-23.8-36.4-35.7-54.5-11.9-18.2-23.8-36.4-35.7-54.5-11.9-18.3-23.9-36.5-35.8-54.8-11.9-18.2-23.8-36.4-35.7-54.5-1.5-2.3-3-4.5-4.4-6.8-1.9-3-6.1-4.5-9.3-2.4-2.9 1.9-4.4 6.1-2.4 9.3zm708.4-124c4.3 2.6 8.5 5.4 12.6 8.4 1 .7 2 1.4 2.9 2.2l1.5 1.2c.2.2.5.3.7.5 1 .8-1.1-.9 0 0 1.9 1.5 3.8 3 5.6 4.5 7.6 6.3 14.9 13.1 21.9 20.1 14.2 14.1 27.6 29 41.8 43.3 15 15.1 30.8 29.6 47 43.4 16.7 14.2 34 27.8 51.7 40.8 17.2 12.7 34.9 24.9 52.9 36.5 2.2 1.4 4.3 2.8 6.5 4.2 3 1.9 7.6.7 9.3-2.4 1.8-3.4.8-7.2-2.4-9.3-18-11.5-35.7-23.5-53-36-4.4-3.2-8.7-6.4-13-9.6-2.2-1.6-4.3-3.2-6.4-4.9-1-.8-2.1-1.6-3.1-2.4-.2-.2-.5-.4-.7-.6-.9-.7.1.1.3.2-.6-.5-1.2-.9-1.8-1.4-8.5-6.6-16.9-13.4-25.1-20.3-16.4-13.7-32.3-28.1-47.5-43.1-14.3-14.2-27.8-29.2-42-43.5-14.3-14.5-29.4-28.2-46.3-39.5-2-1.4-4.1-2.7-6.2-4-3-1.9-7.6-.8-9.3 2.4-2.1 3.4-1.2 7.4 2.1 9.3z"/><path d="M742.9 574.4c51.4-10.3 102.6-21.1 153.8-32.5 52.5-11.7 104.8-23.9 157-36.7 51.2-12.5 102.3-25.6 153.2-39.3 49.5-13.2 98.8-27 148-41.3 47.7-13.8 95.4-28.2 142.8-43 5.7-1.8 11.4-3.6 17.2-5.4 8.3-2.6 4.7-15.7-3.6-13.1-47.3 14.9-94.6 29.2-142.2 43.2-49 14.3-98.1 28.2-147.4 41.5-50.7 13.7-101.6 26.9-152.5 39.5-52.2 12.9-104.5 25.3-156.9 37.1-51.3 11.5-102.7 22.5-154.3 33-6.2 1.3-12.4 2.5-18.6 3.8-8.7 1.8-5.1 14.9 3.5 13.2zm-76 242c-.2 15.4-.1 30.8.3 46.1.4 15.4.9 30.8 2.1 46.1.2 2.2.5 4.6 1.6 6.6 1.7 2.8 4.6 4.7 7.9 4.8 2.2.1 4-.6 6-1.4 1.8-.7 3.7-1.5 5.5-2.2 7.4-2.9 14.9-5.6 22.1-8.9 4.8-2.1 7.3-6.8 6.7-12-.5-4.1-1.3-8.2-1.8-12.3-.1-.4-.2-2.1 0-.1 0-.3-.1-.6-.1-1-.1-1-.2-1.9-.4-2.9-.2-1.9-.5-3.9-.7-5.8-.4-3.7-.7-7.5-1-11.2-1.3-17.1-1.5-34.3-.5-51.4.2-3.5-3.3-6.9-6.8-6.8-3.8.2-6.6 3-6.8 6.8-.8 14.5-.9 29.1-.1 43.6.4 7.2 1 14.3 1.8 21.5l1.5 12c.2 1.7.5 3.4.8 5.1.1.9.3 1.8.4 2.7.1.4.1.8.2 1.2.1.5.1.3-.1-.8 0 .3.1.6.1.8 0 .6-.2 1.8.1-.2-.1.5-.5.9.2-.5.2-.3.4-.5.6-.8-.5.5-.3.4.6-.4-.3.1-.7.4-1 .5-.4.2-1 .2.6-.2-.4.1-.8.3-1.3.5-.9.4-1.8.7-2.8 1.1-3.4 1.3-6.8 2.7-10.2 4.1-3.4 1.3-6.8 2.7-10.2 4.1-.8.3-1.7.7-2.5 1-.3.1-.7.3-1 .4-.7.2-1.5.1.2.1.9 0 1.7.4 2.4.9.3.2 1.5 1.9 1 1 .9 1.8.4 1 .2.4-.2-.7 0-1.3 0 .5 0-3.5-.5-7.1-.6-10.6l-.6-11.1c-.3-7.4-.6-14.7-.8-22.1-.5-16.4-.6-32.7-.4-49.1 0-3.5-3.1-6.9-6.8-6.8-3.3.1-6.3 2.9-6.4 6.7z"/><path d="M668.6 804.4c-8.3 4.8-16.6 9.6-24.9 14.5 3.4 1.9 6.8 3.9 10.2 5.8-.1-1.3-.2-2.7-.2-4 0-.6.1-1.2.1-1.8 0 0 .1-.8.1-.9-.1 1-.2 1.2-.1.7 0-.2.1-.4.1-.7.5-2.7 1.2-5.2 2.2-7.8.2-.5.3-1.3.7-1.7-.6.7-.4 1-.1.4.2-.3.3-.7.5-1 .6-1.3 1.2-2.6 1.9-3.9 1.2-2.4 2.5-4.8 3.8-7.2 5.4-10 11.2-19.8 17.2-29.4 3-4.8 6-9.5 9.2-14.2.7-1.1 1.5-2.2 2.3-3.4.4-.6.8-1.2 1.2-1.7.1-.2.3-.4.4-.6.4-.5-1.1 1.3-.1.2.2-.2.4-.3.5-.5.6-.6-1.5.9-.4.3.5-.3.8-.2-.7.2.5-.2.9 0-.8.1 1.1 0-.7-.1-.8-.1-1.3-.3-1.2-.6-.7-.3 1.1.6-1-.9-.4-.3.2.2.4.4.6.7.9.9-.8-1.1-.3-.4.2.2.3.4.5.6.4.6.9 1.2 1.3 1.8.9 1.2 1.7 2.4 2.6 3.6 1.7 2.4 3.5 4.9 5.2 7.3 3.4 4.8 6.9 9.6 10.3 14.4 7.8 10.9 15.6 21.7 23.4 32.6l2.4-9.3c-.8.4.1-.1.4-.2-.3.1-.5.2-.8.3-.5.2-1.1.4-1.6.6-1.1.4-2.2.7-3.3 1s-2.3.4-3.4.7c.3-.1 1.5-.2.5-.1-.3 0-.6.1-.9.1-.6.1-1.3.1-1.9.1-1.1.1-2.3.1-3.4 0-.6 0-1.1-.1-1.7-.1-.3 0-.6-.1-.9-.1-.2 0-1.3-.2-.2 0 1.1.1.1 0-.2 0s-.6-.1-.8-.1c-.6-.1-1.1-.2-1.7-.4-1.2-.3-2.4-.6-3.5-1-3.4-1.1-7.5 1.3-8.3 4.7-.8 3.7 1.1 7.1 4.7 8.3 11.1 3.7 23.1 2.6 33.7-2.1 3.1-1.4 4.4-6.5 2.4-9.3L723 770.2c-3.6-5.1-7.3-10.1-10.9-15.2-3.6-5-7.1-10.1-10.8-15-2.5-3.3-5.7-6-10.1-5.8s-7.4 2.9-9.9 6.2c-3.5 4.7-6.6 9.8-9.8 14.8-6.4 10-12.5 20.3-18.3 30.7-6.5 11.7-14.5 24.7-13 38.6.3 2.4 1.1 4.5 3.4 5.8 2.1 1.2 4.7 1.2 6.8 0 8.3-4.8 16.6-9.6 24.9-14.5 3.1-1.8 4.4-6.2 2.4-9.3-1.8-2.7-5.8-4-9.1-2.1zm131.1 18.5c19.6-2.6 39-6.9 57.9-12.7 3.4-1 5.9-4.8 4.7-8.3-1.1-3.4-4.7-5.8-8.3-4.7-18.9 5.8-38.3 10.1-57.9 12.7-1.6.2-3.3 1.8-4 3.1-.8 1.5-1.2 3.6-.7 5.2s1.5 3.2 3.1 4c1.7.9 3.3 1 5.2.7zm14.1 34c15.8-2.6 31.4-6.5 46.6-11.6 4.4-1.5 8.7-3 13-4.7 1.7-.7 3.1-1.5 4-3.1.8-1.5 1.2-3.6.7-5.2-1-3.2-4.8-6.1-8.3-4.7-14.9 5.8-30.3 10.4-46 13.7-4.5 1-9 1.8-13.6 2.6-1.6.3-3.3 1.8-4 3.1-.8 1.5-1.2 3.6-.7 5.2 1.2 3.7 4.5 5.3 8.3 4.7z"/></svg></g><g transform="translate(425.0 86.0) rotate(0.0 329.0 380.5) scale(0.7374994956310441 0.7378828676397154)"><svg width="892.204" height="1031.329" viewBox="0 0 892.204 1031.329"><path d="M882.504 901.725a5.303 5.303 0 0 1 .142-2.36c-15.985-53.388-34.195-106.117-54.724-157.943a2049.24 2049.24 0 0 0-75.85-168.87c-14.56-28.86-29.76-57.4-44.68-86.08-16.13-31.01-32.35-61.98-49.55-92.42-2.15-3.81-4.31-7.63-6.46-11.44-.75-1.43-1.52-2.84-2.28-4.26-.05-.02-.11-.03-.16-.05-32.01-56.7-63.96-113.43-96.28-169.96-34.59-60.49-69.57-120.76-105.3-180.58-4.55-7.61-9.11-15.21-13.68-22.81-1.39-2.31-4.35-1.05-4.66 1.27-3.71 27.67-7.52 55.35-10.4 83.12-1.2 11.55-1.01 23.18-6.39 33.83-1.55 3.06-3.62 6.22-6.77 7.8-4.22 2.12-9.73.41-14.17-.1-11.34-1.31-22.7-2.41-34.08-3.31-40.42-3.18-80.97-3.47-121.27-.62-6.25.22-12.49.61-18.7 1.12-11.95.98-23.77 2.4-35.47 4.67-31.95 4.58-63.63 11.25-94.83 20.13-6.65 1.89-12.98 4.89-19.7 1.68-5.37-2.57-9.86-7.1-13-12.09-3.04-4.84-4.72-10.35-6.69-15.68-1.98-5.38-3.97-10.76-5.95-16.15-8.07-22-16.1-44.06-22.62-66.59-.81-2.81-4.68-2.08-4.91.67-5.23 64.49-8.35 129.16-9.16 193.87-.64 51.5.15 103.03 2.65 154.48 2.53 51.97 6.9 103.82 10.8 155.7 4.31 57.28 7.54 114.62 8.64 172.06 1.22 63.01.35 126.07-2.35 189.03-.078 1.86-.17 3.719-.254 5.579 2.563 7.49 3.933 15.144 4.641 22.892 3.841 1.806 7.68 3.617 11.533 5.399 22.69 10.5 45.57 20.56 68.62 30.23 22.43 9.42 45.03 18.43 67.78 27.05 21.12 8.01 42.38 15.66 63.75 22.97.78.87 1.81 1.53 3.06 1.85 3.02.78 6.02 1.55 9.04 2.32.01 0 .01 0 .02.01.81.37 1.69.54 2.61.45a4905.773 4905.773 0 0 0 272.69-34.43c48.27-7.47 96.43-15.67 144.45-24.6 46.96-8.72 93.78-18.14 140.46-28.25a4916.515 4916.515 0 0 0 72.528-16.298 483.829 483.829 0 0 0-3.076-23.289z" fill="#fff"/><path d="M60.659 256.689a107.207 107.207 0 0 1 20.542-12.973c25.732-12.414 49.235-11.003 53.963-10.652 28.753 2.133 48.42 15.86 55.869 21.672-6.092 7.192-20.045 21.48-42.444 27.505-47.043 12.655-85.707-23.41-87.93-25.552z" fill="#fff"/><path d="M496.408 205.896c-23.818-28.01-63.841-35.293-98.495-28.806-19.972 3.739-39.004 11.813-56.814 21.427-16.379 8.841-37.21 20.031-37.665 41.274-.038 1.76.174 3.507.501 5.232-.113 9.183 2.965 18.635 7.852 26.584 9.574 15.573 25.74 26.49 42.459 33.12 38.29 15.183 81.076 5.612 117.036-11.39 15.459-7.309 30.995-17.822 37.707-34.203 7.602-18.552-.284-38.777-12.581-53.238z" fill="#4e4e4e"/><path d="M441.495 262.198c-52.681 27.044-109.485-6.976-113.915-9.724a129.233 129.233 0 0 1 19.06-15.589c6.496-4.348 27.394-17.476 57.454-21.244 35.48-4.448 63.293 6.705 75.066 12.266-6.725 10.128-18.594 24.501-37.665 34.291z" fill="#fff"/><path d="M216.81 128.593c-16.873 1.38-33.473 3.653-49.881 7.905-7.816 2.025-16.152 3.821-23.518 7.183-3.171 1.448-5.829 3.558-8.504 5.624 16.446 21.725 35.006 42.808 61.706 51.368 13.977 4.48 29.912 5.245 43.726-.241 14.444-5.736 25.069-17.103 32.971-30.214 7.452-12.365 12.402-26.004 18.965-38.819-24.721-5.006-50.323-4.863-75.465-2.806zm386.555 846.035c14.879-1.484 29.759-2.853 44.432-5.827 11.357-2.302 22.535-5.32 33.501-8.966 8.645-29.359 9.344-60.858 2.323-90.658-7.045-29.9-22.481-57.484-43.571-79.74-9.764-10.304-20.842-19.347-32.806-26.988-4.304 6.227-10.294 11.33-14.517 17.641-5.774 8.629-9.595 18.16-13.281 27.815-7.053 18.474-12.803 37.403-16.704 56.796-3.937 19.572-7.205 39.486-7.234 59.503-.027 18.836 3.162 37.194 5.856 55.735 14.032-.643 28.044-3.918 42.001-5.311z" fill="#4e4e4e"/><g fill="#b1b1b1"><path d="M261.728 348.233c6.087-5.277 8.418-13.853 8.395-21.648-.007-2.065-.127-4.263-.817-6.218-1.189-3.369-3.664-5.612-6.945-6.875-2.728-1.05-5.919-1.326-8.909-1.197-4.853-1.597-10.228-1.301-15.113.864-3.055 1.354-5.441 3.488-7.185 6.063-3.777 3.598-6.618 8.365-7.845 13.214-1.743 6.887-.916 14.972 4.304 20.213 6.265 6.289 16.294 5.754 23.914 2.538a28.116 28.116 0 0 0 8.029-5.183c.423-.325.809-.696 1.208-1.053.318-.244.659-.454.964-.718z"/><path d="M312.146 323.492c-.501-3.376-2.25-6.366-4.399-8.956-4.206-5.072-10.999-7.911-17.502-8.096-5.542-.158-11.237 1.951-15.203 5.858-.918.301-1.772.805-2.461 1.593-4.244 4.856-5.58 10.933-4.354 17.211 1.106 5.662 5.02 10.9 10.141 13.548 3.495 1.807 7.443 2.63 11.38 2.547 3.309.115 6.65-.593 9.549-2.076 4.829-2.08 8.951-5.674 11.23-10.648 1.633-3.568 2.196-7.092 1.619-10.981zm385.188 146.887c-7.502-10.155-14.013-20.956-20.339-31.867-6.35-10.952-12.99-22.392-17.822-34.104-2.39-5.794-3.992-11.9-6.483-17.648-1.18-2.723-2.635-5.281-4.02-7.874-19.131-6.261-41.66-9.964-56.915 6.241-13.334 14.163-14.718 35.633-11.339 53.838 7.296 39.309 42.158 79.249 85.465 73.802 12.244-1.54 23.759-7.077 31.48-16.896 3.211-4.083 5.667-8.537 7.253-13.239-2.316-4.192-4.497-8.486-7.28-12.253zm-62.255 102.348c-.538-1.912-1.384-3.668-2.438-5.267-1.341-2.952-3.367-5.567-6.255-7.5-3.621-2.423-8.13-2.893-12.409-2.063-.456-.025-.907-.085-1.367-.079-7.516.091-14.414 4.601-17.999 11.139-3.592 6.552-4.011 14.684-.195 21.245 3.76 6.467 10.681 10.301 17.99 11.046 15.079 1.537 26.637-14.45 22.673-28.521zm154.846 100.966c-10.214-24.315-20.267-48.71-30.787-72.895-7.295-16.77-15.137-33.938-25.881-48.917-51.778 69.154-4.347 156.182 57.443 215.364 17.131 16.408 36.339 31.453 57.065 45.169-17.611-46.88-38.46-92.588-57.84-138.721z"/></g><path d="M32.798 925.662c2.848-59.635 4.02-119.361 3.419-179.061-.599-59.465-3.347-118.852-7.602-178.163-3.698-51.559-8.238-103.058-11.15-154.672-2.912-51.62-4.147-103.317-3.881-155.017.32-62.218 2.785-124.424 7.257-186.481.65-9.015 1.345-18.027 2.077-27.036l-13.303 1.8c6.067 20.984 13.469 41.566 20.965 62.073 3.709 10.147 7.205 20.426 11.229 30.452 3.892 9.698 10.762 18.809 20.321 23.519 11.456 5.645 22.286.47 33.703-2.66a732.999 732.999 0 0 1 35.033-8.685c23.308-5.17 46.875-9.211 70.588-11.993 47.78-5.605 96.047-6.369 144.032-3.192a934.54 934.54 0 0 1 35.73 3.066c9.109.956 20.409 4.555 28.91-.32 12.494-7.164 15.284-24.675 16.248-37.669 2.353-31.728 7.266-63.355 11.493-94.874l-12.62 3.418c35.911 59.691 71.046 119.844 105.725 180.258 35.155 61.242 69.855 122.744 104.482 184.286 33.628 59.768 65.597 120.365 97.069 181.296 28.74 55.641 55.179 112.381 78.791 170.391a1946.002 1946.002 0 0 1 65.659 188.417c2.442 8.349 15.518 4.796 13.061-3.601-16.866-57.651-36.301-114.545-58.419-170.395-22.871-57.751-48.299-114.438-76.284-169.891-14.565-28.861-29.758-57.402-44.679-86.079-16.134-31.01-32.354-61.98-49.551-92.418-34.994-61.94-69.876-123.948-105.184-185.711-34.582-60.493-69.566-120.759-105.3-180.58a8486.064 8486.064 0 0 0-13.675-22.81c-3.779-6.281-11.78-2.852-12.62 3.418-3.71 27.671-7.528 55.35-10.408 83.122-1.167 11.25-.684 21.527-5.805 31.678-1.161 2.302-2.719 5.203-5.239 6.269-3.415 1.444-8.463-.284-12.01-.691a957.982 957.982 0 0 0-34.08-3.306c-91.234-7.185-183.256.363-271.401 25.449-5.312 1.512-10.994 4.532-16.413 2.112-4.739-2.117-8.739-6.219-11.467-10.559-2.85-4.533-4.414-9.661-6.255-14.653-1.984-5.383-3.972-10.764-5.949-16.15-8.075-21.999-16.108-44.065-22.62-66.588-2.204-7.624-12.699-5.636-13.303 1.8C4.133 109.728 1.014 174.395.211 239.1c-.639 51.504.149 103.032 2.648 154.482C5.384 445.557 9.76 497.404 13.66 549.286c4.306 57.283 7.537 114.622 8.642 172.063 1.212 63.005.346 126.065-2.355 189.022-.219 5.098-.451 10.195-.694 15.291-.417 8.714 13.129 8.692 13.545 0z"/><path d="M255.11 1031.295c44.44-4.348 88.82-9.297 133.124-14.863a4922.806 4922.806 0 0 0 139.259-19.508c47.887-7.411 95.634-15.638 143.303-24.338 34.467-6.291 68.911-12.749 103.159-20.15 32.884-7.107 65.566-15.1 98.213-23.215 5.072-1.261 10.142-2.525 15.212-3.791 8.452-2.111 4.872-15.177-3.601-13.061-33.996 8.49-68.007 16.956-102.217 24.551-32.671 7.253-65.53 13.602-98.437 19.681-46.573 8.604-93.216 16.814-139.992 24.246a4796.677 4796.677 0 0 1-138.759 19.987 4860.537 4860.537 0 0 1-149.264 16.918c-3.64.356-6.772 2.858-6.772 6.772-.001 3.385 3.11 7.129 6.772 6.771z"/><path d="M20.385 936.325a2112.9 2112.9 0 0 0 45.189 21.286 1834.11 1834.11 0 0 0 44.248 19.496 1800.967 1800.967 0 0 0 45.443 18.596 1794.879 1794.879 0 0 0 45.155 17.036 2017.326 2017.326 0 0 0 46.782 16.28c2.035.681 4.071 1.359 6.108 2.034 3.365 1.116 7.547-1.29 8.331-4.73.85-3.733-1.127-7.137-4.73-8.331a2061.263 2061.263 0 0 1-47.08-16.22 1812.204 1812.204 0 0 1-45.129-16.849 1735.319 1735.319 0 0 1-44.098-17.843c-.481-.202-.967-.394-1.442-.607l.588.248-.618-.261a1821.567 1821.567 0 0 1-41.312-18.088 2057.742 2057.742 0 0 1-44.811-20.946c-1.93-.93-3.858-1.862-5.785-2.797-3.182-1.544-7.468-.974-9.266 2.43-1.608 3.037-.976 7.615 2.427 9.266zm45.063-674.847c.391-.313.784-.622 1.177-.932.978-.771-1.383 1.049-.368.286l.521-.395a107.292 107.292 0 0 1 9.805-6.564 106.68 106.68 0 0 1 11.609-5.953c.092-.04 1.564-.668.522-.229-1.037.436.419-.169.516-.209a114.267 114.267 0 0 1 3.5-1.351 110.746 110.746 0 0 1 16.835-4.692 109.357 109.357 0 0 1 5.524-.939c.234-.034.471-.062.704-.1-2.345.373-.6.081-.075.017 2.11-.258 4.228-.457 6.35-.593a99.737 99.737 0 0 1 9.72-.167 82.864 82.864 0 0 1 5.159.329 101.6 101.6 0 0 1 2.198.226c.434.049.867.105 1.301.157 1.349.162-1.529-.225-.087-.009 5.465.818 10.856 2.024 16.127 3.691 2.322.735 4.619 1.551 6.884 2.447.541.214 1.078.436 1.617.655 1.232.503-1.565-.679-.355-.149l.621.27a105.636 105.636 0 0 1 18.919 10.74 100.461 100.461 0 0 1 2.579 1.905c1.176.894-1.442-1.121-.507-.393v-9.578a92.082 92.082 0 0 1-8.032 8.353 89.925 89.925 0 0 1-4.04 3.483c-.469.38-2.615 1.967-.622.511-2.298 1.679-4.592 3.337-7.016 4.833a82.2 82.2 0 0 1-8.222 4.453c-.713.335-1.434.652-2.154.973-1.333.593 1.506-.605.143-.06-.376.15-.75.305-1.127.453a78.949 78.949 0 0 1-17.003 4.572c-.472.072-1.891.187.257-.024-.385.038-.768.098-1.152.142-1.642.19-3.289.328-4.94.413a79.82 79.82 0 0 1-9.229-.061 82.126 82.126 0 0 1-4.29-.389c-.352-.041-.704-.093-1.057-.13 2.232.233.896.121.401.049a90.379 90.379 0 0 1-2.422-.39c-5.507-.968-10.916-2.465-16.162-4.393a102.524 102.524 0 0 1-3.55-1.38c-.289-.118-.577-.241-.866-.359 2.087.854.934.394.477.196a113.847 113.847 0 0 1-8.28-4.005 120.502 120.502 0 0 1-15.835-10.133l-.449-.341c-1.028-.781 1.4 1.091.65.504-.316-.248-.633-.495-.948-.745a95.153 95.153 0 0 1-1.68-1.363c-1.245-1.032-2.479-2.086-3.645-3.207-2.555-2.458-7.071-2.731-9.578 0-2.442 2.66-2.728 6.954 0 9.578 3.512 3.378 7.465 6.362 11.422 9.186 7.859 5.611 16.341 10.164 25.277 13.81 11.21 4.574 23.347 7.19 35.474 7.224 14.413.04 28.716-3.705 41.367-10.579 9.304-5.056 17.791-11.887 24.839-19.786a96.397 96.397 0 0 0 1.572-1.808c1.13-1.332 2.066-2.96 1.984-4.789-.075-1.664-.604-3.714-1.984-4.789-14.063-10.955-30.493-18.815-48.095-22.034-18.242-3.336-37.08-1.902-54.727 3.82-13.576 4.402-26.011 11.262-37.129 20.167-1.267 1.015-1.984 3.243-1.984 4.789 0 1.661.738 3.645 1.984 4.789 1.291 1.185 2.985 2.064 4.789 1.984 1.901-.089 3.308-.803 4.786-1.987z"/><path d="M117.974 240.683c.162.337.317.677.473 1.017.612 1.336-.657-1.645-.073-.17a36.645 36.645 0 0 1 1.813 6.081c.127.62.142 1.348.341 1.942-.172-.513-.181-1.497-.062-.364a34.532 34.532 0 0 1 .146 5.366c-.039.775-.124 1.543-.195 2.315-.082.901.294-1.74.028-.27-.051.279-.095.559-.147.838a36.044 36.044 0 0 1-2.021 6.829c-.615 1.52-.108 3.868.683 5.219.822 1.405 2.433 2.745 4.047 3.112 1.734.395 3.68.309 5.219-.683 1.576-1.016 2.414-2.32 3.112-4.047 4.459-11.029 3.42-23.424-1.668-34.021-1.537-3.202-6.364-4.3-9.266-2.43-3.289 2.119-4.075 5.841-2.43 9.266zm320.103 15.667a95.985 95.985 0 0 1-5.572 2.631c-1.36.596 1.129-.457.222-.093-.4.16-.797.326-1.197.484a92.232 92.232 0 0 1-7.786 2.692 93.704 93.704 0 0 1-7.565 1.905 94.168 94.168 0 0 1-5.539.986c-.262.039-.526.072-.788.113 2.128-.341.669-.089.228-.035-4.929.609-9.902.848-14.867.753a114.892 114.892 0 0 1-10.568-.693 126.24 126.24 0 0 1-1.625-.191c-.299-.037-.6-.068-.897-.115l1.086.146-.712-.1c-8.47-1.216-16.809-3.285-24.913-6.024a156.059 156.059 0 0 1-10.039-3.783c-1.434-.597 1.638.699.197.083a149.906 149.906 0 0 1-3.124-1.377c-1.304-.592-2.6-1.202-3.887-1.831-3.312-1.618-6.596-3.333-9.73-5.276l1.371 10.637a131.47 131.47 0 0 1 6.093-5.662c1.117-.973 2.25-1.926 3.399-2.86.554-.45 1.115-.891 1.672-1.336 1.21-.966-1.228.924.024-.021.482-.363.962-.729 1.446-1.088 3.07-2.276 6.24-4.419 9.507-6.402a129.595 129.595 0 0 1 10.236-5.587c2.163-1.059 4.363-2.026 6.563-3.002-2.25.998.043-.013.571-.227a139.416 139.416 0 0 1 5.676-2.158 135.853 135.853 0 0 1 18.193-5.075 132.155 132.155 0 0 1 7.425-1.304c-.036.005.865-.167.901-.129-1.045.138-1.191.158-.438.059a131.89 131.89 0 0 1 11.587-.977 133.078 133.078 0 0 1 22.009.951c.467.059 1.887.324-.24-.036.383.065.772.108 1.157.165a137.503 137.503 0 0 1 12.608 2.457 140.09 140.09 0 0 1 20.161 6.561l.653.271c.995.409-1.823-.778-.669-.282 1.625.698 3.239 1.419 4.838 2.173l-2.43-9.266a125.849 125.849 0 0 1-4.43 6.206c-.476.629.997-1.275.504-.653l-.283.361a115.787 115.787 0 0 1-2.084 2.566 106.025 106.025 0 0 1-3.064 3.499 101.801 101.801 0 0 1-7.012 6.956 97.95 97.95 0 0 1-4.098 3.489c-.307.247-.617.491-.926.736-.915.725 1.255-.951-.051.036a93.756 93.756 0 0 1-2.288 1.676 95.765 95.765 0 0 1-11.505 6.991c-3.153 1.628-4.34 6.303-2.43 9.266 2.073 3.215 5.893 4.171 9.266 2.43 13.131-6.781 24.746-16.57 33.862-28.187 2.177-2.774 4.279-5.599 6.233-8.535 1.901-2.856.747-7.768-2.43-9.266-19.359-9.13-40.56-14.201-62.006-14.214-24.657-.015-49.37 6.7-70.706 19.054-9.856 5.707-18.98 12.784-27.075 20.786-3.17 3.133-2.303 8.36 1.371 10.637 8.58 5.317 18.081 9.398 27.564 12.767 17.658 6.274 36.877 9.586 55.612 7.791 13.163-1.261 25.783-4.816 37.576-10.834 3.162-1.614 4.334-6.313 2.43-9.266-2.081-3.226-5.885-4.155-9.267-2.429z"/><path d="M401.856 222.91c1.371 2.267 2.367 4.69 3.633 6.999-.82-1.496-.263-.631-.089-.203a57.763 57.763 0 0 1 2.233 6.646 58.792 58.792 0 0 1 1.258 5.782c.048.288.09.578.136.866.2 1.255-.129-1.152-.035-.28.291 2.696.463 5.38.422 8.093-.053 3.544 3.153 6.935 6.772 6.773 3.715-.166 6.716-2.975 6.773-6.773.182-12.152-3.119-24.342-9.408-34.741-1.833-3.031-6.16-4.432-9.266-2.43-3.044 1.965-4.39 6.024-2.429 9.268zm-159.267 67.598c-1.011 10.106 8.08 19.155 17.607 20.657 5.324.839 10.742-.038 15.189-3.249 4.458-3.22 7.521-7.561 9.314-12.749 1.773-5.132 1.859-11.092.255-16.275-1.047-3.38-4.774-5.881-8.331-4.73-3.402 1.101-5.853 4.707-4.73 8.331.245.791.418 1.588.591 2.397.317 1.49-.109-1.687-.023-.164.028.496.072.989.08 1.486.013.776-.048 1.543-.093 2.316-.062 1.087.122-.826.123-.813.015.178-.072.467-.105.654-.086.489-.19.975-.311 1.456-.201.804-.469 1.577-.741 2.359-.163.468-.565.938.309-.706-.101.19-.18.402-.273.595a19.292 19.292 0 0 1-1.278 2.267c-.175.265-.975 1.337-.222.366.809-1.043-.221.234-.397.427-.323.356-.662.698-1.015 1.025-.216.2-1.305 1.075-.292.298 1.016-.779-.11.061-.354.221-.359.235-.729.456-1.107.659-.19.102-.387.193-.577.294-.967.515 1.334-.477.569-.228-.753.246-1.48.465-2.255.638-1.066.238 1.904-.156.263-.059-.412.024-.826.029-1.239.015-.153-.005-1.15.026-1.239-.096-.048-.065 1.926.35.877.1-.151-.036-.307-.06-.459-.093-.588-.128-2.122-.323-2.539-.783-.109-.12 1.518.721.898.372-.181-.102-.379-.179-.564-.273a16.536 16.536 0 0 1-.96-.527c-.359-.213-.699-.451-1.048-.678-.411-.267-.763-.777.624.5-.189-.174-.4-.327-.593-.497-.661-.581-1.203-1.239-1.798-1.881 1.461 1.574.462.593.106.01-.235-.386-.434-.785-.64-1.186-.259-.502-.073-.849.333.794-.059-.238-.169-.47-.241-.705-.037-.122-.311-1.305-.316-1.305.042-.001.15 1.633.139 1.056-.005-.251-.044-.504-.052-.756-.016-.517.013-1.029.064-1.543.163-1.625-.873-3.678-1.984-4.789-1.175-1.175-3.102-2.059-4.789-1.984-3.975.181-6.397 2.988-6.776 6.776z"/><path d="M259.146 309.696c.19 1.232.378 2.463.555 3.697.033.232.341 2.25.153 1.073-.168-1.058-.011-.069.023.199.046.367.092.734.135 1.101.304 2.563.532 5.136.614 7.717.078 2.468.022 4.944-.243 7.4-.185 1.72.23-1.368-.043.336-.102.637-.22 1.271-.354 1.901a33.862 33.862 0 0 1-1.017 3.73c-.176.523-.488 1.083-.596 1.622.029-.143.672-1.474.174-.417-.109.23-.211.462-.322.691a21.31 21.31 0 0 1-1.476 2.553c-.33.49-1.318 1.564.087-.035-.292.332-.556.688-.849 1.02a24.47 24.47 0 0 1-2.114 2.122c-.331.294-.698.556-1.02.858 1.507-1.415.55-.422.037-.066a24.526 24.526 0 0 1-2.541 1.543c-.387.203-.784.384-1.176.577-.952.469.726-.301.721-.297-.128.099-.437.173-.604.234-.9.334-1.822.61-2.76.816-.691.152-2.421.177-.06.071-.517.023-1.031.098-1.549.111-.462.012-.924.004-1.386-.023-.204-.012-.408-.039-.612-.048-.818-.039 1.81.316.739.099-.501-.102-.999-.198-1.491-.338-.342-.097-1.221-.229-1.454-.5-.04-.046 1.695.822.767.302-.274-.153-.56-.285-.832-.443a15.856 15.856 0 0 1-1.341-.879c-1.344-.972-3.685-1.105-5.219-.683-1.571.433-3.273 1.647-4.047 3.112-1.854 3.509-.645 7.043 2.43 9.266 8.345 6.035 20.205 4.042 28.06-1.81 4.105-3.059 7.707-6.88 9.796-11.616 2.578-5.843 3.773-11.97 3.868-18.359.1-6.785-.961-13.55-1.991-20.236-.241-1.566-1.808-3.284-3.112-4.047-1.452-.85-3.591-1.209-5.219-.683-1.639.53-3.22 1.546-4.047 3.112-.906 1.711-.977 3.315-.684 5.217z"/><path d="M260.659 329.934c.91 10.657 7.45 20.75 17.336 25.239 5.568 2.528 11.209 3.321 17.252 2.39 5.324-.819 10.161-3.394 14.328-6.718 4.62-3.686 8.023-8.909 9.681-14.569.996-3.399-1.204-7.528-4.73-8.331-3.628-.826-7.264 1.091-8.331 4.73-.133.452-.273.902-.432 1.346-.074.207-.194.443-.25.659.393-1.535.503-1.141.268-.647a24.753 24.753 0 0 1-1.518 2.773c-.254.395-.525.777-.797 1.159-.314.439-.706.536.415-.534-.161.154-.308.376-.45.542-.65.76-1.348 1.477-2.087 2.151-.349.318-.712.615-1.071.922-.63.539 1.209-.889.534-.408-.192.137-.38.279-.573.414a24.638 24.638 0 0 1-2.558 1.573c-.416.222-.844.418-1.264.63-1.004.508.645-.305.648-.259.001.023-.57.226-.656.259-.989.373-2.001.681-3.031.919-.457.106-.918.189-1.379.273-.523.095-1.047-.053.756-.094-.229.005-.473.051-.7.071-.994.085-1.995.099-2.991.043-.413-.023-.822-.08-1.233-.107 2.197.143.672.087.059-.039a21.838 21.838 0 0 1-3.7-1.112c.013-.037 1.648.757.648.269-.422-.206-.848-.401-1.263-.621a23.898 23.898 0 0 1-2.553-1.565c-.193-.135-.381-.277-.572-.414-.674-.482 1.164.948.535.408-.358-.308-.721-.605-1.07-.924a24.875 24.875 0 0 1-2.091-2.155c-.154-.179-.3-.363-.453-.543-.859-1.007.938 1.347.2.249-.295-.44-.604-.868-.886-1.318-.147-.235-1.679-2.895-1.572-2.951.035-.018.652 1.693.277.644-.099-.276-.207-.548-.303-.825a21.828 21.828 0 0 1-.848-3.229c-.027-.146-.047-.609-.114-.696.273.353.204 1.781.085.396-.301-3.521-2.9-6.946-6.772-6.772-3.412.153-7.097 2.992-6.774 6.772zM103.305 755.449c3.3 28.12 4.831 56.413 5.222 84.716.376 27.214-.276 54.427-1.078 81.628-.449 15.226-.941 30.452-1.317 45.68-.087 3.544 3.178 6.933 6.772 6.772 3.744-.168 6.679-2.975 6.772-6.772.671-27.211 1.716-54.412 2.217-81.627.506-27.501.436-55.024-1.016-82.497-.845-16.004-2.16-31.982-4.028-47.9-.218-1.856-.611-3.416-1.984-4.789-1.175-1.175-3.102-2.059-4.789-1.984-1.752.078-3.568.654-4.789 1.984-1.131 1.233-2.186 3.046-1.982 4.789zm86.088 239.101c6.334-27.666 10.787-55.754 13.713-83.98 2.886-27.843 4.218-55.845 4.123-83.836a825.926 825.926 0 0 0-1.498-46.89c-.213-3.53-2.963-6.943-6.772-6.772-3.487.156-7.001 2.985-6.773 6.772 1.673 27.749 1.963 55.583.802 83.359a774.793 774.793 0 0 1-2.861 41.699 737.771 737.771 0 0 1-2.948 25.905c-.062.469-.119.939-.187 1.407.25-1.713.104-.771.052-.394-.14 1.015-.278 2.03-.421 3.045a689.432 689.432 0 0 1-1.557 10.511 658.973 658.973 0 0 1-8.735 45.572c-.789 3.446 1.057 7.494 4.73 8.331 3.45.786 7.486-1.036 8.332-4.729zm189.344-214.964a3802.727 3802.727 0 0 0 13.664 222.269c.166 1.831.644 3.449 1.984 4.789 1.175 1.175 3.102 2.059 4.789 1.984 3.395-.152 7.116-2.994 6.773-6.773a3799.16 3799.16 0 0 1-13.665-222.269c-.114-3.537-3.034-6.94-6.772-6.773-3.573.16-6.895 2.98-6.773 6.773zm121.171 209.641-1.682-66.361-1.846-72.823-.88-34.717c-.09-3.539-3.051-6.939-6.773-6.772-3.592.161-6.869 2.978-6.772 6.772l1.682 66.361 1.846 72.823.88 34.717c.09 3.539 3.051 6.939 6.772 6.773 3.593-.161 6.87-2.979 6.773-6.773zM252.115 693.958v25.398c0 3.543 3.115 6.936 6.773 6.772 3.669-.164 6.772-2.976 6.772-6.772v-25.398c0-3.543-3.115-6.936-6.772-6.772-3.67.163-6.773 2.975-6.773 6.772zm21.182-50.807c.263 1.453.511 2.909.732 4.369.054.357.105.715.157 1.072.137.943-.044-.265-.072-.552.065.668.166 1.334.239 2.002.253 2.332.412 4.675.465 7.02.109 4.891-.242 9.778-.603 14.653-.262 3.541 3.302 6.928 6.772 6.773 3.893-.174 6.492-2.979 6.773-6.773.369-4.993.728-9.999.594-15.01-.154-5.759-.971-11.494-1.995-17.156-.632-3.495-5.068-5.786-8.331-4.73-3.749 1.215-5.408 4.588-4.731 8.332zm42.313.011v28.573c0 3.543 3.115 6.936 6.772 6.773 3.669-.164 6.772-2.976 6.772-6.773v-28.573c0-3.543-3.115-6.936-6.772-6.772-3.669.163-6.772 2.975-6.772 6.772zm-3.566 100.306 3.963 28.463c.217 1.556 1.828 3.296 3.112 4.047 1.452.849 3.591 1.209 5.219.683 1.639-.53 3.22-1.546 4.047-3.112.911-1.724.949-3.307.683-5.219l-3.963-28.463c-.217-1.556-1.828-3.296-3.112-4.047-1.452-.849-3.591-1.209-5.219-.683-1.639.53-3.22 1.546-4.047 3.112-.912 1.724-.949 3.307-.683 5.219zm-31.229 72.463c-.899 4.981-1.856 9.94-2.507 14.961-.664 5.124-.831 10.273-.671 15.435.109 3.538 3.037 6.94 6.773 6.773 3.576-.16 6.89-2.979 6.772-6.773a102.38 102.38 0 0 1 .627-15.091c.099-.847-.227 1.612-.105.772l.121-.85c.075-.507.153-1.014.234-1.521.173-1.076.359-2.149.552-3.221.413-2.297.852-4.589 1.266-6.885.33-1.828.285-3.565-.683-5.219-.822-1.405-2.433-2.745-4.047-3.112-3.311-.753-7.659 1.003-8.332 4.731zm-35.112-7.674c.007 5.204-.083 10.424-.719 15.595-.195 1.583.245-1.703.02-.141-.072.5-.149 1-.229 1.499-.156.969-.327 1.935-.506 2.899-.43 2.318-.901 4.628-1.354 6.941-.679 3.466.98 7.477 4.73 8.331 3.355.764 7.603-1.013 8.331-4.73.946-4.829 1.9-9.635 2.518-14.519.666-5.262.761-10.577.754-15.875-.005-3.542-3.112-6.936-6.772-6.773-3.665.165-6.778 2.976-6.773 6.773zm75.681 69.908 3.147 25.401c.231 1.862.603 3.408 1.984 4.789 1.175 1.175 3.102 2.059 4.789 1.984 1.752-.078 3.568-.654 4.789-1.984 1.128-1.229 2.199-3.052 1.984-4.789l-3.147-25.401c-.231-1.862-.603-3.408-1.984-4.789-1.175-1.175-3.102-2.059-4.789-1.984-1.752.078-3.568.654-4.789 1.984-1.129 1.229-2.2 3.052-1.984 4.789zm-53.395 34.851v34.922c0 3.543 3.115 6.936 6.773 6.773 3.669-.164 6.772-2.976 6.772-6.773v-34.922c0-3.543-3.115-6.936-6.772-6.773-3.67.165-6.773 2.976-6.773 6.773zm-38.097 22.223v19.049c0 3.543 3.115 6.936 6.772 6.773 3.669-.164 6.773-2.976 6.773-6.773v-19.049c0-3.543-3.115-6.936-6.773-6.772-3.669.164-6.772 2.975-6.772 6.772zm82.543 25.398v34.922c0 3.543 3.115 6.936 6.773 6.772 3.669-.164 6.772-2.976 6.772-6.772v-34.922c0-3.543-3.115-6.936-6.772-6.773-3.669.165-6.773 2.976-6.773 6.773zM229.892 595.54v34.922c0 3.543 3.115 6.936 6.772 6.772 3.669-.164 6.773-2.976 6.773-6.772V595.54c0-3.543-3.115-6.936-6.773-6.773-3.669.165-6.772 2.976-6.772 6.773zm76.194-79.369v22.223c0 3.543 3.115 6.936 6.772 6.773 3.669-.164 6.772-2.976 6.772-6.773v-22.223c0-3.543-3.115-6.936-6.772-6.772-3.669.164-6.772 2.976-6.772 6.772zm50.582 68.618 3.095 9.55c.54 1.668 1.576 3.148 3.112 4.047a5.041 5.041 0 0 0 2.518.804c.9.202 1.8.161 2.701-.121 1.639-.53 3.22-1.546 4.047-3.112.83-1.571 1.247-3.476.683-5.219l-3.095-9.55c-.54-1.668-1.576-3.148-3.112-4.047a5.041 5.041 0 0 0-2.518-.804 5.13 5.13 0 0 0-2.701.121c-1.639.53-3.22 1.546-4.047 3.112-.831 1.572-1.248 3.477-.683 5.219zm-69.631-11.472v22.223c0 3.543 3.115 6.936 6.773 6.772 3.669-.164 6.772-2.976 6.772-6.772v-22.223c0-3.543-3.115-6.936-6.772-6.772-3.67.164-6.773 2.975-6.773 6.772zm113.399-190.312c4.511 2.191 8.984 4.507 12.977 7.567l-1.371-1.059c3.291 2.551 6.217 5.525 9.108 8.512 2.469 2.55 7.131 2.665 9.578 0 2.515-2.74 2.634-6.857 0-9.578-3.49-3.605-7.055-7.029-11.086-10.031-3.825-2.848-8.092-5.029-12.369-7.107-1.658-.805-3.39-1.186-5.219-.683-1.571.433-3.273 1.647-4.047 3.112-1.606 3.04-.973 7.615 2.429 9.267zm26.88-31.21c3.132 1.198 6.266 2.391 9.39 3.611 1.084.423 2.166.85 3.245 1.285.493.199.986.4 1.478.604.25.104.516.193.758.316-.208-.105-1.837-.784-.774-.325 4.397 1.899 8.701 4.003 13.014 6.084 1.663.802 3.385 1.188 5.219.683 1.571-.433 3.273-1.647 4.047-3.112 1.602-3.031.977-7.623-2.43-9.266-4.38-2.113-8.748-4.265-13.223-6.173-5.647-2.408-11.389-4.574-17.122-6.767-1.549-.592-3.842-.123-5.219.683-1.405.822-2.745 2.433-3.112 4.047-.883 3.866 1.178 6.972 4.729 8.33zm30.527-30.654 28.582-3.086c1.848-.199 3.428-.623 4.789-1.984 1.175-1.175 2.059-3.102 1.984-4.789-.15-3.343-3-7.18-6.773-6.772l-28.582 3.086c-1.847.199-3.428.623-4.789 1.984-1.175 1.175-2.059 3.102-1.984 4.789.15 3.343 3.001 7.18 6.773 6.772zM85.298 371.21l25.672-28.324c2.379-2.625 2.786-7.021 0-9.578-2.594-2.381-7.037-2.803-9.578 0L75.72 361.632c-2.379 2.625-2.786 7.021 0 9.578 2.595 2.382 7.037 2.804 9.578 0zm35.725 8.232a144.896 144.896 0 0 1 7.695-12.636 143.486 143.486 0 0 1 4.191-5.824c.18-.238.371-.47.544-.713-.214.301-.777.992-.234.308.418-.527.834-1.056 1.256-1.58.798-.989 1.61-1.966 2.433-2.935 1.183-1.394 1.984-2.904 1.984-4.789 0-1.661-.738-3.645-1.984-4.789-2.522-2.315-7.129-2.884-9.578 0-6.861 8.081-12.95 16.799-18.003 26.121-1.688 3.114-.875 7.52 2.43 9.266 3.159 1.67 7.464.898 9.266-2.429zm42.11 25.851 12.385-22.397c1.714-3.1.856-7.53-2.43-9.266-3.182-1.681-7.435-.881-9.266 2.43l-12.385 22.397c-1.714 3.1-.856 7.53 2.43 9.266 3.181 1.68 7.435.881 9.266-2.43zm404.65 566.697a275.997 275.997 0 0 1-1.998-12.114c-.074-.52-.337-2.883-.092-.631-.503-4.609-1.101-9.198-1.478-13.821a282.357 282.357 0 0 1-.88-28.172 290.703 290.703 0 0 1 2.313-31.581c.03-.237.288-2.182.119-.924-.149 1.102-.021.163.017-.113.056-.405.112-.81.17-1.215a297.79 297.79 0 0 1 3.7-20.736 300.54 300.54 0 0 1 11.792-40.651 301.91 301.91 0 0 1 4.71-12l.316-.755-.364.864c7.569-17.274 16.278-33.898 26.816-49.564a285.986 285.986 0 0 1 10.248-14.272c.166-.216.334-.431.498-.648-.072.095-1.004 1.291-.309.401a279.206 279.206 0 0 1 5.63-7.01 275.816 275.816 0 0 1 19.09-20.758 275.11 275.11 0 0 1 5.031-4.809c2.597-2.422 2.631-7.162 0-9.578-2.781-2.553-6.808-2.584-9.578 0-14.281 13.323-27.073 28.185-38.358 44.119-10.951 15.462-20.368 32.005-28.141 49.282-8.025 17.837-14.464 36.359-18.995 55.391-4.493 18.872-7.212 38.229-8.036 57.612-.831 19.545.397 39.119 3.52 58.428.37 2.29.772 4.575 1.2 6.855.655 3.49 5.052 5.791 8.331 4.73 3.728-1.206 5.429-4.591 4.728-8.33z"/></svg></g></svg>